<svg xmlns="http://www.w3.org/2000/svg" viewBox="0 0 105.03 37.98"><defs><style>.cls-1{fill:#fff;}</style></defs><title>Recurso 2</title><g id="Capa_2" data-name="Capa 2"><g id="Layer_1" data-name="Layer 1"><path class="cls-1" d="M2.49,28.4A19.16,19.16,0,0,0,12,36.65a37.81,37.81,0,0,1-7.16-5.71A30.28,30.28,0,0,1,2.49,28.4Z"/><path class="cls-1" d="M.48,23.18c.19.79.43,1.58.67,2.3a40.93,40.93,0,0,0,4.19,5,40.57,40.57,0,0,0,9.77,7.1,17,17,0,0,0,2.43.36,38.28,38.28,0,0,1-11.65-8A37.23,37.23,0,0,1,.48,23.18Z"/><path class="cls-1" d="M0,19.42a16.4,16.4,0,0,0,.12,1.76A37.79,37.79,0,0,0,19.54,38c.61,0,1.21-.06,1.82-.12a36.88,36.88,0,0,1-14.5-9A37.73,37.73,0,0,1,0,19.42Z"/><path class="cls-1" d="M.18,16.38a12,12,0,0,0-.12,1.46A35.46,35.46,0,0,0,7.4,28.4a35.84,35.84,0,0,0,15.54,9.16,6,6,0,0,0,1.45-.37,35,35,0,0,1-16.5-9.34A36.33,36.33,0,0,1,.18,16.38Z"/><path class="cls-1" d="M.73,13.71A9.92,9.92,0,0,0,.42,15a35.14,35.14,0,0,0,8,12.38,34.46,34.46,0,0,0,17.3,9.4c.36-.12.79-.3,1.21-.49a34.39,34.39,0,0,1-18-9.4A34.28,34.28,0,0,1,.73,13.71Z"/><path class="cls-1" d="M1.58,11.47c-.18.36-.31.73-.49,1.09A33.45,33.45,0,0,0,28,35.74c.37-.18.67-.43,1-.61A32.55,32.55,0,0,1,10,25.85,32.74,32.74,0,0,1,1.58,11.47Z"/><path class="cls-1" d="M8.13,21.54a2.48,2.48,0,0,1-1.94-2.43v-.36A32.9,32.9,0,0,1,2.55,9.47a4.64,4.64,0,0,0-.49,1A31.54,31.54,0,0,0,10.44,25.3,31.8,31.8,0,0,0,30,34.52c.31-.24.61-.42.91-.66a31,31,0,0,1-19.9-9,30.29,30.29,0,0,1-2.85-3.28Z"/><path class="cls-1" d="M7,17.29A30.63,30.63,0,0,1,3.7,7.71a7.15,7.15,0,0,1-.61.85A29,29,0,0,0,6.55,17.9,2.43,2.43,0,0,1,7,17.29Z"/><path class="cls-1" d="M9.77,21.3a1.51,1.51,0,0,1-.73.24,35.15,35.15,0,0,0,2.43,2.79,30.41,30.41,0,0,0,20.2,8.86c.25-.24.49-.48.79-.73A29.46,29.46,0,0,1,12,23.78c-.78-.78-1.51-1.63-2.24-2.48Z"/><path class="cls-1" d="M29.55,31.55a34.88,34.88,0,0,0,3.58.18c.18-.18.36-.42.55-.6a13.53,13.53,0,0,1-3.52.42Z"/><path class="cls-1" d="M13.05,22.75a29,29,0,0,1-2.25-2.48,2.15,2.15,0,0,1-.42.6A25.25,25.25,0,0,0,12.5,23.3a29.21,29.21,0,0,0,13.71,7.64,13.29,13.29,0,0,1-4.06-2.06,28.11,28.11,0,0,1-9.1-6.13Z"/><path class="cls-1" d="M8.43,16.75A27.71,27.71,0,0,1,5,6.19c-.25.24-.43.48-.67.73a29.44,29.44,0,0,0,3.34,10,1.66,1.66,0,0,1,.78-.18Z"/><path class="cls-1" d="M20,26.76c-.24-.3-.48-.61-.73-1a27.11,27.11,0,0,1-5.15-4.07A26.07,26.07,0,0,1,6.31,4.85c-.24.25-.49.43-.73.67a28.27,28.27,0,0,0,3.7,11.29,2.45,2.45,0,0,1,1.82,2.3v.37a26.08,26.08,0,0,0,2.43,2.79,27.22,27.22,0,0,0,6.86,5v-.06c-.12-.12-.24-.3-.43-.48Z"/><path class="cls-1" d="M15.05,20.69A24.91,24.91,0,0,1,7.71,3.76L7,4.31a25.48,25.48,0,0,0,7.58,16.93,25,25,0,0,0,4,3.21A11.2,11.2,0,0,1,18,23.18a35.76,35.76,0,0,1-2.91-2.49Z"/><path class="cls-1" d="M25.12,25.36a8.43,8.43,0,0,0,5.16,1.82,8.6,8.6,0,0,0,2.85-.48,24.14,24.14,0,0,1-8-1.34Z"/><path class="cls-1" d="M16.08,19.66a23.6,23.6,0,0,1-7-16.87c-.24.12-.48.3-.73.43a24.42,24.42,0,0,0,7.22,17c.67.66,1.34,1.27,2.07,1.88a10.19,10.19,0,0,1-.25-1.16c-.42-.42-.91-.78-1.33-1.27Z"/><path class="cls-1" d="M17.29,18.87c-.06-.06-.12-.12-.18-.12A22.39,22.39,0,0,1,10.56,1.94c-.25.12-.49.31-.73.43a22.79,22.79,0,0,0,6.79,16.8,7.51,7.51,0,0,0,.67.73v-1Z"/><path class="cls-1" d="M23.24,23a4.55,4.55,0,0,0,.61,1.09,23.2,23.2,0,0,0,10.86,1.82,8.14,8.14,0,0,0,1.15-.85A22.21,22.21,0,0,1,23.24,23Z"/><path class="cls-1" d="M22.75,21.11c.06.37.13.67.19,1a22,22,0,0,0,13.71,2.12l.12-.12a3.9,3.9,0,0,0,.49-.79,20.91,20.91,0,0,1-14.51-2.19Z"/><path class="cls-1" d="M17.47,17a21.06,21.06,0,0,1-5.4-15.72c-.24.13-.54.25-.78.37A21.82,21.82,0,0,0,17.35,18a.76.76,0,0,1,.06-.36c0-.19.06-.43.06-.61Z"/><path class="cls-1" d="M13.59.79A3.17,3.17,0,0,0,12.8,1a20.36,20.36,0,0,0,4.86,15.11c.12-.24.18-.55.3-.85A19.37,19.37,0,0,1,13.59.79Z"/><path class="cls-1" d="M24.33,20.33c-.54-.31-1.15-.61-1.7-1v.91a20.36,20.36,0,0,0,15,2.24,3.28,3.28,0,0,0,.24-.73v-.06a19.38,19.38,0,0,1-12-.73H24.33v-.66Z"/><path class="cls-1" d="M22.63,18.57c.55.36,1.16.66,1.7,1v-.79c-.54-.3-1.09-.67-1.64-1a4.3,4.3,0,0,0-.06.85Z"/><path class="cls-1" d="M28.09,21A18.86,18.86,0,0,0,38,20.93a3.69,3.69,0,0,1,.06-.78c-.12.06-.24.06-.36.12,0,.24-.06.48-.06.72Z"/><path class="cls-1" d="M15.05.43a3,3,0,0,0-.73.12,18.76,18.76,0,0,0,3.88,14c.12-.24.24-.54.37-.79A18,18,0,0,1,15.05.43Z"/><path class="cls-1" d="M19.42,12.44A16.67,16.67,0,0,1,16.56.12c-.24.06-.48.06-.78.12a17.56,17.56,0,0,0,3.15,12.87h0c.18-.19.3-.43.49-.67Z"/><path class="cls-1" d="M38,19v-.3l-.48.18c0,.18.06.42.06.67.12-.06.3-.06.42-.12V19Z"/><path class="cls-1" d="M22.81,16.93c.49.36,1,.73,1.52,1v-.79h.18a13,13,0,0,1-1.51-1c-.06.24-.12.49-.19.73Z"/><path class="cls-1" d="M38,18c0-.24-.06-.49-.06-.73l-.66.18a3.18,3.18,0,0,1,.12.73L38,18Z"/><path class="cls-1" d="M18.08,0c-.24,0-.54.06-.79.06a15.83,15.83,0,0,0,2.55,11.83,5.27,5.27,0,0,1,.49-.6A15.21,15.21,0,0,1,18.08,0Z"/><path class="cls-1" d="M27.91,17.17a16.1,16.1,0,0,1-4.31-2.36,6.54,6.54,0,0,0-.36.66A15.38,15.38,0,0,0,26,17.17Z"/><path class="cls-1" d="M19.54,0h-.73a14.32,14.32,0,0,0,2.06,10.8,4.85,4.85,0,0,1,.55-.49A13.82,13.82,0,0,1,19.54,0Z"/><path class="cls-1" d="M37.86,16.5c0-.24-.06-.54-.06-.78-.3.12-.54.18-.85.3a3.28,3.28,0,0,1,.24.73,4.12,4.12,0,0,1,.67-.25Z"/><path class="cls-1" d="M32,17.17v-.61a14.05,14.05,0,0,1-7.53-2.85l-.18.18a1.42,1.42,0,0,1-.36.31,14.14,14.14,0,0,0,6.79,3Z"/><path class="cls-1" d="M21,.06A2.92,2.92,0,0,1,20.27,0,13,13,0,0,0,22,9.89a6.57,6.57,0,0,1,.61-.36A12.49,12.49,0,0,1,21,.06Z"/><path class="cls-1" d="M37.62,15.05a3.09,3.09,0,0,0-.12-.73,7,7,0,0,1-1,.3c.12.25.18.49.3.73.3-.12.55-.18.85-.3Z"/><path class="cls-1" d="M31.55,15.05A11.23,11.23,0,0,1,26,12.92c-.3.13-.55.25-.79.37a12.57,12.57,0,0,0,6.67,2.55,4,4,0,0,0-.3-.79Z"/><path class="cls-1" d="M37.26,13.59a5.61,5.61,0,0,1-.19-.67c-.42.13-.85.31-1.27.43a5.8,5.8,0,0,1,.36.67,10,10,0,0,0,1.1-.43Z"/><path class="cls-1" d="M29.73,13.23c-.3-.12-.67-.24-1-.37a5,5,0,0,0-1.88-.12A11.61,11.61,0,0,0,31,14.26a4.07,4.07,0,0,0-1.28-1Z"/><path class="cls-1" d="M22.45.3a3.09,3.09,0,0,0-.73-.12,11.42,11.42,0,0,0,1.58,9,2.17,2.17,0,0,1,.67-.3A10.85,10.85,0,0,1,22.45.3Z"/><path class="cls-1" d="M36.83,12.26c-.12-.25-.18-.49-.3-.73A4.83,4.83,0,0,1,35,12a4.65,4.65,0,0,0,.49.67,12.89,12.89,0,0,0,1.39-.42Z"/><path class="cls-1" d="M23.85.61,23.12.43a10.25,10.25,0,0,0,1.57,8.31,3.9,3.9,0,0,1,.79-.18A9.41,9.41,0,0,1,23.85.61Z"/><path class="cls-1" d="M27.3,8.37A7.78,7.78,0,0,1,25.24,1C25,1,24.76.85,24.51.79a8.84,8.84,0,0,0,1.82,7.64c.31,0,.61-.06,1-.06Z"/><path class="cls-1" d="M34.46,11.41h0a5.82,5.82,0,0,0,1.76-.49,2.4,2.4,0,0,0-.3-.67,8.07,8.07,0,0,1-2.12.49,5.93,5.93,0,0,1,.66.67Z"/><path class="cls-1" d="M28.4,7.46a6.31,6.31,0,0,1-1.76-5.88,3.26,3.26,0,0,0-.73-.31A7.25,7.25,0,0,0,27.85,8c.18.12.3.3.49.42a15.55,15.55,0,0,1,2.18.43,6,6,0,0,1-2.12-1.4Z"/><path class="cls-1" d="M35.56,9.65A5.76,5.76,0,0,0,35.19,9a6.56,6.56,0,0,1-4.06.12,8.45,8.45,0,0,1,1.88,1,7.39,7.39,0,0,0,2.55-.48Z"/><path class="cls-1" d="M34.83,8.37l-.49-.66a5,5,0,0,1-4.91-1.28A5.11,5.11,0,0,1,28,2.18a3.51,3.51,0,0,0-.73-.3,5.82,5.82,0,0,0,7.59,6.49Z"/><path class="cls-1" d="M33.86,7.1a6.58,6.58,0,0,1-.55-.67,3.44,3.44,0,0,1-2.85-1A3.72,3.72,0,0,1,29.37,3c-.25-.12-.49-.3-.73-.42A4.47,4.47,0,0,0,29.91,6,4.24,4.24,0,0,0,33.86,7.1Z"/><path class="cls-1" d="M32.71,5.76a22.21,22.21,0,0,0-2.55-2.18,2.54,2.54,0,0,0,.78,1.33,2.85,2.85,0,0,0,1.77.85Z"/><path class="cls-1" d="M69.84,23c.3,1.69,1,3,2.55,3.46,1.88.54,4.24.42,5.4-1.1a2.34,2.34,0,0,0,.3-2c-.3-1-1.21-1.27-3-1.64-1.58-.36-5.46-.79-7.53-2.36A5.72,5.72,0,0,1,65.89,13c1-2.86,3.89-4.13,6.07-4.43a10.42,10.42,0,0,1,8.74,2.36,6.84,6.84,0,0,1,1.76,4.74H78a4.62,4.62,0,0,0-.36-1.58,3.45,3.45,0,0,0-3.22-1.94c-1.58-.13-3.22.3-3.88,1.63a1.77,1.77,0,0,0,.18,1.82c1,1.1,2.85,1.16,4.49,1.46,2.79.49,5.82,1,7.16,3.28a6.61,6.61,0,0,1-.3,6.91,9,9,0,0,1-2.49,2.25,12.78,12.78,0,0,1-7.65.85,7.71,7.71,0,0,1-5.52-3.4A6.93,6.93,0,0,1,65.11,23Z"/><path class="cls-1" d="M49.45,17.17H57.1a4.44,4.44,0,0,0-3-4.25,5,5,0,0,0-4.73,1c-1.27,1.16-1.7,3.58-1.7,5.1.06,2.85.61,4.86,2.25,6.07a5,5,0,0,0,5.76.24,4.31,4.31,0,0,0,1.58-2.42h5.4a9.63,9.63,0,0,1-3.4,5.64,10.55,10.55,0,0,1-9.77,1.39C43,27.49,42,21.3,42.47,17.6a13.77,13.77,0,0,1,1.58-4.49A9.47,9.47,0,0,1,50.79,8.5a9.69,9.69,0,0,1,8.73,2.91A14.05,14.05,0,0,1,62.31,17a14.24,14.24,0,0,1,.37,4H49.45V17.17Z"/><path class="cls-1" d="M104.37,24.76V18.2a27.77,27.77,0,0,0-.43-5c-.36-1.58-1.76-4.19-6.25-4.73-.85-.07-1.76-.07-2.67-.07h0a14.81,14.81,0,0,0-4.37.79,6.69,6.69,0,0,0-4,6.44H91.5a3.17,3.17,0,0,1,1.88-3,5.33,5.33,0,0,1,4.92.73,2.11,2.11,0,0,1,.54,2.06c-.3,1.28-1.7,1.7-3.82,2h0c-.73.13-1.57.19-2.48.31-2.55.3-6.19,1.57-7,5.28a6.09,6.09,0,0,0,2.18,5.88A8.77,8.77,0,0,0,93,30.52,11.08,11.08,0,0,0,95,30.34h0a10.11,10.11,0,0,0,4.3-2.19,6.67,6.67,0,0,0,.6,1.76H105c-.79-1.57-.66-3.88-.66-5.15ZM98.9,24A4.36,4.36,0,0,1,95,26.46h0a3.7,3.7,0,0,1-1.21.05A2.88,2.88,0,0,1,91.14,25a2.48,2.48,0,0,1,.12-2.37c.73-1.27,2-1.52,3.77-1.88h0a12.27,12.27,0,0,0,1.81-.36,5,5,0,0,0,2.31-1A23.77,23.77,0,0,1,98.9,24Z"/></g></g></svg>