<svg xmlns="http://www.w3.org/2000/svg" viewBox="0 0 131.66 62.92"><title>sentinel4</title><g id="Capa_2" data-name="Capa 2"><g id="Capa_1-2" data-name="Capa 1"><g id="layer102"><path d="M60.42,61.94c-.3-.5.3-1.8,1.5-3,3.4-3.4,1.9-6.1-2.1-3.9-2,1-2,1.2-.6,2.1,1.4.7,1.5,1.3.7,2.9-.6,1.1-1.5,1.7-2.1,1.4a1.36,1.36,0,0,1-.2-1.8c.5-.8.2-.8-.9.1s-1.7,1-2.7-.1c-.6-.8-.9-1.6-.6-1.8s-.8-.5-2.3-.4c-1.7,0-2.7-.5-2.7-1.5a3,3,0,0,0-1.3-2.3,3.59,3.59,0,0,1-1.1-3,10.5,10.5,0,0,0-.6-4,2.92,2.92,0,0,1,.3-2.9c1.6-1.6.3-4.1-1.4-2.7-.8.6-1.4,1-1.5.8-.6-2.7-.3-5.1.6-5.7a12,12,0,0,0,2.7-3.8c2-4.2.8-6.5-3.1-5.8-3.6.8-4.8-1-2-3,2.1-1.4,2.1-1.4-1-3.1-2.7-1.3-3-1.9-2.1-3.5,1-1.9,1.3-1.8,5.7,1.6l4.7,3.6,1.3-2.7c.8-1.4,1.2-3.4.8-4.3-.3-1.2.5-2.5,2.5-4.1,1.7-1.2,2.8-2.6,2.5-3s.6-1.6,2-2.5,2.5-1.3,2.5-.9.8-.4,1.6-1.9q2.25-4.35,3.9-1.8c.3.6,1.7,1,3,1s2.7.5,3,1a1.1,1.1,0,0,0,1.5.5c1.1-.7,7,2.2,7,3.3,0,.5,1.7,1.8,3.8,3,2.8,1.5,4.2,1.8,4.9,1.1s1.4-.5,2.3,1c1.1,2.1.5,4.6-.9,3.7-.4-.3-1.2.4-1.9,1.4s-.8,2.1-.2,2.5c1.4.8-2.5,11.1-4.1,10.7-1.1-.3-1.1-.1-.2.9a2.76,2.76,0,0,1,.7,2.4c-.5,1.1,6,3.1,12.5,3.8,3.2.4,3.7,3.5.8,4.7-1.6.6-2.5.4-3.4-.7-.7-.8-3.1-1.7-5.5-1.8-3.3-.3-3.9-.1-2.5.6.9.6,1.5,1.4,1.2,1.9s.1,1,.8,1.3c2.2.8,3.2.7,3.2-.3a.91.91,0,0,1,.8-1h1.3c.4,0,.1.7-.6,1.5s-1,1.6-.6,1.6a27.94,27.94,0,0,1,2.9.8,8.79,8.79,0,0,0,2.5.7,18.6,18.6,0,0,1,4.5,1.6,14.2,14.2,0,0,0,3,1.4c.4.1.9.3,1.2.4a15.46,15.46,0,0,0,1.5.4.92.92,0,0,1,1,.9v1.3c0,.4-.6.2-1.2-.4a4.48,4.48,0,0,0-2-1.1,4.07,4.07,0,0,1-1-.2c-.2,0-1.4-.3-2.8-.5a14.53,14.53,0,0,1-4.7-1.9c-1.3-.9-2.3-1.3-2.3-.9s-.7.1-1.5-.6-1.5-.9-1.5-.5-.7.2-1.5-.5-1.5-.9-1.5-.5-1.6-.4-3.7-1.6l-3.6-2.3.5,2.2c.6,2.1-1.1,4.4-2.8,4.1-1.3-.2-7.4,2.4-7.5,3.3a15.16,15.16,0,0,1-.9,3.3,10.38,10.38,0,0,0-.4,1.3,10.49,10.49,0,0,1-.9,2c-.5.6-.6,1.2-.2,1.2s.1.9-.5,2c-.9,1.6-1.5,1.8-3,1-1.2-.7-2.1-.7-2.5,0A1.64,1.64,0,0,1,60.42,61.94Zm-.6-11.1a8.56,8.56,0,0,1,5.7-1.5c1.7.5,2.4.1,2.9-1.5a3.42,3.42,0,0,0-.4-3.2c-.6-.6-1.1-.8-1.1-.5s-1.6,0-3.5-.8c-4.8-2-5-1.9-6.4,2.9a26.42,26.42,0,0,1-2.3,5.5C53,53.64,55.92,53.24,59.82,50.84Zm-5.2-8c.3-3.7,2.1-6.2,4-5.5.7.3,1.4.1,1.4-.4s.2-1.6.3-2.2c.3-3.4,6.6-.9,6.8,2.7a2.25,2.25,0,0,0,2.4,2.1c1.6.1,2.2-.3,2.1-1.7s-.5-1.5-1.3-.8c-1.7,1.4-2.3-.1-1.3-2.9l.9-2.3,3.5,2.7c1.9,1.4,3.3,3,3,3.4s.2,1.3,1,2c1.2,1,1.5.9,1.5-.7a8.06,8.06,0,0,1,1.4-3.9,3,3,0,0,0,.5-3.5c-.5-.8-.9-1-.9-.6s-.6.5-1.2,0a15.39,15.39,0,0,0-5-1c-4.3-.3-11.3-3.5-12.1-5.6-.3-.8-1.7-1.4-3.2-1.3-2.4.1-2.8.6-3.2,4.1a34.33,34.33,0,0,0-.4,5.7c0,2.1-1.5,3.2-2.4,1.8a2.33,2.33,0,0,0-1.7-1c-.6,0-.6.6.2,1.5a2.58,2.58,0,0,0,2.6,1.1c2.2-.9,2.5,1,.4,2.9-2.3,2.1-2.5,3.6-.8,5.3a8.28,8.28,0,0,0,1.3,1.2S54.52,44.54,54.62,42.84Zm27.9-18.1a10.33,10.33,0,0,0,1-3.6,8.68,8.68,0,0,1,1.5-3.8c.9-1.1.5-1.7-2.4-2.9-2-.8-3.8-1.5-4-1.5a40,40,0,0,1-4.2-1.5c-2.8-1.3-3.4-1.9-2.6-2.9s.6-1.3-1.5-1a7,7,0,0,0-3.1.8c-.9.9.9,2.7,2.3,2.2,2.2-.8,2.5.9.9,5.4s-1.9,7.4-.7,6.7c.4-.3,2.7.3,5.2,1.4C80.32,26.24,81.52,26.34,82.52,24.74Zm-14.1-10.8c.7-2.2.4-2-2.5,1.2s-3.6,3.5-5.2,2.7-1.9-.8-1.6.8c.2,1.1,1.5,2,3.3,2.3C65.52,21.54,66.42,20.54,68.42,13.94Zm-12-1c.8-2.4.7-2.5-1.3-.7a3.79,3.79,0,0,0-1.4,3.9C54.22,18.34,55,17.44,56.42,12.94Z"/><path d="M112.32,53.84c-.6-1,.6-1.5,3.6-1.4,1.4,0,2.5.5,2.5,1C118.42,54.54,113,54.84,112.32,53.84Z"/><path d="M121.42,52.94c-.8-1.2,2-2.4,3.5-1.5a1.19,1.19,0,0,1,.5,1.6A2.6,2.6,0,0,1,121.42,52.94Z"/><path d="M126.52,50.44c-1.7-1.3-3.2-2.2-3.6-2s-2-.3-3.8-1a12.13,12.13,0,0,0-3.6-1.2,4.38,4.38,0,0,1-1.9-1.2c-1-.7-1.7-1-1.7-.6s-1.1,0-2.5-.9-2.5-1.4-2.5-1-.7.1-1.5-.6-1.5-.9-1.5-.6-.9.2-2-.4-1.8-1.6-1.4-2.1,1.5-.4,3,.6c1.3.8,2.4,1.3,2.4.9s.7-.1,1.5.6,1.5.9,1.5.6,1-.1,2.3.6a14.2,14.2,0,0,0,3,1.4,6.21,6.21,0,0,1,1,.3,8.79,8.79,0,0,0,2.5.7,15.16,15.16,0,0,1,4.5,1.6,15.3,15.3,0,0,0,4,1.5c3,.5,5.8,2.4,5.4,3.6C131,53.14,129.52,52.94,126.52,50.44Z"/><path d="M33.12,24.74c-.7-.7-1.2-.8-1.2-.4s-.7.3-1.5-.4-1.5-.9-1.5-.5-1.1,0-2.5-.9-2.5-1.4-2.5-1-.7.1-1.5-.6-1.5-.9-1.5-.5-.7.2-1.5-.5-1.5-.9-1.5-.5-1.1,0-2.5-.9-2.5-1.4-2.5-1-.7.1-1.5-.6-1.5-.9-1.5-.5-.7.2-1.5-.5-1.5-.9-1.5-.6-.9.2-2-.4-1.8-1.6-1.4-2.1,1.5-.4,3,.6c1.3.8,2.4,1.3,2.4.9s.7-.1,1.5.6,1.5.9,1.5.5.7-.2,1.5.5,1.5.9,1.5.5,1.1,0,2.5.9,2.5,1.4,2.5,1,.7-.1,1.5.6,1.5.9,1.5.5.7-.2,1.5.5,1.5.9,1.5.5,1.1,0,2.5.9,2.6,1.4,2.6,1.1a10.2,10.2,0,0,0,.4-1.5c.1-.5.3-1.3.4-1.7s.8.1,1.7,1.2,1.7,1.8,2,1.6a5,5,0,0,1,2.6.2c1.8.5,1.9.8.8,2.1A3.8,3.8,0,0,1,33.12,24.74Z"/><path d="M31.32,14.54a9.4,9.4,0,0,0-2.6-1.5,1.85,1.85,0,0,1-1-.2c-.2,0-1.4-.3-2.8-.5a14.53,14.53,0,0,1-4.7-1.9c-1.3-.9-2.3-1.3-2.3-.9s-.7.1-1.5-.6-1.5-.9-1.5-.6-1,.1-2.2-.6a21.12,21.12,0,0,0-3-1.4,3,3,0,0,1-1-.3,11.63,11.63,0,0,0-2.6-.7c-3.4-.6-6.3-2.4-5.7-3.4s5,.4,7.2,2.2c.7.6,1.3.7,1.3.3s.7-.2,1.5.5,1.5.9,1.5.6,1-.1,2.3.6a14.2,14.2,0,0,0,3,1.4,6.21,6.21,0,0,1,1,.3,8.79,8.79,0,0,0,2.5.7,18.6,18.6,0,0,1,4.5,1.6,14.2,14.2,0,0,0,3,1.4,2.32,2.32,0,0,1,1,.4,10.21,10.21,0,0,0,2.1.5c2.4.5,4.1,2.1,2.9,2.8C33.62,15.64,32.42,15.24,31.32,14.54Z"/><path d="M.32,11.64c-.7-2-.2-4.7,1.1-5s1.9,4.3.6,5.6C1.32,12.94.82,12.84.32,11.64Z"/></g><g id="layer103"><path d="M59.92,61.74c-3.8-1.1-6-2.5-6-4,0-1.7,5-5.9,6.1-5.2.8.4.4,1.3-1.1,2.4l-2.3,1.7,4.6,1.6c2.6.9,4.9,1.2,5.2.8,1.1-1.9,2.4-6.1,1.7-5.8-.4.1-.7-.2-.7-.8s.4-.9.8-.7.6-.2.3-.7a1.15,1.15,0,0,1,.3-1.6c2-1.2,2.9,2.8,1.5,6.8C67.82,63.24,66.82,63.74,59.92,61.74Z"/><path d="M47.32,55.54c-.8-2.1.4-3.6,2.2-2.9a2.72,2.72,0,0,0,2.8-1.2c.9-1.3,1.5-1.5,2-.7,1,1.6,0,2.9-3.5,4.7C48.22,56.84,47.82,56.84,47.32,55.54Z"/><path d="M101.42,49.94c-17.4-6.4-24.5-11.1-20.6-13.4,1.7-1.1.9-5.4-1-5.9-1.3-.3-1.7-1.1-1.3-2.1s.1-1.6-.6-1.6-.9.4-.6.9c1,1.6-2.1,3.3-4.1,2.2a27,27,0,0,0-4.6-1.6c-3.2-.7-7-4.1-6.2-5.6a2.68,2.68,0,0,1,2.6-.4c1.2.4,1.9.2,1.9-.7a62.24,62.24,0,0,1,2.4-8.6c1.4-4.3,2-7.5,1.4-7.8s-.6-1,0-1.6c2.4-2.4,14.6,6.1,12.4,8.8-.4.4.1.2,1.1-.5s1.7-1,1.7-.6.6.2,1.4-.4c1-.9,1.6-.8,2.6.4.7.8.9,1.5.5,1.5s-.2.7.5,1.5c1,1.2.9,1.6-.4,2.1-1,.4-1.5,1.2-1.2,1.9.5,1.5-2.7,4.8-3.7,3.8-.4-.3-.7.1-.7,1s-1,2.7-2.2,3.9c-1.6,1.6-1.7,2-.4,1.5,2.2-.9,3.1,1.5,1.7,4.2-1.2,2.2,0,3.6,3.1,3.6,1,0,1.8.5,1.8,1s-.9,1-1.9,1c-3.4,0-3.3,1.3.2,2.4a12,12,0,0,0,6.1.5c2.6-.6,2.7-1.9.3-1.9-.7,0-1.2-.4-1.2-1,0-2.6,7.8-.4,35.9,10.4,4.3,1.7,1.8,3.7-5.5,4.5-3.3.4-6.6.9-7.2,1.1S108.62,52.54,101.42,49.94Z"/><path d="M49.42,50.14a2.36,2.36,0,0,0-1.6-.7c-.5,0-.8-.4-.7-1a1.19,1.19,0,0,1,1.5-.7c.7.2,1.3-.5,1.4-1.5.3-4.6.5-5.3,1.4-5.3s1.1.8,1.4,5.4c.1,1.8,1.5,1.4,1.7-.5a12.75,12.75,0,0,1,.4-1.4,10.2,10.2,0,0,0,.4-1.5,1,1,0,0,1,.9-1h1.3c.4,0,.1.7-.6,1.5s-.9,1.5-.5,1.5.3.6-.3,1.3a3.67,3.67,0,0,0-1.1,2,1.09,1.09,0,0,1-.8.8,10.27,10.27,0,0,0-2.4,1C50.92,50.44,49.82,50.54,49.42,50.14Z"/><path d="M74,47a2.73,2.73,0,0,1-.3-2.7c.4-.5,0-.3-.9.4s-1.9.9-2.3.5a4.15,4.15,0,0,0-2.4-.9,78.08,78.08,0,0,1-9.3-3.1c-6.2-2.4-7.9-2.8-9.3-1.8a4.09,4.09,0,0,0-1.6,2.8c0,2.4-1.6,2.8-3.3.9-1.9-2.1-1.6-5.7.6-5.6,1.6.2,2.5-3,2.3-8.1-.1-2.3-.6-3-2.1-3s-1.9-.6-1.8-2.2c.3-3-7-7.1-9.3-5.2a3.44,3.44,0,0,0-1.4,2.2c0,.6.2.8.5.5.9-.8,7.6,1.8,7.3,2.8-.6,1.9-8.3.1-23.5-5.5l-15.8-5.8-.8-4.8c-.4-2.7-.4-5.2.1-5.7,1.5-1.5,36.9,12,42.6,16.3,5.3,4,9.7,6,7.5,3.3-.9-1.1-.9-1.7.1-2.9a4.13,4.13,0,0,0,.7-3.4c-.3-1.2.4-2.8,1.9-4.2,1.3-1.2,2.4-2.9,2.4-3.6a2.26,2.26,0,0,1,1.5-1.9,2.53,2.53,0,0,0,1.5-2,3.68,3.68,0,0,1,2-2.4c2-1.1,4.3-.3,8.2,2.9,1.8,1.4,1.5,3.6-.3,2.5a1.13,1.13,0,0,1-.4-1.5c.3-.5-.1-.6-1-.3-1.4.6-1.4.8.2,1.9s1.5,1.7.5,3.9c-1.3,2.9-3.3,3.3-5.2,1.1-1-1.2-1-2.1-.1-4.1,1.8-4.1,1.2-5.2-.9-1.6-1.1,1.8-1.8,3.7-1.5,4.3s-.1,1.2-1,1.5c-1.2.5-1.3.9-.4,2,1,1.3.6,1.8-1.3,1.5-1.1-.2-1,2.7.1,3.3,1.2.8-1.6,6.6-3.1,6.6-.6,0-.6.6.2,1.5,1.3,1.6.9,1.8-2.6,1.6-1.2-.1-2.1.4-2.1,1.3s.8,1.4,2.1,1.3c1.8-.2,2,.3,1.8,2.8-.2,1.7-.1,2.7.4,2.3a1.38,1.38,0,0,1,1.8.1,25.37,25.37,0,0,0,4.4,1.9c3,1,3.3.9,3-.6-.2-.9-.9-1.7-1.6-1.7-1.3,0-1.7-2-.4-2a3.43,3.43,0,0,0,1.7-.7c2.9-1.8,6.5-1.1,10.4,2,2.5,2,3.8,3.8,3.4,4.5-1.3,2.1-1.2,5.6.2,5.1a2,2,0,0,0,.8-2.4c-.5-2,1.5-3.8,2.2-1.8,1.3,4,.9,5.1-2.2,6.4C75.32,48.74,74.92,48.74,74,47Z"/></g></g></g></svg>