<svg xmlns="http://www.w3.org/2000/svg" viewBox="0 0 107.16 69.32"><title>sentinel5</title><g id="Capa_2" data-name="Capa 2"><g id="Capa_1-2" data-name="Capa 1"><g id="layer102"><path d="M7.92,68.5a5.47,5.47,0,0,1-.4-3.2c.1-1.1-1.3-3.4-3.5-5.7C1.92,57.5.12,54.9,0,54s1-6.8,2.7-12.9c3.4-12.9,3.5-17,.1-19.2-2.2-1.4-2.2-2.7.1-2.7,1.1,0,2.3-2.9,4.9-11.4,1.3-4.5,1.3-4.5,8.3-6.2,6.7-1.7,9.5-1.4,8.1,1-.4.5-2.5,1.3-4.9,1.6a18.23,18.23,0,0,0-6.4,2.4c-2.4,2-4.7,8.8-3.2,9.7.6.3.5,1.1-.2,2-1,1.2-.9,1.3.4.9a1.77,1.77,0,0,1,2.2.4,2.17,2.17,0,0,0,1.6,1.1c.6,0,.8-.4.5-.9s-.1-2.2.4-3.7c.9-2.2.7-3.1-1-4.9-2.6-2.7-1.5-3.9,1.7-1.8,2.3,1.5,2.7,1.5,7-.6,3.6-1.7,4.3-2.4,3.3-3.5-.8-1-.8-1.6,0-2.1a1.19,1.19,0,0,0,.5-1.6c-.4-.5.1-1.2,1-1.5C29-.7,33.72,3.3,33,5.2c-.3.7.4,1.5,1.6,1.8,1.7.4,1.9.9,1,3.2-1.2,3.2-1.2,3.8-.2,3.1.4-.2,4.3.4,8.7,1.5s9.2,2.2,10.6,2.4,5.5,1.1,9,2a91,91,0,0,0,8.9,2.1c12.7,2.1,31.8,6.9,33.4,8.4,1.8,1.7,1.7,2.1-2,14.5-2.1,7-4.3,13.3-4.9,14.1-.8,1.1-6.6.1-34.5-6.1-18.4-4.1-34-7.7-34.6-7.9s-1.4.7-1.7,2.2c-.6,3,.1,5.4,1.4,4.6,1.5-.9,2.1,2.3.9,4.5a3.75,3.75,0,0,1-3,2.1c-2.3,0-3.3,1.4-3.7,5.4-.5,4.2-1.4,4.8-7.8,5.2a30,30,0,0,0-6.5.9C9.12,69.5,8.42,69.2,7.92,68.5ZM9.52,59a2.65,2.65,0,0,1,.1-1.3c.9-2.2.4-5.3-1.1-6.6-1-.9-1.6-2-1.4-2.4s-.2-1.3-1-2c-1.1-.9-1.6-.4-2.5,3-1.1,4-1,4.4,1.6,7.1S9.72,60.5,9.52,59Zm10-.8a3.16,3.16,0,0,0-3.2-.9c-2.4.9-1.1,2.4,2.1,2.4C20.82,59.7,20.92,59.5,19.52,58.2Zm3.7-3.9a13,13,0,0,0,.3-3.7,14,14,0,0,1,1.4-5.1,17.55,17.55,0,0,0,1.7-5.2,2.82,2.82,0,0,1,1-2.1,1.1,1.1,0,0,0,.5-1.5c-.3-.5-.1-2,.5-3.4.8-2.1.7-2.6-.6-2.6-2.8,0-5.1,4-4.8,8.4.2,2.2-.2,4.6-.8,5.3s-.7,1.3-.4,1.3.4.5.1,1.1c-.5.7-1.4.4-2.8-.8s-1.2-.7.6,1.5c2.7,3.3,2.9,5.6.3,4.6-.7-.3-1.9.3-2.7,1.2s-.9,1.5-.3,1.1a2.07,2.07,0,0,1,2.4.8C21.42,57.3,22.52,57.1,23.22,54.3Zm77.4-9.8c1.8-6.2,3.3-11.7,3.4-12.2.1-.8-9-3.4-12.1-3.6-1.5,0-8.8,22.9-7.6,24,.8.8,8.2,2.7,11.4,2.9C96.92,55.7,98.12,52.9,100.62,44.5Zm-19-.5c1.2-4.3,2.7-8.9,3.3-10.3,2.3-5.9,2-6.3-9-8.5-3.2-.6-4.5.3-4.9,3.5a91.9,91.9,0,0,1-2.8,10.4c-1.6,4.8-2.4,9.2-1.9,9.6.8.8,8.2,2.7,11.4,2.9C78.92,51.7,79.92,49.6,81.62,44Zm-70.5,1.5c-.7-3,1.7-7.3,3.9-7.2.9.1,1.5-.1,1.2-.4s-.1-1.1.5-1.9c.9-1,.8-1.8-.5-3.1-.9-1-1.4-2.1-1.1-2.4s-.6-1.1-2-1.8-2.7-1.1-3-.8a40.61,40.61,0,0,0-2.4,6.9c-1,3.5-2.2,7.3-2.6,8.3-.6,1.3-.5,1.7.2,1.3s1.8.2,2.8,1.3C10.52,48.3,11.82,48.2,11.12,45.5Zm53.6-9.8,3.6-12-3.6-1c-2.1-.5-5.1-1.3-6.8-1.6l-3.1-.6-3.1,9.9c-4.5,14.7-4.5,14.5,1.4,15.9C61.42,48.3,60.82,48.8,64.72,35.7Zm-18-4,3.6-12-3.6-1c-8.5-2.3-9.9-2.3-10.5-.4-2.4,8.4-5.6,20.6-5.6,21.7,0,1.3,5.8,3.2,11,3.6C42.72,43.7,44.12,40.5,46.72,31.7Zm-23.4-1.8a3.59,3.59,0,0,0,.3-3.3c-1.1-1.7-2.3-.6-2.6,2.6C20.72,32.2,21.72,32.4,23.32,29.9Zm1.6-7.7c-1-1.3-2.7-2.5-3.7-2.5-1.5,0-1.7.3-.9,1.1a29.64,29.64,0,0,0,6.1,3.8C26.62,24.7,25.92,23.6,24.92,22.2Zm1.5-8.7,1-3.7L23,11.9c-5.4,2.7-6.9,5.3-2.5,4.5,1.7-.4,3.3-.2,3.7.4C25,18.2,25.22,17.9,26.42,13.5Z"/></g><g id="layer103"><path d="M13.22,67.8c-.6-.9.1-5.6,1.1-7.4.3-.4,1.1-.3,1.9.4,1,.8,1.1,1.6.4,3a5.41,5.41,0,0,0-.8,3C16.22,68.3,14,69.1,13.22,67.8Z"/><path d="M8.22,63.9c-.3-.5,0-2.7.8-4.8,1.1-3.2,1.8-3.9,4.2-4a14.37,14.37,0,0,0,2.9-.3c0-.2.7-.4,1.7-.6,2-.4,7.3,4.9,6.3,6.4-1,1.7-2.7.2-2-1.7.3-.9.3-1.3-.1-.9s-1.4.1-2.2-.5A6.16,6.16,0,0,0,17,56.1c-1.7-.3-6.7,4.3-6,5.5.3.5-.1,1.4-.8,2S8.52,64.4,8.22,63.9Z"/><path d="M7.22,48.9c-3-3.3-4.5-5.7-4-6.2s2.4.7,4.7,3.5c2.1,2.5,4.5,4.5,5.4,4.5,1.4,0,1.4-.2-.3-1.5-1-.8-1.4-1.5-.9-1.6,3.2-.4,4.1-.3,5.5.8s1.5.6,1.7-2.7c.2-3-.1-3.8-1.1-3.4a1.75,1.75,0,0,1-2.1-2.6c.5-.8,1.1-.8,2,0s1.4.5,1.8-.9c.3-1.2,0-1.9-.7-1.8s-1.1-.6-1.1-1.5-1.1-2.8-2.4-4.1l-2.3-2.5,2.2-2.2c2.6-2.6,4.4-1.5,4.5,2.8,0,1.7.5,2.7,1.5,2.7s1.5,1.2,1.4,5a56.87,56.87,0,0,1-.9,8.3c-.6,2.9-.4,3.3,1.2,3.1,2.5-.3,7.6,1.9,6.9,3-.3.5-2.3.7-4.4.5a27.36,27.36,0,0,0-8.7.8L12,54.3Z"/><path d="M80.42,53.2c-.9-.9.7-6,1.8-5.8.5.1,1,.8,1.2,1.5C83.72,50.5,81.32,54.1,80.42,53.2Z"/><path d="M30.42,31c-.8-1.4-.3-3.8.7-4.1,1.2-.3,1.6,3.6.4,4.3A.71.71,0,0,1,30.42,31Z"/><path d="M24.22,29.8a3.2,3.2,0,0,1,.1-2.7c.4-1.2.3-1.5-.6-.9-.8.4-2.5-.1-4.2-1.4-3.3-2.4-3.9-2.6-3.9-.8a2.81,2.81,0,0,1-4.1,2.7c-1.2-.7-1.9-.5-2.3.6s-1,1.3-2.6.4c-1.1-.6-1.8-1.5-1.5-2.1a1.5,1.5,0,0,1,1.8-.3c.9.5.9.4,0-.6s-.9-1.9-.2-3.2c1-1.9,1.1-1.9,3.5.3l2.3,2.2,1-2.6c1.6-4,3-4.2,6-.6,1.9,2.3,3.3,3.1,4.5,2.6.9-.4,1.5-1.1,1.1-1.7-1-1.7,1.4-5,3.1-4.3,1.3.5,1.5.2.8-1.8a26.64,26.64,0,0,1-.9-4.6c0-1.7-.4-1.9-1.7-1.2-1,.6-1.9.5-2.3-.1s.8-1.6,2.5-2.5c2.8-1.4,3.5-1.3,3.1.8-.1.5.3.5.9.2a1.81,1.81,0,0,0,.6-2.1c-.8-2.1,1-2.5,2.6-.6s1.8,4.7.1,4.7c-2,0-2.6,1.4-1.3,3,1.1,1.3,1.1,2.1,0,4.3a13.82,13.82,0,0,0-1.8,6c-.1.7-1.4,1.7-2.8,2.2-2,.8-2.4,1.3-1.5,2.4,1.1,1.3.5,2.6-1,2.6A1.85,1.85,0,0,1,24.22,29.8Z"/><path d="M1.62,22.2c-1-1.2-.7-2,2-4.5,3-2.8,5.8-3.3,4.4-.7-.4.7-.4.9.1.5,1.1-1,3.7,1.1,2.9,2.4-.3.5-1.1.5-1.9-.2s-1.5-.8-2,0a1.08,1.08,0,0,1-1.6.4c-.6-.3-.9.2-.7,1.1C5.22,23.5,3.22,24.2,1.62,22.2Z"/><path d="M11.72,8.3c-1.8-1.9-2.9-3.6-2.3-3.9s2.3.9,4.1,2.7,2.9,3.6,2.3,3.9S13.52,10.1,11.72,8.3Z"/><path d="M24.52,3.7c-1.3-1-2.2-2-1.9-2.1,4.7-1.1,8.3.8,5.6,3C27.22,5.5,26.32,5.3,24.52,3.7Z"/></g></g></g></svg>