<svg xmlns="http://www.w3.org/2000/svg" viewBox="0 0 87.03 83.9"><title>sentinel5p</title><g id="Capa_2" data-name="Capa 2"><g id="Capa_1-2" data-name="Capa 1"><g id="layer101"><path d="M29.43,64.8c-.5-1-.7-1.9-.4-1.9s.9-.2,1.4-.3a3.82,3.82,0,0,0,1.8-.9c.4-.5.3-.7-.2-.5a.89.89,0,0,1-1.2-.7c-.2-.5,1.1-1,2.7-1s3,.5,2.9,1a.86.86,0,0,1-1.2.7c-.7-.2-.9,0-.5.4s.3,1.3-.4,2.1-.8,1.3-.1,1.1,1.2.1,1.2.7C35.63,67.3,30.43,66.8,29.43,64.8Z"/><path d="M33.13,57.1c-1-1.1-1.3-2.2-.8-2.5s1.7.3,2.6,1.3,1.3,2.2.8,2.5S34,58.1,33.13,57.1Z"/></g><g id="layer102"><path d="M48.63,82.2a6.54,6.54,0,0,1-2.4-3.2c-.5-3-3.2-8-4.2-7.6-.5.2-2.3-.8-4-2.3s-2.3-1.8-1.6-.9a3.14,3.14,0,0,1,.5,3A5.79,5.79,0,0,0,36,74a1.13,1.13,0,0,1-1.4,1.2c-1.2-.3-1.2,0-.1,1.2s1,1.9,0,3.1c-1.4,1.6-5.6,2-6.4.6-1.2-1.8-5.5-1.8-7.2,0-1.9,2.1-8.8,2.7-9.9.9-.6-.9,5.7-21.7,7.4-24.5a9.22,9.22,0,0,0,.8-2.9,7.8,7.8,0,0,1,1.4-3.2A2.21,2.21,0,0,0,21,48a1.18,1.18,0,0,1,.8-1.6c3.5-1.3-.4-5.4-10.6-10.9-3-1.6-4.5-3-4.1-3.8s.4-.9-.6,0-1.9.9-4.2-.3C-.37,30-.47,29.8.93,27.2c.8-1.5,3.9-5.1,7-8.1,4.4-4.3,5.8-5.2,6.9-4.3.8.7,1.6.9,2,.6s1.6,0,2.9.7a13.85,13.85,0,0,0,3.6,1.5,13.2,13.2,0,0,1,3,1,9.38,9.38,0,0,0,2.4.8,4.1,4.1,0,0,1,1.4.8,1.59,1.59,0,0,0,2-.3,10.43,10.43,0,0,1,5.1-1.1,7.06,7.06,0,0,1,6.1,2.7c1.8,2.2,2.6,2.5,3.5,1.6s.9-1.2-.2-.9a1.56,1.56,0,0,1-1.8-1.4c-.3-1.2,2.3-3.2,9.4-7.3,5.4-3.2,12.6-7.5,16-9.6S76.83,0,77.33,0c1.2,0,9.8,11.2,9.7,12.7s-22.4,14.7-24.8,14.5c-.9,0-1.5.3-1.2.9s-.5,1.4-1.9,2.1c-2.7,1.2-3.3,2.3-1.6,3.3a1.69,1.69,0,0,1,.3,2.1c-.3.8-.1,1.4.5,1.2a.74.74,0,0,1,1,.7c0,.6-.4.9-.9.7a.72.72,0,0,0-.9.8v1.7c0,.4.6.8,1.5.9s1.3-.2,1-.6a1.15,1.15,0,0,1,.4-1.5c.6-.3,1.5.4,2.1,1.5a3.75,3.75,0,0,0,2.6,2c.8,0,2,1.3,2.5,2.9,1.1,3.1,5.4,4.8,7.7,2.9.8-.7,1.6-.7,2.6.2,1.3,1,1.2,1.9-.9,6.3-1.3,2.9-2.6,6-2.9,7a2.9,2.9,0,0,1-2.9,1.7,6.53,6.53,0,0,0-4.1,1.9,11,11,0,0,1-5.2,2.5c-1.9.3-5,.9-6.9,1.2-3.8.7-4.3,1.8-2,4.8,1.8,2.4,1.9,6.8.3,8.4S51.13,84.3,48.63,82.2Zm2.2-25.6a2.39,2.39,0,0,0-.5-2.4c-.7-.7-.3-1.4,1.2-2.2,1.2-.6,1.9-1.8,1.6-2.5a1.78,1.78,0,0,1,.5-2.1c.6-.3.6-1.1.1-1.7a3.11,3.11,0,0,1,.8-4.7c.9-.6,1-1,.3-1A2.53,2.53,0,0,0,53,41c-.5.8-1.1.8-2,0s-1.4-.6-1.9.5c-.3.9-.2,1.3.3,1a1.13,1.13,0,0,1,1.5.4c.6.9-2.3,3.9-3.9,4-2.2.2-4.5,1.3-4.5,2.1,0,1.4,1.8,2.1,2.5,1,.5-.8,1.1-.7,2.1.1,1.3,1,1.2,1.5-.3,3.3s-1.5,1.8-.1.8c1.8-1.4,2.7-.6,2.3,2.1C48.63,58.3,50.13,58.6,50.83,56.6Zm-13.1-12c7.2-.6,13.2-7.3,10.9-12.2-1-2.3-3-3.3-3.2-1.6-.7,6.6-8,12.9-14,12-1.8-.3-2.9,0-2.9.7,0,1.9,1.1,2.5,3.4,1.9C33.13,45.2,35.73,44.8,37.73,44.6Zm-2-10.1c.3.3,1.3-.6,2.2-2l1.7-2.6-3.6.3c-3.9.2-4.8,1-5,4.4,0,2,.1,2,2.1.8C34.23,34.6,35.43,34.2,35.73,34.5ZM28,35c-.3-.5.1-2.2.9-3.8,1.5-2.9,8.4-6.1,10.4-4.8,1.6,1,2.5-1.3,1.2-2.9-1.6-1.9-4.2-1.9-8.8.2A21.24,21.24,0,0,1,27,25.4a1.53,1.53,0,0,0-1.1,1.1,16.57,16.57,0,0,1-1.2,3.7c-1.4,3.4-.6,5.8,2,5.8C27.73,36,28.33,35.6,28,35Z"/></g><g id="layer103"><path d="M12.33,80.5a1.65,1.65,0,0,1,0-1.9,7.67,7.67,0,0,0,.8-2.8,14.43,14.43,0,0,1,.4-2.3A8.64,8.64,0,0,0,14,72a13.08,13.08,0,0,1,.5-1.5A8.64,8.64,0,0,0,15,69c.1-.5.3-1.1.5-1.2a18.21,18.21,0,0,0,.5-2c.2-1,1.3-4.7,2.4-8.2a47,47,0,0,0,2.1-8,3.33,3.33,0,0,1,1.7-2.4c1.4-.8,1.5-1.6.7-4.3-.6-2.2-1.6-3.4-2.7-3.4a3.61,3.61,0,0,1-2.5-1c-.4-.6-3.6-2.3-7.2-3.9C1.83,30.8-.87,29,.23,27.9.83,27.3,3,27.7,6,29c3.3,1.4,5.1,1.7,6,1,1.4-1.2,2.6-.3,1.9,1.4s4,3.8,5.5,2.3a4.33,4.33,0,0,0,1.1-2.6c0-.8,1.4-3,3.2-4.8,2.6-2.7,3-3.5,1.9-4.6-.8-.7-1.1-.7-.8-.1.8,1.5-1.9,3.9-2.7,2.5a1.1,1.1,0,0,1,.4-1.6c2-1.2.9-2.2-4.1-3.5-5.3-1.5-6.6-2.4-4.9-3.5.9-.5,4.2.4,19,5.2,1.2.4,1.2.7-.4,1.6a23.47,23.47,0,0,0-9.2,10.2c-.9,2.2-1.3,3.7-.8,3.3a1.38,1.38,0,0,1,1.8.1,16.65,16.65,0,0,0,3,1.5c1.3.5,1.7.2,1.3-.9a1.48,1.48,0,0,1,.4-2A1.15,1.15,0,0,0,29,33c-.7-1.2,5.4-6.2,6.7-5.4.5.3-.7,2-2.7,3.7-3.3,2.6-3.5,3.1-2.1,4.5s1.3,1.7-.1,3.9c-1.2,1.8-1.8,2.1-3,1.2-.7-.7-1.6-.9-1.9-.6-1,1,.7,6.8,1.9,6.5a1.07,1.07,0,0,1,1.4.7c.2.6-.8.9-2.2.9-2-.1-2.3.1-1.4,1.2,1,1.3.6,1.8-1.3,1.5-.7-.1-2.7,2.9-2.5,3.9s-2.5,8.4-3.6,10.5a15.33,15.33,0,0,0-1.3,2.8c-.1.4-.3.9-.4,1.2A13.08,13.08,0,0,0,16,71a4.35,4.35,0,0,1-.5,1.3,20.49,20.49,0,0,0-.5,3.1l-.2,2.8,5.1-.6c2.8-.3,6.3-.6,7.9-.6s2.6-.5,2.5-1.2.2-1.2.8-1.1c1.5.3,4.4-11.6,3.1-12.4-.6-.4-.4-1,.5-1.7s2.3-4.5,3.4-8.6c1.9-7.3,2-7.5,4.9-7.4,2.4.2,3.7-.7,6.7-4.4,2.8-3.5,3.5-4.9,2.6-5.9-.6-.7-.7-1.3-.3-1.3,1,0-2.5-5.3-4.2-6.3-.7-.5-1.1-1.3-.7-1.8a2.27,2.27,0,0,0-.3-2.2,5.43,5.43,0,0,1-.9-2.7c.1-1.9,5.6-2.1,6.3-.3A1.83,1.83,0,0,0,54,20.8a1.4,1.4,0,0,1,1.7.6c.5,1.6-4.2,1.3-5.2-.3-1.8-3-1,0,1,3.9,1.9,3.7,3.2,5.1,2.9,3.3s.2-2.5,1.4-1.6c.8.7,2.1.4,4.2-.9,1.7-1.1,2.2-1.8,1.3-1.5a2.68,2.68,0,0,1-2.7-.7c-1.5-1.8-.1-2.9,1.7-1.3,1.3,1,1.4.9.3-1.1-.8-1.4-1.8-2.1-2.7-1.8a1.67,1.67,0,0,1-2.1-1,1.54,1.54,0,0,0-1.9-1c-2.6,1-2.3-1.2.4-3a13.94,13.94,0,0,1,3.4-1.9,2.63,2.63,0,0,0,1.4-.7c.4-.4,1.3-.3,2.1.4,1.1.9,1.3.8,1.1-.2-.5-2.1,4.2-1.9,5.7.3.8,1.1,1.2,2.3,1,2.7-.6.9-3.7.6-5.5-.5-.8-.5-.5.6.8,2.7s1.9,3.9,1.3,4.2-2.2-1.4-3.7-3.9C60,14.1,59,13.2,58,14a1.69,1.69,0,0,1-2,.2c-.5-.4-.5-.1-.1.6a2,2,0,0,0,2.2.8c.8-.3,2.2,1,3.5,3.2,1.2,2,2.3,3.8,2.4,4,.6.9,3.5-1.3,3.1-2.3a3.44,3.44,0,0,1,1.3-2.9c1.4-1.3,2-1.3,3.1-.3q1.2,1.05-.3-1.5c-2.1-3.4-.4-4.8,1.8-1.4,1.7,2.6,2.3,2.5,7.4-1.1.2-.1-.8-1.8-2.3-3.7s-2.2-3.7-1.7-4.1c1.2-.7,5.7,5.3,5.3,6.8-.2.6.5.4,1.6-.6,1.7-1.5,2.1-1.6,3.1-.3S85.23,14.3,73,21.5c-8,4.7-15.2,8.8-16,9.1-1.4.6-.1,2.9,7.5,14.4a31.22,31.22,0,0,1,2.3,4.3c.7,1.9,3.7,2.3,5.4.6a3.17,3.17,0,0,1,3-.5c1.7.7,1.7.8,0,2.1-1.2.8-1.4,1.5-.7,2a1.16,1.16,0,0,1,.4,1.6c-.3.6-1,.6-1.7.1-1.5-1.2-4.7-1.1-4.7.1,0,.5.7.6,1.5.3,1.1-.4,1.9.3,2.6,2.1,1.3,3.4.4,6-1.5,4.4-1.1-.9-2-.6-4.3,1.3-1.7,1.4-3.3,2.3-3.6,2s-1.8.3-3.3,1.5c-2.5,2-2.8,2-4.5.5-1-.9-1.6-2.2-1.2-2.8s0-.5-.9.2c-1.1.9-1.8,1-2.3.2-.7-1.1-6-1.2-8.7-.2-2.2.9-1,3,2,3.5s3.7,1.4,2.3,3.1a2.12,2.12,0,0,1-2.9.6,25.54,25.54,0,0,0-3.5-1.4c-1-.3-1.6-.9-1.3-1.4a2.48,2.48,0,0,0-.4-2.1c-.5-.9-1.2.5-2.1,4.3-1.9,8.7-2.1,8.8-13.5,9.4C17.53,81,12.73,80.9,12.33,80.5Zm51.3-17.6L66,64.1l-2.2-1.7-2.2-1.6,2.1-2.8c1.8-2.6,1.9-3,.5-5s-1.5-2.1-4.4,1.7c-2.8,3.5-4,7.5-2.2,7,.4-.1.6.3.6.8s-.5.9-.9.8-.5.4-.1,1.3c.5,1.4.9,1.3,2.3-.6S61.53,61.9,63.63,62.9Zm-16.7-3c-.8-1.4-7.4-1.1-7.4.4,0,.9,1.2,1.1,4,.9C45.73,61,47.23,60.4,46.93,59.9Zm6.7-.7A11.44,11.44,0,0,0,51,56c-1.4-1.2-1.4-1.5.1-3.9,2.7-4.1,6.7-8,7.6-7.5.5.3-.7,2.7-2.7,5.4-2.9,4-3.3,5-2.1,5.9s1.9.5,3.8-2.1a21.56,21.56,0,0,0,2.4-4c.1-.5.2-1.1.3-1.4s.8,0,1.8.7.3-.4-1.3-2.7c-2.7-3.9-3-4-4.2-2.2-1.1,1.5-1.7,1.7-2.8.7-1.3-1-1.2-1.5.2-3.6,3.1-4.8.6-3.3-3.6,2.2-4.8,6.2-4.7,6.7.8,14.3C54,61.3,55.13,62,53.63,59.2Z"/><path d="M45.93,77.9c-.3-.5.2-1.2,1-1.5,1.2-.4,1.3-1.1.6-2.4a2.1,2.1,0,0,1,.5-3c1.4-1.2,2-.7,1.6,1.4-.1.5.8,1.9,2,3.2s2.1,2.4,1.8,2.5C49.43,78.7,46.43,78.6,45.93,77.9Z"/><path d="M33.63,40.9c-1.7-.7-2.1-1.3-1.3-2.2a2.72,2.72,0,0,0,.9-1.9c-.3-.9,4.9-4.9,5.5-4.2.3.2.5-.8.4-2.3,0-1.7.4-2.7,1.2-2.5s1.2-.7,1.2-1.7c0-2.4,1.6-3.6,2.6-2,.4.7.7,3.2.7,5.6,0,3.5-.6,5-2.9,7.4C38,41.2,36.43,41.9,33.63,40.9Z"/><path d="M15.13,32.2c-.3-.5.3-1.7,1.3-2.6s2.2-1.3,2.5-.8-.3,1.7-1.3,2.6S15.43,32.7,15.13,32.2Z"/><path d="M17,25c-.2-.4.4-1.5,1.4-2.4,1.9-1.7,2.8-1.3,2.7,1.3C21,25.4,17.83,26.3,17,25Z"/><path d="M10.13,22.2c-.3-.5.3-1.7,1.3-2.6s2.2-1.3,2.5-.8-.3,1.7-1.3,2.6S10.43,22.7,10.13,22.2Z"/><path d="M75.13,10.7c-1.4-1.7-2.5-2.7-2.5-2.2.3,2.6-.3,2.8-2.1.5-1.1-1.4-1.9-2-1.8-1.3.3,1-.1,1.3-1.9,1.3-.3,0,.2-.9,1.2-2,1.5-1.6,2.1-1.8,3.3-.7.9.7,1.3.7.9.1s.2-1.9,1.2-2.8c1.3-1.1,2.1-1.4,2.6-.7.6,1.1-.1,1.5-1.8,1.2-1-.2-.2,1.2,3,5.6C80.43,13.9,78.53,14.9,75.13,10.7Z"/></g></g></g></svg>