<svg xmlns="http://www.w3.org/2000/svg" viewBox="0 0 123.09 55.51"><title>sentinel3</title><g id="Capa_2" data-name="Capa 2"><g id="Capa_1-2" data-name="Capa 1"><g id="layer102"><path d="M83,54.45c-1.7-.6-2.3-1.6-2.1-3.1a6.28,6.28,0,0,0-.4-3.5,1.28,1.28,0,0,1,.3-1.8,2.34,2.34,0,0,0,1-1.6c0-.6-.5-.7-1-.4-.9.6-2.7-2.8-3.5-6.7-.5-2.3,2.9-5.1,6.5-5.2,3.1-.1,4-1,1.8-1.9-1.9-.7-7.9.4-7.3,1.3a1.08,1.08,0,0,1-.5,1.5c-1.4.8-4.2-1.4-3.4-2.7.3-.5,0-.8-.8-.6s-3.3-1.2-5.6-3-4.2-2.9-4.2-2.2-12.9,7.4-28.6,15.1c-22.8,11.2-28.9,13.7-30,12.8a3.43,3.43,0,0,1-1.3-2.3,11,11,0,0,0-1-4.1,28.2,28.2,0,0,1-1.6-5,16.37,16.37,0,0,0-1-3.8,2.78,2.78,0,0,1,.1-2.7c2-1.9,16.4-7.8,17-6.9a1.08,1.08,0,0,0,1.8-1.2c-.9-1.5,31.8-16.9,33.4-15.7.6.6,1.2.7,1.2.4s1.6.5,3.5,2,3.2,3,2.9,3.5a1.34,1.34,0,0,1-1.7.3q-1.35-.75,0,.6c.9,1,1.5,1,2.6.2s1.9-.7,3.5,1.1c1.2,1.3,1.9,2.7,1.5,3.2s-.1.6.9.2c1.8-.6,5.2,2.5,4.1,3.8-.5.4,0,.5.9.2s2-.2,2.3.3,2.2,1,4,1c3,0,3.7-.5,5-3.6.8-2,1.3-4,1-4.4s.2-2.4,1-4.4,1.3-3.6,1-3.6.6-1.6,2.1-3.5c2.3-3,3.2-3.5,6.9-3.5,3.5,0,4.4-.4,5.3-2.4s1.6-2.4,4.4-2c1.8.2,5.7.6,8.6.7l5.3.3,2.4,5.8c1.3,3.3,2.1,6.4,1.7,7a9.68,9.68,0,0,0-.8,2.4,9.17,9.17,0,0,1-1.8,3.1c-.9,1-1.4,2-1,2.3s-.4,2.3-1.5,4.4a16.64,16.64,0,0,0-2.1,5.4,6.81,6.81,0,0,1-1.4,3.5c-.8,1.1-1.2,2.5-.9,3.2s-.5,1.7-1.8,2.2-2.1,1-1.6,1-.1,1.8-1.2,4-1.8,4.1-1.6,4.3-.5,1.4-1.8,2.6c-2.6,2.4-14.1,3.9-16.4,2.1a1.67,1.67,0,0,0-2.5-.1A4,4,0,0,1,83,54.45Zm14.7-4.7c-1-1.6-1-2.3,0-3.5,1.8-2.3-.3-3-4.2-1.3-3.5,1.4-6.7,4.6-3.4,3.3.9-.3,3,.4,4.9,1.7C98.79,52.55,99.39,52.55,97.69,49.75Zm7.7-1.7c-.3-2.3-2.3-3.8-4-3.2a1.74,1.74,0,0,0-1,2.2,1.66,1.66,0,0,0,2,1.1,1.61,1.61,0,0,1,1.9.4C105.19,50,105.69,49.75,105.39,48.05Zm-10.2-8.5a1.44,1.44,0,0,0,1.3-1.5c0-.9-1-1.5-2.4-1.5-1.2,0-2.3.2-2.3.4a11.79,11.79,0,0,1-.7,2.2c-.5,1.4-.3,1.6,1.1,1.1A9.82,9.82,0,0,1,95.19,39.55Zm16.6-11.5c-1-1.2-.8-1.6,1.1-2.3l2.3-.9-2.3-1.3c-2.1-1.1-2.3-1-1.8.3.8,2.1-1.6,4-3.1,2.5a2.55,2.55,0,0,0-4.2,1.7c0,1.1,1.1,1.5,4.6,1.5C112.39,29.55,112.89,29.35,111.79,28.05Zm.5-12.5c-.1-.9-1.4-1.6-3.1-1.8-2.5-.2-3.1.2-4.1,2.8s-1,3.1.3,2.6a5,5,0,0,1,3.7.9c2.1,1.4,2.2,1.4,2.8-.7A14,14,0,0,0,112.29,15.55Zm-9.5-1.1c1.3-2.3.4-7.9-1.2-7.9-.6,0-.8,1-.4,2.4s.2,2.7-.3,3c-.8.5-.4,4.6.5,4.6A5.62,5.62,0,0,0,102.79,14.45Zm16-5.2c0-3.2-2.7-5-8.4-5.5l-5.7-.5.7,2.9c.9,3.8,1.9,4.4,8.2,4.4C117.19,10.55,118.79,10.15,118.79,9.25Z"/></g><g id="layer103"><path d="M93.49,55a2.37,2.37,0,0,1-.1-1.9c.3-.8-.4-1.6-1.8-2-3.1-1-4.9-2.5-4.2-3.6.3-.5,2.3,0,4.5,1.2,3.2,1.6,4.4,1.8,5.5.8s1.5-.8,2,.5c.3.9,1,1.6,1.6,1.6s.7-.4.4-.9.6-1.6,2-2.6c2-1.3,2.3-1.9,1.4-3-.8-.9-.8-1.5,0-2,1-.6,1.1-.5,1.4,1.4a2.72,2.72,0,0,0,.8,1.6c1.6,1.6-2.7,7.9-4.9,7.1-.7-.3-2.5.1-4,.9C95,55.75,94.39,55.85,93.49,55Z"/><path d="M83.59,53.45c-.8-.5-2.1-2.9-2.8-5.4-1.1-3.9-1.1-4.8.3-6.3,2.6-2.9.3-9.2-3.3-9.2-1,0-4.7-2.4-8.1-5.2s-6-4.8-5.6-4.1c1.3,2-1.5,2.7-3,.7-6.4-9.1-10.7-13.4-10.1-10.1.2.6-.3,1.1-1.1.9-2.4-.5-6.9,1.9-7.4,4-.4,1.4-1.1,1.9-2.2,1.5-1.4-.6-1.4-.3.1,2.4,1.2,2.4,1.3,3.4.4,4.3s-1.6.5-3-1.4c-1-1.3-1.6-2.8-1.4-3.2s.1-.8-.5-.8a2.34,2.34,0,0,0-1.6,1,1.1,1.1,0,0,1-1.5.5c-1.2-.7-7.2,2.3-8.3,4.1a1.81,1.81,0,0,1-2.1.8,1.66,1.66,0,0,0-2,1.1c-.4,1.1-1.2,1.4-2.6,1s-2-.2-1.8.7c.2.7-.3,1.2-1.1,1-2.1-.5-9.1,2.8-8.8,4.1a1.2,1.2,0,0,1-1,1.3,16.45,16.45,0,0,0-1.8.3c-.3,0-.1,1,.5,2,.6,1.3.6,2.2.1,2.6-1.3.7-2.8-2.3-2.7-5.3.1-2,3.4-3.9,26-14.8L53,9.55l2.7,2.6c1.4,1.4,6.5,5.7,11.3,9.5,6.2,5,9.4,6.9,11.6,6.9,2.8,0,6.8-3,5.6-4.3a1.55,1.55,0,0,1,.2-1.8c.5-.9,1.1-.7,2,.6,1.3,1.7,1.5,1.7,3.1.2,1.3-1.1,2.3-1.3,3.6-.5s2.2.6,3.2-.9c1.2-1.6,1.1-1.9-.6-2.5-1.9-.7-1.9-.9-.3-3.3.9-1.4,2-2.2,2.5-1.9a1,1,0,0,1,.4,1.4,1.12,1.12,0,0,0,.6,1.5,1.94,1.94,0,0,1,.5,2.1c-.3.8-.1,1.5.4,1.5,3.8.5,5.7.4,6.7-.3.6-.5,1.4-.5,1.7,0s2.4.9,4.8,1,4.6.6,5.1,1.1c1.2,1.2-2.1,6.1-3.8,5.5a29,29,0,0,0-6.2-.7c-4.2-.2-4.8-.5-4.5-2.1s.1-1.8-1.1-.8a2.07,2.07,0,0,1-2.3.4c-.4-.4-.3,0,.4.9,1.5,2,.4,3.3-1.5,1.8-1-.9-1.3-.7-1.3,1,0,1.2.4,2,.9,1.7s1.6.3,2.6,1.4c1.6,1.8,1.4,2.4-.7,2.2-1.3-.2-1.6,2.7-.2,3.2,1.6.6,1.9,5.2.4,6.1a1.61,1.61,0,0,0-.4,1.9,1.6,1.6,0,0,1-.5,2c-1.4.9-2.5-1.4-1.3-2.6.8-.8.6-1.8-.5-3.4-.8-1.3-1.2-2.7-.9-3.2s-.1-2.4-1-4.1a12.92,12.92,0,0,1-1.2-6.2c.4-2.6.2-2.8-1.6-2.2a14.67,14.67,0,0,1-3.8.7c-1.9,0-2.1.6-1.2,3a1.63,1.63,0,0,0,1.9,1,1.72,1.72,0,0,1,2,2.6c-.5.8-1.2.7-2.3-.2-1.5-1.2-1.6-1.1-.4.4,1.8,2.2.6,4.4-1.4,2.7-1.7-1.4-1.7-1.3-.5,2.8s.2,5.1-2,2.2l-1.6-2.2v2.5c0,2.6,2.1,3.4,4.4,1.6a2.3,2.3,0,0,1,2.2-.4c1.4.9.5,4.2-1,3.7-4-1.1-5.9-.9-5.9.7,0,2.3,1.7,4.7,3.2,4.7a1.68,1.68,0,0,1,1.6,1C89.09,53.45,85.39,54.45,83.59,53.45Z"/><path d="M17.29,46.55c-.3-.6.1-1.3,1-1.6,1.1-.5,1.3-1,.5-1.9s-.8-1.5,0-2c1.3-.8,3.2.4,2.5,1.6-.4.5-.4.9,0,.9s1-1.2,1.6-2.7c.9-2.4,1.1-2.5,2.6-1.1.8.9,1.2,2.1.9,2.7C25.19,44.35,18,47.65,17.29,46.55Z"/><path d="M105.89,41.65c-1.7-1.7-1.9-2.5-1.1-4.2.6-1.1,1.5-1.7,2.1-1.4a1.28,1.28,0,0,1,.4,1.6c-.4.5.3.9,1.4.9s2-.3,1.9-.7.1-.9.7-1c1.9-.5.9,4-1.2,5.4C108.19,43.55,107.69,43.45,105.89,41.65Z"/><path d="M20.19,35.45c-1-1.7,1.3-3.6,2.7-2.2a1.92,1.92,0,0,1-1.1,3.3A2.36,2.36,0,0,1,20.19,35.45Z"/><path d="M41.49,32.15c-1.3-2-1.4-2.7-.3-4.1.9-1.3,1.5-1.5,2-.7s.4,1.2,0,1.2,0,.8,1,1.9c1.4,1.5,1.4,2,.3,3S42.69,34.05,41.49,32.15Z"/><path d="M47.39,30.65c-1-1.1-1.3-2.2-.8-2.5s1.7.3,2.6,1.3,1.3,2.2.8,2.5S48.29,31.65,47.39,30.65Z"/><path d="M52.29,29.55c-.3-.5.6-1.5,2-2.2s2.4-1.7,2.1-2.4c-.7-1.7,2-3.9,2.9-2.4a2.21,2.21,0,0,1-.4,2.4c-.6.7-.8,1.5-.5,1.9s-.8,1.3-2.5,2.1C54.09,30,52.69,30.15,52.29,29.55Z"/><path d="M117.39,16.45c-1.6-3.7-1-6.1.9-3.6.7,1,1.6,1.7,2,1.7s.2-.6-.4-1.4c-.8-1-.9-1.6-.1-2.1,2.9-1.8,3.5,4.5.6,7.3C119,19.75,118.69,19.55,117.39,16.45Z"/><path d="M112.49,18a2.93,2.93,0,0,1,.4-2.6c.8-1.5,1.4-1.7,2.2-.9s.7,1.5-.4,2.6C113.89,18,112.89,18.35,112.49,18Z"/><path d="M86.39,12.75a2,2,0,0,1,.8-2.1c1-.8,1.6-.9,2.1-.1a1.08,1.08,0,0,0,1.5.5,1,1,0,0,1,1.4.4,1,1,0,0,1-.3,1.5,1.08,1.08,0,0,1-1.6-.4c-.5-.8-1.1-.8-2,0S86.69,13.25,86.39,12.75Z"/></g></g></g></svg>