<?xml version="1.0" encoding="utf-8"?>
<!-- Generator: Adobe Illustrator 23.0.4, SVG Export Plug-In . SVG Version: 6.00 Build 0)  -->
<svg version="1.1" id="Capa_1" xmlns="http://www.w3.org/2000/svg" xmlns:xlink="http://www.w3.org/1999/xlink" x="0px" y="0px"
	 viewBox="0 0 343.9 95.4" style="enable-background:new 0 0 343.9 95.4;" xml:space="preserve">
<style type="text/css">
	.st0{font-family:'CircularStd-Black';}
	.st1{font-size:12px;}
</style>
<title>sentinel4</title>
<g>
	<g id="Capa_1-2">
		<g id="layer102">
			<path d="M60.4,61.9c-0.3-0.5,0.3-1.8,1.5-3c3.4-3.4,1.9-6.1-2.1-3.9c-2,1-2,1.2-0.6,2.1c1.4,0.7,1.5,1.3,0.7,2.9
				c-0.6,1.1-1.5,1.7-2.1,1.4c-0.5-0.5-0.6-1.2-0.2-1.8c0.5-0.8,0.2-0.8-0.9,0.1s-1.7,1-2.7-0.1c-0.6-0.8-0.9-1.6-0.6-1.8
				s-0.8-0.5-2.3-0.4c-1.7,0-2.7-0.5-2.7-1.5c-0.1-0.9-0.5-1.8-1.3-2.3c-0.8-0.8-1.2-1.9-1.1-3c0.1-1.4-0.1-2.7-0.6-4
				c-0.4-1-0.3-2.1,0.3-2.9c1.6-1.6,0.3-4.1-1.4-2.7c-0.8,0.6-1.4,1-1.5,0.8c-0.6-2.7-0.3-5.1,0.6-5.7c1.1-1.1,2.1-2.4,2.7-3.8
				c2-4.2,0.8-6.5-3.1-5.8c-3.6,0.8-4.8-1-2-3c2.1-1.4,2.1-1.4-1-3.1c-2.7-1.3-3-1.9-2.1-3.5c1-1.9,1.3-1.8,5.7,1.6l4.7,3.6l1.3-2.7
				c0.8-1.4,1.2-3.4,0.8-4.3c-0.3-1.2,0.5-2.5,2.5-4.1c1.7-1.2,2.8-2.6,2.5-3s0.6-1.6,2-2.5s2.5-1.3,2.5-0.9s0.8-0.4,1.6-1.9
				c1.5-2.9,2.8-3.5,3.9-1.8c0.3,0.6,1.7,1,3,1s2.7,0.5,3,1c0.3,0.5,0.9,0.8,1.5,0.5c0,0,0,0,0,0c1.1-0.7,7,2.2,7,3.3
				c0,0.5,1.7,1.8,3.8,3c2.8,1.5,4.2,1.8,4.9,1.1s1.4-0.5,2.3,1c1.1,2.1,0.5,4.6-0.9,3.7c-0.4-0.3-1.2,0.4-1.9,1.4s-0.8,2.1-0.2,2.5
				c1.4,0.8-2.5,11.1-4.1,10.7c-1.1-0.3-1.1-0.1-0.2,0.9c0.6,0.6,0.9,1.5,0.7,2.4c-0.5,1.1,6,3.1,12.5,3.8c3.2,0.4,3.7,3.5,0.8,4.7
				c-1.6,0.6-2.5,0.4-3.4-0.7c-0.7-0.8-3.1-1.7-5.5-1.8c-3.3-0.3-3.9-0.1-2.5,0.6c0.9,0.6,1.5,1.4,1.2,1.9s0.1,1,0.8,1.3
				c2.2,0.8,3.2,0.7,3.2-0.3c-0.1-0.5,0.3-0.9,0.8-1h1.3c0.4,0,0.1,0.7-0.6,1.5s-1,1.6-0.6,1.6c1,0.2,1.9,0.5,2.9,0.8
				c0.8,0.4,1.6,0.6,2.5,0.7c1.6,0.3,3.1,0.9,4.5,1.6c0.9,0.6,1.9,1.1,3,1.4c0.4,0.1,0.9,0.3,1.2,0.4c0.5,0.2,1,0.3,1.5,0.4
				c0.5,0,1,0.3,1,0.8c0,0,0,0,0,0.1v1.3c0,0.4-0.6,0.2-1.2-0.4c-0.6-0.5-1.2-0.9-2-1.1c-0.3,0-0.7-0.1-1-0.2
				c-0.2,0-1.4-0.3-2.8-0.5c-1.7-0.4-3.3-1-4.7-1.9c-1.3-0.9-2.3-1.3-2.3-0.9s-0.7,0.1-1.5-0.6s-1.5-0.9-1.5-0.5s-0.7,0.2-1.5-0.5
				s-1.5-0.9-1.5-0.5s-1.6-0.4-3.7-1.6l-3.6-2.3l0.5,2.2c0.6,2.1-1.1,4.4-2.8,4.1c-1.3-0.2-7.4,2.4-7.5,3.3
				c-0.2,1.1-0.5,2.2-0.9,3.3c-0.2,0.4-0.3,0.9-0.4,1.3c-0.2,0.7-0.5,1.4-0.9,2c-0.5,0.6-0.6,1.2-0.2,1.2s0.1,0.9-0.5,2
				c-0.9,1.6-1.5,1.8-3,1c-1.2-0.7-2.1-0.7-2.5,0c-0.4,0.8-1.3,1.2-2.2,0.8C60.9,62.6,60.6,62.3,60.4,61.9z M59.8,50.8
				c1.7-1.2,3.7-1.7,5.7-1.5c1.7,0.5,2.4,0.1,2.9-1.5c0.4-1.1,0.3-2.3-0.4-3.2c-0.6-0.6-1.1-0.8-1.1-0.5s-1.6,0-3.5-0.8
				c-4.8-2-5-1.9-6.4,2.9c-0.6,1.9-1.3,3.8-2.3,5.5C53,53.6,55.9,53.2,59.8,50.8z M54.6,42.8c0.3-3.7,2.1-6.2,4-5.5
				c0.7,0.3,1.4,0.1,1.4-0.4s0.2-1.6,0.3-2.2c0.3-3.4,6.6-0.9,6.8,2.7c0.1,1.2,1.1,2.2,2.4,2.1c0,0,0,0,0,0c1.6,0.1,2.2-0.3,2.1-1.7
				s-0.5-1.5-1.3-0.8c-1.7,1.4-2.3-0.1-1.3-2.9l0.9-2.3l3.5,2.7c1.9,1.4,3.3,3,3,3.4s0.2,1.3,1,2c1.2,1,1.5,0.9,1.5-0.7
				c0.1-1.4,0.6-2.7,1.4-3.9c0.9-0.9,1.1-2.3,0.5-3.5c-0.5-0.8-0.9-1-0.9-0.6s-0.6,0.5-1.2,0c-1.6-0.6-3.3-0.9-5-1
				c-4.3-0.3-11.3-3.5-12.1-5.6c-0.3-0.8-1.7-1.4-3.2-1.3c-2.4,0.1-2.8,0.6-3.2,4.1c-0.3,1.9-0.4,3.8-0.4,5.7c0,2.1-1.5,3.2-2.4,1.8
				c-0.4-0.6-1-0.9-1.7-1c-0.6,0-0.6,0.6,0.2,1.5c0.6,0.9,1.6,1.3,2.6,1.1c2.2-0.9,2.5,1,0.4,2.9c-2.3,2.1-2.5,3.6-0.8,5.3
				c0.4,0.4,0.8,0.8,1.3,1.2C54.4,45.9,54.5,44.5,54.6,42.8z M82.5,24.7c0.5-1.1,0.9-2.3,1-3.6c0.2-1.4,0.7-2.7,1.5-3.8
				c0.9-1.1,0.5-1.7-2.4-2.9c-2-0.8-3.8-1.5-4-1.5c-1.4-0.4-2.8-0.9-4.2-1.5c-2.8-1.3-3.4-1.9-2.6-2.9s0.6-1.3-1.5-1
				c-1.1,0-2.1,0.3-3.1,0.8c-0.9,0.9,0.9,2.7,2.3,2.2c2.2-0.8,2.5,0.9,0.9,5.4s-1.9,7.4-0.7,6.7c0.4-0.3,2.7,0.3,5.2,1.4
				C80.3,26.2,81.5,26.3,82.5,24.7z M68.4,13.9c0.7-2.2,0.4-2-2.5,1.2s-3.6,3.5-5.2,2.7s-1.9-0.8-1.6,0.8c0.2,1.1,1.5,2,3.3,2.3
				C65.5,21.5,66.4,20.5,68.4,13.9z M56.4,12.9c0.8-2.4,0.7-2.5-1.3-0.7c-1.2,0.9-1.7,2.4-1.4,3.9C54.2,18.3,55,17.4,56.4,12.9z"/>
			<path d="M112.3,53.8c-0.6-1,0.6-1.5,3.6-1.4c1.4,0,2.5,0.5,2.5,1C118.4,54.5,113,54.8,112.3,53.8z"/>
			<path d="M121.4,52.9c-0.8-1.2,2-2.4,3.5-1.5c0.6,0.3,0.8,1,0.5,1.6c-0.9,1.1-2.6,1.2-3.7,0.2C121.6,53.2,121.5,53.1,121.4,52.9z"
				/>
			<path d="M126.5,50.4c-1.7-1.3-3.2-2.2-3.6-2s-2-0.3-3.8-1c-1.1-0.6-2.3-1-3.6-1.2c-0.7-0.2-1.4-0.6-1.9-1.2c-1-0.7-1.7-1-1.7-0.6
				s-1.1,0-2.5-0.9s-2.5-1.4-2.5-1s-0.7,0.1-1.5-0.6s-1.5-0.9-1.5-0.6s-0.9,0.2-2-0.4s-1.8-1.6-1.4-2.1s1.5-0.4,3,0.6
				c1.3,0.8,2.4,1.3,2.4,0.9s0.7-0.1,1.5,0.6s1.5,0.9,1.5,0.6s1-0.1,2.3,0.6c0.9,0.6,1.9,1.1,3,1.4c0.3,0.1,0.7,0.2,1,0.3
				c0.8,0.4,1.6,0.6,2.5,0.7c1.6,0.3,3.1,0.8,4.5,1.6c1.3,0.7,2.6,1.2,4,1.5c3,0.5,5.8,2.4,5.4,3.6C131,53.1,129.5,52.9,126.5,50.4z
				"/>
			<path d="M33.1,24.7c-0.7-0.7-1.2-0.8-1.2-0.4s-0.7,0.3-1.5-0.4s-1.5-0.9-1.5-0.5s-1.1,0-2.5-0.9s-2.5-1.4-2.5-1s-0.7,0.1-1.5-0.6
				s-1.5-0.9-1.5-0.5s-0.7,0.2-1.5-0.5s-1.5-0.9-1.5-0.5s-1.1,0-2.5-0.9s-2.5-1.4-2.5-1s-0.7,0.1-1.5-0.6S9.9,16,9.9,16.4
				s-0.7,0.2-1.5-0.5S6.9,15,6.9,15.3s-0.9,0.2-2-0.4s-1.8-1.6-1.4-2.1s1.5-0.4,3,0.6c1.3,0.8,2.4,1.3,2.4,0.9s0.7-0.1,1.5,0.6
				s1.5,0.9,1.5,0.5s0.7-0.2,1.5,0.5c0.8,0.7,1.5,0.9,1.5,0.5s1.1,0,2.5,0.9s2.5,1.4,2.5,1s0.7-0.1,1.5,0.6s1.5,0.9,1.5,0.5
				s0.7-0.2,1.5,0.5s1.5,0.9,1.5,0.5s1.1,0,2.5,0.9s2.6,1.4,2.6,1.1c0.2-0.5,0.3-1,0.4-1.5c0.1-0.5,0.3-1.3,0.4-1.7s0.8,0.1,1.7,1.2
				s1.7,1.8,2,1.6c0.9-0.2,1.8-0.1,2.6,0.2c1.8,0.5,1.9,0.8,0.8,2.1c-1.2,1.7-3.6,2.1-5.3,0.8C33.4,25,33.3,24.9,33.1,24.7z"/>
			<path d="M31.3,14.5c-0.8-0.6-1.7-1.1-2.6-1.5c-0.3,0-0.7,0-1-0.2c-0.2,0-1.4-0.3-2.8-0.5c-1.7-0.4-3.3-1-4.7-1.9
				c-1.3-0.9-2.3-1.3-2.3-0.9s-0.7,0.1-1.5-0.6S14.9,8,14.9,8.3s-1,0.1-2.2-0.6c-1-0.5-2-1-3-1.4C9.4,6.3,9,6.2,8.7,6
				C7.9,5.7,7,5.5,6.1,5.3C2.7,4.7-0.2,2.9,0.4,1.9s5,0.4,7.2,2.2c0.7,0.6,1.3,0.7,1.3,0.3s0.7-0.2,1.5,0.5s1.5,0.9,1.5,0.6
				s1-0.1,2.3,0.6c0.9,0.6,1.9,1.1,3,1.4c0.3,0.1,0.7,0.2,1,0.3c0.8,0.4,1.6,0.6,2.5,0.7c1.6,0.3,3.1,0.9,4.5,1.6
				c0.9,0.6,1.9,1.1,3,1.4c0.4,0.1,0.7,0.2,1,0.4c0.7,0.2,1.4,0.4,2.1,0.5c2.4,0.5,4.1,2.1,2.9,2.8C33.6,15.6,32.4,15.2,31.3,14.5z"
				/>
			<path d="M0.3,11.6c-0.7-2-0.2-4.7,1.1-5s1.9,4.3,0.6,5.6C1.3,12.9,0.8,12.8,0.3,11.6z"/>
		</g>
		<g id="layer103">
			<path d="M59.9,61.7c-3.8-1.1-6-2.5-6-4c0-1.7,5-5.9,6.1-5.2c0.8,0.4,0.4,1.3-1.1,2.4l-2.3,1.7l4.6,1.6c2.6,0.9,4.9,1.2,5.2,0.8
				c1.1-1.9,2.4-6.1,1.7-5.8c-0.4,0.1-0.7-0.2-0.7-0.8s0.4-0.9,0.8-0.7s0.6-0.2,0.3-0.7c-0.4-0.5-0.2-1.2,0.3-1.6c0,0,0,0,0,0
				c2-1.2,2.9,2.8,1.5,6.8C67.8,63.2,66.8,63.7,59.9,61.7z"/>
			<path d="M47.3,55.5c-0.8-2.1,0.4-3.6,2.2-2.9c1.1,0.2,2.2-0.3,2.8-1.2c0.9-1.3,1.5-1.5,2-0.7c1,1.6,0,2.9-3.5,4.7
				C48.2,56.8,47.8,56.8,47.3,55.5z"/>
			<path d="M101.4,49.9C84,43.5,76.9,38.8,80.8,36.5c1.7-1.1,0.9-5.4-1-5.9c-1.3-0.3-1.7-1.1-1.3-2.1s0.1-1.6-0.6-1.6
				s-0.9,0.4-0.6,0.9c1,1.6-2.1,3.3-4.1,2.2c-1.5-0.7-3-1.2-4.6-1.6c-3.2-0.7-7-4.1-6.2-5.6c0.7-0.6,1.7-0.7,2.6-0.4
				c1.2,0.4,1.9,0.2,1.9-0.7c0.6-2.9,1.4-5.8,2.4-8.6c1.4-4.3,2-7.5,1.4-7.8s-0.6-1,0-1.6c2.4-2.4,14.6,6.1,12.4,8.8
				c-0.4,0.4,0.1,0.2,1.1-0.5s1.7-1,1.7-0.6s0.6,0.2,1.4-0.4c1-0.9,1.6-0.8,2.6,0.4c0.7,0.8,0.9,1.5,0.5,1.5s-0.2,0.7,0.5,1.5
				c1,1.2,0.9,1.6-0.4,2.1c-1,0.4-1.5,1.2-1.2,1.9c0.5,1.5-2.7,4.8-3.7,3.8c-0.4-0.3-0.7,0.1-0.7,1s-1,2.7-2.2,3.9
				c-1.6,1.6-1.7,2-0.4,1.5c2.2-0.9,3.1,1.5,1.7,4.2c-1.2,2.2,0,3.6,3.1,3.6c1,0,1.8,0.5,1.8,1s-0.9,1-1.9,1c-3.4,0-3.3,1.3,0.2,2.4
				c2,0.7,4.1,0.9,6.1,0.5c2.6-0.6,2.7-1.9,0.3-1.9c-0.7,0-1.2-0.4-1.2-1c0-2.6,7.8-0.4,35.9,10.4c4.3,1.7,1.8,3.7-5.5,4.5
				c-3.3,0.4-6.6,0.9-7.2,1.1S108.6,52.5,101.4,49.9z"/>
			<path d="M49.4,50.1c-0.4-0.4-1-0.7-1.6-0.7c-0.5,0-0.8-0.4-0.7-1c0.2-0.6,0.9-0.9,1.5-0.7c0.7,0.2,1.3-0.5,1.4-1.5
				c0.3-4.6,0.5-5.3,1.4-5.3s1.1,0.8,1.4,5.4c0.1,1.8,1.5,1.4,1.7-0.5c0.1-0.5,0.2-0.9,0.4-1.4c0.2-0.5,0.3-1,0.4-1.5
				c0-0.5,0.4-0.9,0.9-1h1.3c0.4,0,0.1,0.7-0.6,1.5s-0.9,1.5-0.5,1.5s0.3,0.6-0.3,1.3c-0.6,0.5-1,1.2-1.1,2
				c-0.1,0.4-0.4,0.7-0.8,0.8c-0.8,0.2-1.6,0.6-2.4,1C50.9,50.4,49.8,50.5,49.4,50.1z"/>
			<path d="M74,47c-0.6-0.8-0.7-1.8-0.3-2.7c0.4-0.5,0-0.3-0.9,0.4s-1.9,0.9-2.3,0.5c-0.7-0.5-1.5-0.9-2.4-0.9
				c-3.2-0.8-6.3-1.9-9.3-3.1c-6.2-2.4-7.9-2.8-9.3-1.8c-0.9,0.7-1.5,1.7-1.6,2.8c0,2.4-1.6,2.8-3.3,0.9c-1.9-2.1-1.6-5.7,0.6-5.6
				c1.6,0.2,2.5-3,2.3-8.1c-0.1-2.3-0.6-3-2.1-3s-1.9-0.6-1.8-2.2c0.3-3-7-7.1-9.3-5.2c-0.7,0.5-1.2,1.3-1.4,2.2
				c0,0.6,0.2,0.8,0.5,0.5c0.9-0.8,7.6,1.8,7.3,2.8c-0.6,1.9-8.3,0.1-23.5-5.5L1.4,13.2L0.6,8.4C0.2,5.7,0.2,3.2,0.7,2.7
				c1.5-1.5,36.9,12,42.6,16.3c5.3,4,9.7,6,7.5,3.3c-0.9-1.1-0.9-1.7,0.1-2.9c0.7-1,1-2.2,0.7-3.4c-0.3-1.2,0.4-2.8,1.9-4.2
				c1.3-1.2,2.4-2.9,2.4-3.6c0.1-0.9,0.7-1.6,1.5-1.9c0.8-0.4,1.4-1.1,1.5-2c0.3-1.1,1-1.9,2-2.4c2-1.1,4.3-0.3,8.2,2.9
				c1.8,1.4,1.5,3.6-0.3,2.5c-0.5-0.3-0.7-1-0.4-1.5c0.3-0.5-0.1-0.6-1-0.3C66,6.1,66,6.3,67.6,7.4s1.5,1.7,0.5,3.9
				c-1.3,2.9-3.3,3.3-5.2,1.1c-1-1.2-1-2.1-0.1-4.1c1.8-4.1,1.2-5.2-0.9-1.6c-1.1,1.8-1.8,3.7-1.5,4.3s-0.1,1.2-1,1.5
				c-1.2,0.5-1.3,0.9-0.4,2c1,1.3,0.6,1.8-1.3,1.5c-1.1-0.2-1,2.7,0.1,3.3c1.2,0.8-1.6,6.6-3.1,6.6c-0.6,0-0.6,0.6,0.2,1.5
				c1.3,1.6,0.9,1.8-2.6,1.6c-1.2-0.1-2.1,0.4-2.1,1.3s0.8,1.4,2.1,1.3c1.8-0.2,2,0.3,1.8,2.8c-0.2,1.7-0.1,2.7,0.4,2.3
				c0.5-0.4,1.3-0.4,1.8,0.1c1.4,0.8,2.9,1.4,4.4,1.9c3,1,3.3,0.9,3-0.6c-0.2-0.9-0.9-1.7-1.6-1.7c-1.3,0-1.7-2-0.4-2
				c0.6-0.1,1.2-0.3,1.7-0.7c2.9-1.8,6.5-1.1,10.4,2c2.5,2,3.8,3.8,3.4,4.5c-1.3,2.1-1.2,5.6,0.2,5.1c0.8-0.5,1.1-1.5,0.8-2.4
				c-0.5-2,1.5-3.8,2.2-1.8c1.3,4,0.9,5.1-2.2,6.4C75.3,48.7,74.9,48.7,74,47z"/>
		</g>
	</g>
</g>
<g>
	<g id="Capa_1-2_1_">
		<g id="layer102_1_">
			<path d="M162.3,62.2c-0.4-0.9-0.5-1.9-0.4-2.9c0.1-1-1.2-3.1-3.2-5.2c-1.9-1.9-3.5-4.3-3.7-5.1c-0.1-0.8,0.9-6.2,2.5-11.7
				c3.1-11.7,3.2-15.4,0.1-17.4c-2-1.3-2-2.5,0.1-2.5c1,0,2.1-2.6,4.4-10.4c1.2-4.1,1.2-4.1,7.5-5.6c6.1-1.5,8.6-1.3,7.4,0.9
				c-0.4,0.5-2.3,1.2-4.4,1.5c-2.1,0.4-4,1.1-5.8,2.2c-2.2,1.8-4.3,8-2.9,8.8c0.5,0.3,0.5,1-0.2,1.8c-0.9,1.1-0.8,1.2,0.4,0.8
				c0.7-0.4,1.5-0.2,2,0.4c0.3,0.5,0.8,0.9,1.5,1c0.5,0,0.7-0.4,0.5-0.8s-0.1-2,0.4-3.4c0.8-2,0.6-2.8-0.9-4.4
				c-2.4-2.5-1.4-3.5,1.5-1.6c2.1,1.4,2.5,1.4,6.4-0.5c3.3-1.5,3.9-2.2,3-3.2c-0.7-0.9-0.7-1.5,0-1.9c0.5-0.3,0.7-0.9,0.5-1.5
				c-0.4-0.5,0.1-1.1,0.9-1.4c1.7-0.7,6,2.9,5.4,4.6c-0.3,0.6,0.4,1.4,1.5,1.6c1.5,0.4,1.7,0.8,0.9,2.9c-1.1,2.9-1.1,3.5-0.2,2.8
				c0.4-0.2,3.9,0.4,7.9,1.4c4,1,8.4,2,9.6,2.2c1.3,0.2,5,1,8.2,1.8c2.7,0.8,5.4,1.4,8.1,1.9c11.5,1.9,28.9,6.3,30.3,7.6
				c1.6,1.5,1.5,1.9-1.8,13.2c-1.9,6.4-3.9,12.1-4.4,12.8c-0.7,1-6,0.1-31.3-5.5c-16.7-3.7-30.9-7-31.4-7.2c-0.5-0.2-1.3,0.6-1.5,2
				c-0.5,2.7,0.1,4.9,1.3,4.2c1.4-0.8,1.9,2.1,0.8,4.1c-0.5,1.1-1.5,1.8-2.7,1.9c-2.1,0-3,1.3-3.4,4.9c-0.5,3.8-1.3,4.4-7.1,4.7
				c-2,0.1-4,0.3-5.9,0.8C163.4,63.1,162.7,62.8,162.3,62.2z M163.7,53.6c-0.1-0.4,0-0.8,0.1-1.2c0.8-2,0.4-4.8-1-6
				c-0.9-0.8-1.5-1.8-1.3-2.2c0.2-0.4-0.2-1.2-0.9-1.8c-1-0.8-1.5-0.4-2.3,2.7c-1,3.6-0.9,4,1.5,6.4C162.2,54,163.9,54.9,163.7,53.6
				z M172.8,52.8c-0.7-0.8-1.9-1.1-2.9-0.8c-2.2,0.8-1,2.2,1.9,2.2C174,54.2,174.1,54,172.8,52.8z M176.2,49.3
				c0.3-1.1,0.3-2.2,0.3-3.4c0.1-1.6,0.6-3.2,1.3-4.6c0.8-1.5,1.3-3.1,1.5-4.7c0-0.7,0.3-1.4,0.9-1.9c0.5-0.2,0.7-0.8,0.5-1.3
				c0,0,0,0,0,0c-0.3-0.5-0.1-1.8,0.5-3.1c0.7-1.9,0.6-2.4-0.5-2.4c-2.5,0-4.6,3.6-4.4,7.6c0.2,2-0.2,4.2-0.7,4.8
				c-0.5,0.6-0.6,1.2-0.4,1.2s0.4,0.5,0.1,1c-0.5,0.6-1.3,0.4-2.5-0.7c-1.3-1.1-1.1-0.6,0.5,1.4c2.5,3,2.6,5.1,0.3,4.2
				c-0.6-0.3-1.7,0.3-2.5,1.1c-0.7,0.8-0.8,1.4-0.3,1c0.8-0.3,1.7,0,2.2,0.7C174.5,52,175.5,51.8,176.2,49.3z M246.5,40.4
				c1.6-5.6,3-10.6,3.1-11.1c0.1-0.7-8.2-3.1-11-3.3c-1.4,0-8,20.8-6.9,21.8c0.7,0.7,7.4,2.5,10.4,2.6
				C243.1,50.6,244.2,48,246.5,40.4z M229.2,39.9c1.1-3.9,2.5-8.1,3-9.4c2.1-5.4,1.8-5.7-8.2-7.7c-2.9-0.5-4.1,0.3-4.4,3.2
				c-0.7,3.2-1.5,6.3-2.5,9.4c-1.5,4.4-2.2,8.4-1.7,8.7c0.7,0.7,7.4,2.5,10.4,2.6C226.8,46.9,227.7,45,229.2,39.9z M165.2,41.3
				c-0.6-2.7,1.5-6.6,3.5-6.5c0.8,0.1,1.4-0.1,1.1-0.4s-0.1-1,0.5-1.7c0.8-0.9,0.7-1.6-0.5-2.8c-0.8-0.9-1.3-1.9-1-2.2
				s-0.5-1-1.8-1.6c-1.3-0.6-2.5-1-2.7-0.7c-0.9,2-1.6,4.1-2.2,6.3c-0.9,3.2-2,6.6-2.4,7.5c-0.5,1.2-0.5,1.5,0.2,1.2
				c0.6-0.4,1.6,0.2,2.5,1.2C164.6,43.8,165.8,43.7,165.2,41.3z M213.9,32.4l3.3-10.9l-3.3-0.9c-1.9-0.5-4.6-1.2-6.2-1.5l-2.8-0.5
				l-2.8,9C198,40.9,198,40.7,203.3,42C210.9,43.8,210.3,44.3,213.9,32.4z M197.5,28.8l3.3-10.9l-3.3-0.9c-7.7-2.1-9-2.1-9.5-0.4
				c-2.2,7.6-5.1,18.7-5.1,19.7c0,1.2,5.3,2.9,10,3.3C193.9,39.7,195.2,36.8,197.5,28.8z M176.3,27.1c0.6-0.9,0.7-2,0.3-3
				c-1-1.5-2.1-0.5-2.4,2.4C173.9,29.2,174.8,29.4,176.3,27.1z M177.7,20.1c-0.9-1.2-2.5-2.3-3.4-2.3c-1.4,0-1.5,0.3-0.8,1
				c1.7,1.4,3.6,2.5,5.5,3.5C179.3,22.4,178.6,21.4,177.7,20.1z M179.1,12.2l0.9-3.4l-4,1.9c-4.9,2.5-6.3,4.8-2.3,4.1
				c1.5-0.4,3-0.2,3.4,0.4C177.8,16.5,178,16.2,179.1,12.2z"/>
		</g>
		<g id="layer103_1_">
			<path d="M167.1,61.5c-0.5-0.8,0.1-5.1,1-6.7c0.3-0.4,1-0.3,1.7,0.4c0.9,0.7,1,1.5,0.4,2.7c-0.5,0.8-0.8,1.8-0.7,2.7
				C169.8,62,167.8,62.7,167.1,61.5z"/>
			<path d="M162.6,58c-0.3-0.5,0-2.5,0.7-4.4c1-2.9,1.6-3.5,3.8-3.6c0.9,0,1.8-0.1,2.6-0.3c0-0.2,0.6-0.4,1.5-0.5
				c1.8-0.4,6.6,4.4,5.7,5.8c-0.9,1.5-2.5,0.2-1.8-1.5c0.3-0.8,0.3-1.2-0.1-0.8c-0.4,0.4-1.3,0.1-2-0.5c-0.7-0.6-1.6-1.1-2.6-1.3
				c-1.5-0.3-6.1,3.9-5.4,5c0.3,0.5-0.1,1.3-0.7,1.8C163.7,58.3,162.8,58.5,162.6,58z"/>
			<path d="M161.7,44.4c-2.7-3-4.1-5.2-3.6-5.6c0.5-0.5,2.2,0.6,4.3,3.2c1.9,2.3,4.1,4.1,4.9,4.1c1.3,0,1.3-0.2-0.3-1.4
				c-0.9-0.7-1.3-1.4-0.8-1.5c2.9-0.4,3.7-0.3,5,0.7c1.3,1,1.4,0.5,1.5-2.5c0.2-2.7-0.1-3.5-1-3.1c-0.8,0.3-1.7-0.1-2.1-0.9
				c-0.2-0.5-0.1-1,0.2-1.5c0.5-0.7,1-0.7,1.8,0c0.8,0.7,1.3,0.5,1.6-0.8c0.3-1.1,0-1.7-0.6-1.6s-1-0.5-1-1.4c0-0.8-1-2.5-2.2-3.7
				l-2.1-2.3l2-2c2.4-2.4,4-1.4,4.1,2.5c0,1.5,0.5,2.5,1.4,2.5c0.9,0,1.4,1.1,1.3,4.5c-0.1,2.5-0.4,5-0.8,7.5
				c-0.5,2.6-0.4,3,1.1,2.8c2.3-0.3,6.9,1.7,6.3,2.7c-0.3,0.5-2.1,0.6-4,0.5c-2.7-0.2-5.3,0.1-7.9,0.7l-4.6,1.3L161.7,44.4z"/>
			<path d="M228.1,48.3c-0.8-0.8,0.6-5.4,1.6-5.3c0.5,0.1,0.9,0.7,1.1,1.4C231.1,45.8,228.9,49.1,228.1,48.3z"/>
			<path d="M182.7,28.1c-0.7-1.3-0.3-3.5,0.6-3.7c1.1-0.3,1.5,3.3,0.4,3.9c-0.3,0.2-0.7,0.2-0.9-0.1
				C182.8,28.2,182.7,28.2,182.7,28.1z"/>
			<path d="M177.1,27c-0.3-0.8-0.3-1.7,0.1-2.5c0.4-1.1,0.3-1.4-0.5-0.8c-0.7,0.4-2.3-0.1-3.8-1.3c-3-2.2-3.5-2.4-3.5-0.7
				c0.1,1.4-1,2.6-2.4,2.7c-0.5,0-0.9-0.1-1.4-0.3c-1.1-0.6-1.7-0.5-2.1,0.5c-0.4,1-0.9,1.2-2.4,0.4c-1-0.5-1.6-1.4-1.4-1.9
				c0.4-0.4,1.1-0.6,1.6-0.3c0.8,0.5,0.8,0.4,0-0.5c-0.8-0.9-0.8-1.7-0.2-2.9c0.9-1.7,1-1.7,3.2,0.3l2.1,2l0.9-2.4
				c1.5-3.6,2.7-3.8,5.4-0.5c1.7,2.1,3,2.8,4.1,2.4c0.8-0.4,1.4-1,1-1.5c-0.9-1.5,1.3-4.5,2.8-3.9c1.2,0.5,1.4,0.2,0.7-1.6
				c-0.4-1.4-0.7-2.8-0.8-4.2c0-1.5-0.4-1.7-1.5-1.1c-0.9,0.5-1.7,0.5-2.1-0.1c-0.4-0.5,0.7-1.5,2.3-2.3c2.5-1.3,3.2-1.2,2.8,0.7
				c-0.1,0.5,0.3,0.5,0.8,0.2c0.6-0.4,0.8-1.2,0.5-1.9c-0.7-1.9,0.9-2.3,2.4-0.5s1.6,4.3,0.1,4.3c-1.8,0-2.4,1.3-1.2,2.7
				c1,1.2,1,1.9,0,3.9c-1,1.7-1.5,3.5-1.6,5.4c-0.1,0.6-1.3,1.5-2.5,2c-1.8,0.7-2.2,1.2-1.4,2.2c1,1.2,0.5,2.4-0.9,2.4
				C177.8,27.8,177.3,27.5,177.1,27z"/>
			<path d="M156.6,20.1c-0.9-1.1-0.6-1.8,1.8-4.1c2.7-2.5,5.3-3,4-0.6c-0.4,0.6-0.4,0.8,0.1,0.5c1-0.9,3.4,1,2.6,2.2
				c-0.3,0.5-1,0.5-1.7-0.2c-0.7-0.6-1.4-0.7-1.8,0c-0.2,0.5-0.8,0.7-1.3,0.4c0,0-0.1-0.1-0.1-0.1c-0.5-0.3-0.8,0.2-0.6,1
				C159.8,21.3,158,22,156.6,20.1z"/>
			<path d="M165.7,7.5c-1.6-1.7-2.6-3.3-2.1-3.5s2.1,0.8,3.7,2.5s2.6,3.3,2.1,3.5C168.9,10.2,167.4,9.1,165.7,7.5z"/>
			<path d="M177.4,3.3c-1.2-0.9-2-1.8-1.7-1.9c4.3-1,7.5,0.7,5.1,2.7C179.8,5,179,4.8,177.4,3.3z"/>
		</g>
	</g>
</g>
<g>
	<g id="Capa_1-2_2_">
		<g id="layer101">
			<path d="M300.8,48.6c-0.4-0.7-0.5-1.4-0.3-1.4c0.2,0,0.7-0.1,1-0.2c0.5-0.1,1-0.3,1.3-0.7c0.3-0.4,0.2-0.5-0.1-0.4
				c-0.3,0.1-0.7,0-0.9-0.4c0,0,0-0.1,0-0.1c-0.1-0.4,0.8-0.7,2-0.7s2.2,0.4,2.2,0.7c0,0.4-0.4,0.6-0.7,0.6c-0.1,0-0.1,0-0.2-0.1
				c-0.5-0.1-0.7,0-0.4,0.3c0.3,0.3,0.2,1-0.3,1.6c-0.5,0.6-0.6,1-0.1,0.8c0.5-0.1,0.9,0.1,0.9,0.5
				C305.4,50.5,301.5,50.1,300.8,48.6z"/>
			<path d="M303.6,42.8c-0.7-0.8-1-1.6-0.6-1.9s1.3,0.2,1.9,1c0.7,0.7,1,1.6,0.6,1.9C305.1,44,304.2,43.6,303.6,42.8z"/>
		</g>
		<g id="layer102_2_">
			<path d="M315.2,61.6c-0.8-0.6-1.5-1.4-1.8-2.4c-0.4-2.2-2.4-6-3.1-5.7c-0.4,0.1-1.7-0.6-3-1.7c-1.3-1.1-1.7-1.3-1.2-0.7
				c0.5,0.6,0.6,1.5,0.4,2.2c-0.4,0.6-0.6,1.3-0.7,2.1c0,0.5-0.3,0.9-0.8,0.9c-0.1,0-0.2,0-0.3,0c-0.9-0.2-0.9,0-0.1,0.9
				c0.8,0.9,0.7,1.4,0,2.3c-1,1.2-4.2,1.5-4.8,0.4c-0.9-1.3-4.1-1.3-5.4,0c-1.4,1.6-6.6,2-7.4,0.7c-0.4-0.7,4.3-16.3,5.5-18.4
				c0.3-0.7,0.5-1.4,0.6-2.2c0.2-0.9,0.5-1.7,1-2.4c0.5-0.5,0.6-1.2,0.3-1.8c-0.2-0.5,0-1,0.5-1.2c0,0,0.1,0,0.1,0
				c2.6-1-0.3-4-7.9-8.2c-2.2-1.2-3.4-2.2-3.1-2.8c0.3-0.6,0.3-0.7-0.4,0s-1.4,0.7-3.1-0.2c-2-1-2.1-1.2-1-3.1
				c0.6-1.1,2.9-3.8,5.2-6.1c3.3-3.2,4.3-3.9,5.2-3.2c0.6,0.5,1.2,0.7,1.5,0.4c0.3-0.2,1.2,0,2.2,0.5c0.8,0.5,1.7,0.9,2.7,1.1
				c0.8,0.2,1.5,0.4,2.2,0.7c0.6,0.3,1.2,0.5,1.8,0.6c0.4,0.1,0.7,0.3,1,0.6c0.5,0.3,1.1,0.2,1.5-0.2c1.2-0.6,2.5-0.9,3.8-0.8
				c1.8-0.1,3.5,0.6,4.6,2c1.3,1.6,1.9,1.9,2.6,1.2c0.7-0.7,0.7-0.9-0.1-0.7c-0.6,0.1-1.2-0.3-1.3-1c0,0,0-0.1,0-0.1
				c-0.2-0.9,1.7-2.4,7-5.5c4-2.4,9.4-5.6,12-7.2s4.9-2.9,5.3-2.9c0.9,0,7.3,8.4,7.3,9.5c-0.1,1.1-16.8,11-18.6,10.9
				c-0.7,0-1.1,0.2-0.9,0.7c0.2,0.4-0.4,1-1.4,1.6c-2,0.9-2.5,1.7-1.2,2.5c0.4,0.4,0.5,1.1,0.2,1.6c-0.2,0.6-0.1,1,0.4,0.9
				c0.3-0.1,0.6,0,0.7,0.3c0,0.1,0,0.1,0,0.2c0,0.4-0.3,0.7-0.7,0.5c-0.3-0.1-0.6,0.1-0.7,0.4c0,0.1,0,0.1,0,0.2v1.3
				c0,0.3,0.4,0.6,1.1,0.7c0.7,0.1,1-0.1,0.7-0.4c-0.2-0.4-0.1-0.9,0.3-1.1c0.4-0.2,1.1,0.3,1.6,1.1c0.4,0.8,1.1,1.3,1.9,1.5
				c0.6,0,1.5,1,1.9,2.2c0.8,2.3,4,3.6,5.8,2.2c0.6-0.5,1.2-0.5,1.9,0.1c1,0.7,0.9,1.4-0.7,4.7c-1,2.2-1.9,4.5-2.2,5.2
				c-0.4,0.8-1.3,1.4-2.2,1.3c-1.2,0.1-2.2,0.6-3.1,1.4c-1.1,1-2.5,1.6-3.9,1.9c-1.4,0.2-3.7,0.7-5.2,0.9c-2.8,0.5-3.2,1.3-1.5,3.6
				c1.3,1.8,1.4,5.1,0.2,6.3C317.5,63.3,317.1,63.2,315.2,61.6z M316.8,42.5c0.2-0.6,0.1-1.3-0.4-1.8c-0.5-0.5-0.2-1,0.9-1.6
				c0.9-0.4,1.4-1.3,1.2-1.9c-0.2-0.5-0.1-1.2,0.4-1.6c0.4-0.2,0.4-0.8,0.1-1.3c-0.8-1-0.7-2.5,0.3-3.3c0.1-0.1,0.2-0.2,0.3-0.2
				c0.7-0.4,0.7-0.7,0.2-0.7c-0.5,0-1,0.3-1.4,0.7c-0.4,0.6-0.8,0.6-1.5,0c-0.7-0.6-1-0.4-1.4,0.4c-0.2,0.7-0.1,1,0.2,0.7
				c0.4-0.2,0.9-0.1,1.1,0.3c0.4,0.7-1.7,2.9-2.9,3c-1.6,0.1-3.4,1-3.4,1.6c0,1,1.3,1.6,1.9,0.7c0.4-0.6,0.8-0.5,1.6,0.1
				c1,0.7,0.9,1.1-0.2,2.5c-1.1,1.3-1.1,1.3-0.1,0.6c1.3-1,2-0.4,1.7,1.6C315.2,43.7,316.3,44,316.8,42.5z M307,33.5
				c5.4-0.4,9.9-5.5,8.2-9.1c-0.7-1.7-2.2-2.5-2.4-1.2c-0.5,4.9-6,9.7-10.5,9c-1.3-0.2-2.2,0-2.2,0.5c0,1.4,0.8,1.9,2.5,1.4
				C303.6,33.9,305.5,33.6,307,33.5z M305.5,25.9c0.2,0.2,1-0.4,1.6-1.5l1.3-1.9l-2.7,0.2c-2.9,0.1-3.6,0.7-3.7,3.3
				c0,1.5,0.1,1.5,1.6,0.6C304.4,26,305.3,25.7,305.5,25.9z M299.7,26.3c-0.2-0.4,0.1-1.6,0.7-2.8c1.1-2.2,6.3-4.6,7.8-3.6
				c1.2,0.7,1.9-1,0.9-2.2c-1.2-1.4-3.1-1.4-6.6,0.1c-1.1,0.6-2.3,1-3.5,1.3c-0.4,0.1-0.7,0.4-0.8,0.8c-0.2,1-0.5,1.9-0.9,2.8
				c-1,2.5-0.4,4.3,1.5,4.3C299.5,27,300,26.7,299.7,26.3z"/>
		</g>
		<g id="layer103_2_">
			<path d="M288,60.4c-0.3-0.4-0.3-1,0-1.4c0.3-0.7,0.5-1.4,0.6-2.1c0.1-0.6,0.2-1.2,0.3-1.7c0.2-0.4,0.3-0.7,0.4-1.1
				c0.1-0.4,0.2-0.8,0.4-1.1c0.2-0.4,0.3-0.7,0.4-1.1c0.1-0.4,0.2-0.8,0.4-0.9c0.2-0.5,0.3-1,0.4-1.5c0.1-0.7,1-3.5,1.8-6.1
				c0.7-1.9,1.2-4,1.6-6c0.1-0.8,0.6-1.4,1.3-1.8c1-0.6,1.1-1.2,0.5-3.2c-0.4-1.6-1.2-2.5-2-2.5c-0.7,0-1.4-0.3-1.9-0.7
				c-0.3-0.4-2.7-1.7-5.4-2.9c-6.5-2.8-8.5-4.2-7.7-5c0.4-0.4,2.1-0.1,4.3,0.8c2.5,1,3.8,1.3,4.5,0.7c1-0.9,1.9-0.2,1.4,1
				s3,2.8,4.1,1.7c0.5-0.5,0.8-1.2,0.8-1.9c0-0.6,1-2.2,2.4-3.6c1.9-2,2.2-2.6,1.4-3.4c-0.6-0.5-0.8-0.5-0.6-0.1
				c0.6,1.1-1.4,2.9-2,1.9c-0.3-0.4-0.2-0.9,0.2-1.1c0,0,0.1,0,0.1-0.1c1.5-0.9,0.7-1.6-3.1-2.6c-4-1.1-4.9-1.8-3.7-2.6
				c0.7-0.4,3.1,0.3,14.2,3.9c0.9,0.3,0.9,0.5-0.3,1.2c-3,1.8-5.4,4.5-6.9,7.6c-0.7,1.6-1,2.8-0.6,2.5c0.4-0.3,1-0.3,1.3,0.1
				c0.7,0.4,1.5,0.8,2.2,1.1c1,0.4,1.3,0.1,1-0.7c-0.3-0.5-0.2-1.2,0.3-1.5c0.4-0.2,0.5-0.7,0.3-1.1c-0.5-0.9,4-4.6,5-4
				c0.4,0.2-0.5,1.5-2,2.8c-2.5,1.9-2.6,2.3-1.6,3.4c1,1,1,1.3-0.1,2.9c-0.9,1.3-1.3,1.6-2.2,0.9c-0.5-0.5-1.2-0.7-1.4-0.4
				c-0.7,0.7,0.5,5.1,1.4,4.9c0.4-0.2,0.9,0.1,1,0.5c0,0,0,0,0,0.1c0.1,0.4-0.6,0.7-1.6,0.7c-1.5-0.1-1.7,0.1-1,0.9
				c0.7,1,0.4,1.3-1,1.1c-0.5-0.1-2,2.2-1.9,2.9s-1.9,6.3-2.7,7.9c-0.4,0.7-0.7,1.4-1,2.1c-0.1,0.3-0.2,0.7-0.3,0.9
				c-0.1,0.4-0.3,0.7-0.4,1.1c-0.1,0.3-0.2,0.7-0.4,1c-0.2,0.8-0.3,1.5-0.4,2.3l-0.1,2.1l3.8-0.4c2.1-0.2,4.7-0.4,5.9-0.4
				c1.2,0,1.9-0.4,1.9-0.9c-0.1-0.5,0.1-0.9,0.6-0.8c1.1,0.2,3.3-8.7,2.3-9.3c-0.4-0.3-0.3-0.7,0.4-1.3c0.7-0.5,1.7-3.4,2.5-6.4
				c1.4-5.5,1.5-5.6,3.7-5.5c1.8,0.1,2.8-0.5,5-3.3c2.1-2.6,2.6-3.7,1.9-4.4c-0.4-0.5-0.5-1-0.2-1c0.7,0-1.9-4-3.1-4.7
				c-0.5-0.4-0.8-1-0.5-1.3c0.2-0.6,0.1-1.2-0.2-1.6c-0.4-0.6-0.6-1.3-0.7-2c0.1-1.4,4.2-1.6,4.7-0.2c0.2,0.5,0.8,0.9,1.3,0.8
				c0.5-0.2,1,0,1.3,0.4c0.4,1.2-3.1,1-3.9-0.2c-1.3-2.2-0.7,0,0.7,2.9c1.4,2.8,2.4,3.8,2.2,2.5s0.1-1.9,1-1.2
				c0.6,0.5,1.6,0.3,3.1-0.7c1.3-0.8,1.6-1.3,1-1.1c-0.7,0.2-1.5,0-2-0.5c-1.1-1.3-0.1-2.2,1.3-1c1,0.7,1,0.7,0.2-0.8
				c-0.6-1-1.3-1.6-2-1.3c-0.6,0.2-1.3-0.1-1.6-0.7c-0.2-0.6-0.8-0.9-1.4-0.7c-1.9,0.7-1.7-0.9,0.3-2.2c0.8-0.6,1.6-1.1,2.5-1.4
				c0.4-0.1,0.8-0.2,1-0.5c0.3-0.3,1-0.2,1.6,0.3c0.8,0.7,1,0.6,0.8-0.1c-0.4-1.6,3.1-1.4,4.3,0.2c0.6,0.8,0.9,1.7,0.7,2
				c-0.4,0.7-2.8,0.4-4.1-0.4c-0.6-0.4-0.4,0.4,0.6,2s1.4,2.9,1,3.1c-0.4,0.2-1.6-1-2.8-2.9c-1.4-2.5-2.2-3.2-2.9-2.6
				c-0.4,0.4-1,0.4-1.5,0.1c-0.4-0.3-0.4-0.1-0.1,0.4c0.4,0.5,1,0.8,1.6,0.6c0.6-0.2,1.6,0.7,2.6,2.4c0.9,1.5,1.7,2.8,1.8,3
				c0.4,0.7,2.6-1,2.3-1.7c0-0.8,0.3-1.7,1-2.2c1-1,1.5-1,2.3-0.2c0.6,0.5,0.5,0.1-0.2-1.1c-1.6-2.5-0.3-3.6,1.3-1
				c1.3,1.9,1.7,1.9,5.5-0.8c0.1-0.1-0.6-1.3-1.7-2.8s-1.6-2.8-1.3-3.1c0.9-0.5,4.3,4,4,5.1c-0.1,0.4,0.4,0.3,1.2-0.4
				c1.3-1.1,1.6-1.2,2.3-0.2s-0.9,2.2-10,7.6c-6,3.5-11.4,6.6-12,6.8c-1,0.4-0.1,2.2,5.6,10.8c0.7,1,1.2,2.1,1.7,3.2
				c0.5,1.4,2.8,1.7,4,0.4c0.6-0.5,1.5-0.6,2.2-0.4c1.3,0.5,1.3,0.6,0,1.6c-0.9,0.6-1,1.1-0.5,1.5c0.4,0.2,0.5,0.8,0.3,1.2
				c0,0,0,0,0,0c-0.2,0.4-0.7,0.4-1.3,0.1c-1.1-0.9-3.5-0.8-3.5,0.1c0,0.4,0.5,0.4,1.1,0.2c0.8-0.3,1.4,0.2,1.9,1.6
				c1,2.5,0.3,4.5-1.1,3.3c-0.8-0.7-1.5-0.4-3.2,1c-1.3,1-2.5,1.7-2.7,1.5c-0.2-0.2-1.3,0.2-2.5,1.1c-1.9,1.5-2.1,1.5-3.4,0.4
				c-0.7-0.7-1.2-1.6-0.9-2.1c0.3-0.4,0-0.4-0.7,0.1c-0.8,0.7-1.3,0.7-1.7,0.1c-0.5-0.8-4.5-0.9-6.5-0.1c-1.6,0.7-0.7,2.2,1.5,2.6
				c2.2,0.4,2.8,1,1.7,2.3c-0.5,0.7-1.4,0.9-2.2,0.4c-0.8-0.4-1.7-0.8-2.6-1c-0.7-0.2-1.2-0.7-1-1c0.1-0.5,0-1.1-0.3-1.6
				c-0.4-0.7-0.9,0.4-1.6,3.2c-1.4,6.5-1.6,6.6-10.1,7C291.9,60.7,288.3,60.7,288,60.4z M326.4,47.2l1.8,0.9l-1.6-1.3l-1.6-1.2
				l1.6-2.1c1.3-1.9,1.4-2.2,0.4-3.7c-1-1.5-1.1-1.6-3.3,1.3c-2.1,2.6-3,5.6-1.6,5.2c0.3-0.1,0.4,0.2,0.4,0.6s-0.4,0.7-0.7,0.6
				c-0.3-0.1-0.4,0.3-0.1,1c0.4,1,0.7,1,1.7-0.4S324.8,46.4,326.4,47.2z M313.9,44.9c-0.6-1-5.5-0.8-5.5,0.3c0,0.7,0.9,0.8,3,0.7
				C313,45.8,314.1,45.3,313.9,44.9z M318.9,44.4c-0.5-0.9-1.2-1.7-2-2.4c-1-0.9-1-1.1,0.1-2.9c2-3.1,5-6,5.7-5.6c0.4,0.2-0.5,2-2,4
				c-2.2,3-2.5,3.7-1.6,4.4c0.9,0.7,1.4,0.4,2.8-1.6c0.7-0.9,1.3-1.9,1.8-3c0.1-0.4,0.1-0.8,0.2-1c0.1-0.2,0.6,0,1.3,0.5
				s0.2-0.3-1-2c-2-2.9-2.2-3-3.1-1.6c-0.8,1.1-1.3,1.3-2.1,0.5c-1-0.7-0.9-1.1,0.1-2.7c2.3-3.6,0.4-2.5-2.7,1.6
				c-3.6,4.6-3.5,5,0.6,10.7C319.2,46,320,46.5,318.9,44.4z"/>
			<path d="M313.2,58.4c-0.2-0.4,0.1-0.9,0.7-1.1c0.9-0.3,1-0.8,0.4-1.8c-0.5-0.7-0.4-1.7,0.3-2.2c0,0,0,0,0.1,0
				c1-0.9,1.5-0.5,1.2,1c-0.1,0.4,0.6,1.4,1.5,2.4c0.9,1,1.6,1.8,1.3,1.9C315.8,59,313.5,58.9,313.2,58.4z"/>
			<path d="M303.9,30.7c-1.3-0.5-1.6-1-1-1.6c0.4-0.4,0.6-0.9,0.7-1.4c-0.2-0.7,3.7-3.7,4.1-3.1c0.2,0.1,0.4-0.6,0.3-1.7
				c0-1.3,0.3-2,0.9-1.9s0.9-0.5,0.9-1.3c0-1.8,1.2-2.7,1.9-1.5c0.3,0.5,0.5,2.4,0.5,4.2c0,2.6-0.4,3.7-2.2,5.5
				C307.2,30.9,306,31.5,303.9,30.7z"/>
			<path d="M290.1,24.2c-0.2-0.4,0.2-1.3,1-1.9s1.6-1,1.9-0.6s-0.2,1.3-1,1.9C291.2,24.3,290.3,24.6,290.1,24.2z"/>
			<path d="M291.5,18.8c-0.1-0.3,0.3-1.1,1-1.8c1.4-1.3,2.1-1,2,1C294.5,19.1,292.1,19.8,291.5,18.8z"/>
			<path d="M286.3,16.7c-0.2-0.4,0.2-1.3,1-1.9s1.6-1,1.9-0.6c0.2,0.4-0.2,1.3-1,1.9S286.6,17.1,286.3,16.7z"/>
			<path d="M335,8.1c-1-1.3-1.9-2-1.9-1.6c0.2,1.9-0.2,2.1-1.6,0.4c-0.8-1-1.4-1.5-1.3-1c0.2,0.7-0.1,1-1.4,1
				c-0.2,0,0.1-0.7,0.9-1.5c1.1-1.2,1.6-1.3,2.5-0.5c0.7,0.5,1,0.5,0.7,0.1c-0.3-0.4,0.1-1.4,0.9-2.1c1-0.8,1.6-1,1.9-0.5
				c0.4,0.8-0.1,1.1-1.3,0.9c-0.7-0.1-0.1,0.9,2.2,4.2C339,10.5,337.6,11.2,335,8.1z"/>
		</g>
	</g>
</g>
<text transform="matrix(1 0 0 1 32.4375 84.4567)" class="st0 st1">Sentinel 4</text>
<text transform="matrix(1 0 0 1 145.6851 84.4567)" class="st0 st1">Sentinel 5</text>
<text transform="matrix(1 0 0 1 275.6777 84.4567)" class="st0 st1">Sentinel 5P</text>
</svg>
