<svg xmlns="http://www.w3.org/2000/svg" viewBox="0 0 179.44 83.94"><title>sentinel1</title><g id="Capa_2" data-name="Capa 2"><g id="Capa_1-2" data-name="Capa 1"><g id="layer102"><path d="M144.75,83.11c-3.8-.9-6.2-1-7.4-.3s-2,.6-2.9-.7a4.09,4.09,0,0,0-2.8-1.6,2.87,2.87,0,0,1-2.2-1,1.1,1.1,0,0,0-1.6-.4,3.71,3.71,0,0,1-2.7-.2,9.73,9.73,0,0,0-3.9-.5,9.45,9.45,0,0,1-4.5-1,11.06,11.06,0,0,0-4.3-1.3c-1.1-.1-1.9-.7-1.8-1.3.4-1.6-.9-1.7-2.5-.1-.8.8-1.5.8-2.6-.1A2.47,2.47,0,0,0,103,74a2.21,2.21,0,0,1-2.2-.2,10,10,0,0,0-3.3-.8c-1.2,0-1.9-.6-1.7-1.4.3-1.1,0-1.2-1.1-.2s-3,.8-8.3-.4c-3.8-.8-7.8-1.7-8.9-1.9s-2-.4-2-.6A10.26,10.26,0,0,0,73,68c-1.4-.2-3.6-.5-5-.8s-4.4-.7-6.7-1.1c-8.4-1.5-7.9-5.4.9-7.7,4.3-1.2,5.9-1,19,2.1,7.9,1.9,15.4,3.3,16.8,3.3a5.56,5.56,0,0,1,3.5.7,17.2,17.2,0,0,0,3.8,1.4l2.8.7-.3-6.3c-.2-3.8-.9-6.9-1.8-7.9-1.4-1.4-1.9-1.3-6,.9s-4.8,2.3-7.5,1.1a10.94,10.94,0,0,0-3.7-1.1,9.79,9.79,0,0,1-3.4-.9c-2.5-.9-2.6-1.1-1.2-2.6,1-.9,2.1-1.2,2.9-.7,2.2,1.3,5,1.3,3.9-.1-.5-.7-.7-1.5-.3-1.8,1.3-1.3.8-7.2-.6-8.3s-1.3-1.4-.1-3c.8-1,1-1.5.4-1.1s-2.8-.2-4.8-1.2c-3.6-1.9-3.7-1.9-3.1-.1.4,1.2-.2,2.7-1.5,4-2.4,2.4-4,1.9-4-1.5,0-1.3-.5-2.7-1-3a1.1,1.1,0,0,1-.4-1.6c.3-.5-1-1.6-3-2.4-4.1-1.7-4.9-1.9-4.1-.6A1.22,1.22,0,0,1,68,30c-.5.3-1,2.2-1,4.1a13.11,13.11,0,0,1-1.7,6l-1.7,2.6L62,40.41c-1.9-2.4-1.5-3.6,2.8-9.6,2.5-3.5,2.9-5.1.9-3.4-.8.6-1.7.7-2.1.3s-.6-.2-.4.3a.68.68,0,0,1-.7,1c-.5,0-1-.8-1-1.7a5.72,5.72,0,0,0-.7-2.4c-1.1-1.1-10.9-4.4-10.4-3.5A1.1,1.1,0,0,1,50,23c-.5.3-1,2.4-1,4.5s-.4,4.2-1,4.5a2.87,2.87,0,0,0-1,2.2c0,1.2.3,1.3,1.4.4a1.81,1.81,0,0,1,2.4,2.7c-.8.8.1,1.4,3.3,2.2a45.68,45.68,0,0,1,5.4,1.8,3.82,3.82,0,0,0,1.7.7c1.5,0,1.8,1.3.4,2.4-1,.9-2,.9-4.2,0a10.62,10.62,0,0,0-3.6-1.1,10.15,10.15,0,0,1-3.5-.9,23.47,23.47,0,0,0-4.8-1.5,22.4,22.4,0,0,1-5-1.5,10.94,10.94,0,0,0-3.7-1.1,8.9,8.9,0,0,1-3.5-1,10.44,10.44,0,0,0-3.7-.9,2.92,2.92,0,0,1-2-.9c-.7-.5-1.5-.7-1.8-.5s-1.8,0-3.4-.6a37.36,37.36,0,0,0-3.6-1.4,13.14,13.14,0,0,0-1.5-.5,3.93,3.93,0,0,0-1.5-.1,12.47,12.47,0,0,1-3.5-1.1,11.2,11.2,0,0,0-3.5-1,8.9,8.9,0,0,1-3.5-1,17,17,0,0,0-3.8-1.2c-1.2-.1-2-13-1-15.4a21.34,21.34,0,0,0,.5-7C.85,2,1.25.31,2.25,0c1.1-.5,44.7,15.1,48,17.2a8.84,8.84,0,0,0,3,1,15.3,15.3,0,0,1,4,1.5,15.3,15.3,0,0,0,4,1.5,15.3,15.3,0,0,1,4,1.5,15.3,15.3,0,0,0,4,1.5,20,20,0,0,1,4,1.5,14.2,14.2,0,0,0,3,1.4,2.32,2.32,0,0,1,1,.4,8.89,8.89,0,0,0,1.8.5,40.8,40.8,0,0,1,20.6,10.8c6.7,6.6,8.7,6.4,5.8-.5-1.5-3.8-.5-6.2,1.7-4,.7.7,2.7.5,6.2-.5,6.2-1.9,11.7-2.3,13.3-1.1a2.33,2.33,0,0,0,2.2.4c1.3-.9,3.2,2.9,2.5,4.8A3.23,3.23,0,0,0,132,41c.7.8.9,1.5.5,1.5s-.3.6.4,1.3a1.7,1.7,0,0,1,.1,2.3c-.6.6-.5,1.5.1,2.4.9,1.3,1,1.2.5-.2-.3-1.2.6-2.6,2.9-4.4,3.3-2.5,3.6-2.6,6-1,1.4.9,2.5,1.4,2.5,1.1s1.4.2,3,1,2.8,2,2.5,2.4a2,2,0,0,0,.9,2c1.4,1.1,1.4,5,0,7.2-.4.8-.3.9.5.5s1.7.6,2.7,2.9c.8,2,1.8,3.3,2.3,3.1s1.4.1,2.1.9c2.3,2.8,5.3,1.1,4.6-2.6-.4-1.7-3.5-8.9-3.9-8.9-.6,0,0,4.7.7,5.8.4.7.4,1.2,0,1.2s-.1.6.5,1.4c.8,1,.9,1.6.1,2.1s-1.4-.1-1.1-1.7c0-.4-.8-1.2-1.9-1.8s-1.8-1.6-1.4-2.1-.2-1.9-1.2-3-1.3-1.9-.9-1.9-.2-1.1-1.4-2.4c-2.8-3-1-4.5,1.9-1.6,1.1,1.1,2.5,1.8,3,1.5,1.5-.9,7.2,2.4,6.3,3.8-.5.9-.3.9.9-.1s2.1-.8,5.1,1.2c1.9,1.3,3.8,2.2,4.1,1.9.8-.8,3.8,6.6,3.1,7.7A1.1,1.1,0,0,0,178,66a1.1,1.1,0,0,1,.5,1.5A1.17,1.17,0,0,0,179,69c.8.5.6,1.3-.6,2.6s-2,1.6-3.1.8c-.7-.6-1.3-.8-1.3-.4s-.7.2-1.5-.5-1.5-.9-1.5-.5-.7.1-1.7-.6-1.8-1.3-2-1.1-.4.2-.5.1-1.1-.2-2-.4c-3.4-.6-12.3-3.8-13.5-4.8-.7-.5-1.3-.6-1.3-.3s-.9.2-2.1-.4c-1.6-.9-1.8-1.4-.8-2.6s1.5-1.2,2.7-.2,1.4,1.1.7-.2a7.94,7.94,0,0,1-1-3.5,7.16,7.16,0,0,0-.8-3.2,2.11,2.11,0,0,1-.3-2.1c.2-.4-.4-1.9-1.5-3.2-1.9-2.5-2.1-2.4-2.3,2.5-.1,1.1-.7,1.9-1.3,1.8s-1.3.2-1.3.7a.93.93,0,0,0,1.3.8,1.36,1.36,0,0,1,1.6.7,5.75,5.75,0,0,0,1.3,2.2c.6.8.5,1.9-.2,3.3l-1.2,2.2-2.6-2.9c-5.6-6.1-7.9-7.6-10-6.4-1.5.8-2.3.7-3.2-.4-.7-.8-1.6-1.2-2.1-1-1.3.9-4-4-3.4-6.1.5-1.5.3-1.5-1.1.4-.9,1.2-2.2,2.2-2.8,2.2-1.4,0-6.6,5.1-6.6,6.5,0,.5,1-.1,2.3-1.3,2.6-2.5,4.2-1.9,2.7.9-.7,1.1-.7,2,0,2.4s.5,1.5-.2,3a6.21,6.21,0,0,0-.3,4.2,6.29,6.29,0,0,1,.6,3.1,1,1,0,0,0,.9,1.2c1.3,0,1.3-10.7,0-11.5-.6-.4-.4-1.7.5-3.6,1.6-2.9,3.5-3.1,3.5-.3,0,1.2.4,1.5,2.5,1.4A19.79,19.79,0,0,1,129,56c5.4,2.8,1.8,4.3-4.4,1.9-1.3-.5-1.6.1-1.6,2.5,0,1.7.3,3,.8,3,1.9-.3,2.3.2,1.3,1.5-.9,1.1-.7,1.5.9,1.9s1.9.3,1-.8-.8-1.5,0-2a1.52,1.52,0,0,1,1.7-.1c.3.3,1.2.1,1.9-.5.9-.8,1.7-.2,2.9,2.5.9,1.9,2,3.5,2.3,3.4,1.8-.2,2.2.4,1.3,2s0,2.1,11.2,4.7c12.8,2.9,15.5,4.1,13.8,5.8a4.88,4.88,0,0,1-2.3,1.3C153.45,84.21,149.65,84.21,144.75,83.11Zm26.7-18.3c.6-1.7.7-1.7,2,.1s1.4,1.6,1-1c-.2-1.6-.4-3.4-.4-3.9s-1-1.1-2.1-1.2-1.8.2-1.5.7a1.15,1.15,0,0,1-.4,1.5c-1.2.7-3-2.5-2.4-4.2.3-.7,0-1.3-.6-1.3s-.8,1-.6,2.2a4.78,4.78,0,0,1-.8,3.7c-.9,1.2-.9,1.3,0,.7.8-.4,1.7.2,2.5,1.8C169.45,66.91,170.45,67.21,171.45,64.81Zm-29.2-14.6c.4.3.7.1.7-.6s-.7-1.1-1.5-.8a1.48,1.48,0,0,1-2-.4,1.15,1.15,0,0,0-1.6-.3c-.6.4-.6,1.1.2,2s1.5,1.1,2.4.4C141.05,50,142,49.81,142.25,50.21Zm-41.6-2.5c.8-.5.4-1.5-1.2-3.5a11,11,0,0,0-3-2.7c-.9,0-.6,3,.5,5.1S98.85,48.91,100.65,47.71Zm28.3-4.1c0-1.4-4.1-4.1-5.2-3.5-1.4.9-.9,2.1,1.5,3.2C128.05,44.71,129,44.71,129,43.61Zm-12.7-1.7c.4-.1,1.1-.2,1.7-.3s.8-1.1.6-2.3c-.2-1.4-.9-2.1-1.7-1.9a20.63,20.63,0,0,1-4,.4c-2.2,0-2.5.4-2.1,2.1.6,2.5,2.2,3.7,3.7,2.8A4.76,4.76,0,0,1,116.25,41.91Zm-73.2-6.8c-.8-1-.9-1.6-.1-2.1,1.6-1,1.2-10.1-.5-11.5-1.1-.9-1.2-1.6-.5-2.5s.6-1.5-.7-1.9a12.61,12.61,0,0,0-2.3-.8c-.3,0-2.6-.9-5.2-1.9-3-1.1-4.9-1.5-5.3-.8-.4.5-.1.8.5.7,1.5-.4,2.2,2.9.9,3.8-1.5.9-1,7.6.6,9.4,1.4,1.5,1.4,1.8,0,3s-2.1,3.5-.7,2.6c.5-.3,3.5.3,6.8,1.4C44,36.81,44.45,36.81,43.05,35.11ZM23,29.71a4,4,0,0,0-1.2-2c-.9-.9-.9-1.5,0-2.4,1.9-1.9,1.5-9.5-.5-10.3-1.7-.6-1.7-.7.1-2.1,1.1-.7,1.6-1.7,1.3-2.1-1-1-17.1-7.1-17.6-6.7-.2.2.1,1,.8,1.7.8,1.1.8,2.1-.4,4.3a25.32,25.32,0,0,0-1.5,9c0,5.5.2,6.2,2.3,6.9a8.54,8.54,0,0,0,2.9.6,15.12,15.12,0,0,1,3.5,1,23,23,0,0,0,5.2,1.5,6.33,6.33,0,0,1,2.9.8C21.55,30.81,23,30.61,23,29.71Z"/><path d="M77.75,50.11c-1.5-.8-2.9-1.2-3.1-1s-1.7-.1-3.3-.7a15,15,0,0,0-4.3-1.3c-1.8-.1-2.4-4.1-1-6.7.8-1.6,1.3-1.8,2.5-.8,1,.8,1.1,1.5.4,2.4s-.2,1.6,2.2,2.5c6,2.2,8.3,1.9,5.6-.8-1.3-1.3-1.4-1.3,2.4-1.6s6.6,2.7,4.8,4.9c-.7.8-.9,1.5-.5,1.5s.2.7-.5,1.5C81.45,51.81,81.15,51.81,77.75,50.11Z"/></g><g id="layer103"><path d="M148.85,82.81a4.85,4.85,0,0,1,0-1.7c.1-.5-.5-.4-1.3.3a3.84,3.84,0,0,1-3.2.7c-1.4-.5-1.3-1,.9-3.2,2.5-2.4,2.7-2.5,5.1-.9,2.1,1.4,2.4,2.1,1.5,3.6C150.85,83.51,149.05,84.21,148.85,82.81Z"/><path d="M135.15,81c-1.2-.9-1.9-2.2-1.6-3,.4-1,0-1.5-1.1-1.5-.9,0-1.3.5-1,1,.8,1.3-2,2.4-3.5,1.5-.7-.5-.8-1.1-.1-1.9a2.31,2.31,0,0,0,.2-2.4c-.6-1-1.1-.9-2.2.4-.8.9-1.3,2-1.1,2.3s-.4.6-1,.6c-.8,0-1.2-1.3-1.1-3.5.1-2.6-.1-3.1-.8-1.8s-1.6,1.4-3.7.8c-1.5-.4-2.6-1.1-2.5-1.7s-.8-1.5-2-2.3c-2-1.2-2.1-1.2-.9.3.9,1,1,1.7.2,2.2a1.08,1.08,0,0,0-.4,1.6,1,1,0,0,0,1.4.4,1.1,1.1,0,0,1,1.1,1.9,1.15,1.15,0,0,1-1.6-.3,1.48,1.48,0,0,0-2-.4,5.07,5.07,0,0,1-3.2-.2,7.22,7.22,0,0,0-3.5-.6,2.49,2.49,0,0,1-2.2-.8,1.67,1.67,0,0,0-2-.5,1.72,1.72,0,0,1-2-.4c-.3-.6-1.5-.8-2.5-.5a2.51,2.51,0,0,1-2.6-.6c-.9-1.5,2.4-2.6,3.7-1.3a2.5,2.5,0,0,0,2.3.6,1.5,1.5,0,0,1,1.9.5,1.63,1.63,0,0,0,2.1.4,3.34,3.34,0,0,1,2.9.6c.9.7,1.7.8,2,.3s-.1-1.3-1-1.6c-2.3-.9-.8-2.5,1.8-1.8,1.2.3,1.9.1,1.5-.4s.1-2,.8-3.4c1.2-2.3,1.1-2.8-1-5a11.55,11.55,0,0,1-2.7-5.1,9.51,9.51,0,0,0-1.7-4.2,2.77,2.77,0,0,1-.5-2.8c.5-.8.2-1-.8-.6-1.8.6-5.5-2.8-4-3.7.5-.3,1.5.1,2.2.9,1.8,2.2,2.7,1.9,4.4-1.7,1.5-3,1.5-3.3-.5-5.4-1.1-1.2-1.6-2.5-1.1-2.8s1.5.1,2.2.8c1,1.3,1.8,1.3,5.7.1,5-1.5,6.3-1.3,6.4,1.3,0,1.1.2,1.2.6.4A2.91,2.91,0,0,0,120,35c-2.2-2.7.1-3.8,2.7-1.3,1.5,1.4,2.3,1.7,2.1.9-.5-2.2,2.9-2.5,5.8-.6,2.4,1.6,2.5,3.9.1,2.9-.7-.2-1.3.6-1.3,2.1s.2,2.3.6,2c.8-.5,3.7,2.4,4,4a14,14,0,0,0,4.4,7.4c2.4,2.3,2.6,2.3,2.6.5a8.05,8.05,0,0,0-1.4-4c-1.2-1.7-1.2-2.3.2-4.1l1.7-2.2,7,3c3.9,1.6,8.4,3.6,10,4.3s5.5,2.4,8.5,3.7c6.5,2.6,8.8,4.5,9.4,7.9a8.73,8.73,0,0,0,.7,2.8,6.39,6.39,0,0,1,.4,1,37.36,37.36,0,0,0,1.4,3.6c.6,1.6.8,3.3.3,3.8s-8.7-1.9-18.3-5.2c-17.1-5.9-17.5-6.1-22.5-11.5a61,61,0,0,0-5.5-5.5c-.2,0-.5,1.3-.6,2.8s-.3,3.3-.4,3.8a41.73,41.73,0,0,0,0,5.2c.1,3.6.5,4.4,2.6,5.2,2.8,1.1,3.2,3.1.9,5.1-1.4,1.1-1.4,1.3.1,2.1.8.5,1.3,1.3,1,1.8s.4,1.4,1.5,2c1.5.8,2,.8,1.8-.2-.2-.6.5-1.2,1.5-1.3s1.7.3,1.7.8-.2.6-.4.5-1.5.7-2.8,1.9C137.55,82.31,137.15,82.31,135.15,81Zm-9.3-12.1c.5.4,1.1-.2,1.3-1.1.3-1.3-.6-2.1-2.7-2.9-2.5-.9-3.1-1.7-3.3-4.7-.4-4.5-1.6-4.7-3.7-.6-1.5,2.8-1.5,3.3,0,5.5.9,1.4,2.4,2.4,3.3,2.3,3.1-.3,3.5.1,2.1,1.9-1.3,1.5-1.2,1.6.3.4A2.85,2.85,0,0,1,125.85,68.91Zm49.9-3.1c-.6-.7-.7-1.3-.3-1.3s.1-.8-.7-1.7a17.12,17.12,0,0,1-2.2-3.3c-1.1-2.6.2,4.3,1.4,7.5.9,2.3,1.3,2.6,2,1.5A2.25,2.25,0,0,0,175.75,65.81Zm-6.3-3c-.8-2.7-1.5-5.1-1.5-5.4s-.6-.9-1.4-1.2c-1.2-.5-1.2.2.1,4.6,1.7,6,2.1,6.7,3.3,6.7C170.45,67.51,170.25,65.41,169.45,62.81Zm-6.3-3.3c-1-3.7-2.2-6-3-6-1.6,0-1.1,2.8,1.3,8.7C163.75,67.71,164.85,65.91,163.15,59.51Zm-6.8-1.7c-.7-3.2-1.3-6.1-1.4-6.4s-.8-.9-1.8-1.1c-1.8-.5-1.8-.2-.3,5.8.9,4,2,6.5,3,6.7a17,17,0,0,1,1.8.6S157.15,60.91,156.35,57.81Zm-6.5-1c-.6-2.1-1.3-4.5-1.6-5.3a6.81,6.81,0,0,1-.4-2.7c.1-.7-.2-1.3-.8-1.3a9.27,9.27,0,0,1-2.4-.6c-1.3-.5-1.4.1-.6,3.7a23.51,23.51,0,0,0,1.9,5.5,1.32,1.32,0,0,1,.3,1.8c-.8.8,1.5,2.6,3.4,2.6C150.45,60.51,150.55,59.51,149.85,56.81Zm-29.3-4.9a11.4,11.4,0,0,1-.6-3c0-.8-.4-1.3-.9-1.1s-.9-.2-1-.8a.85.85,0,0,1,.8-1,2.57,2.57,0,0,0,1.6-.7c.4-.3,2.2,0,4,.8,5.1,2.1,5.6,1.6,1-.8-5-2.7-6.1-2.9-7.5-1.3-1.9,2.3-2,5.8-.3,7.7C119.65,53.91,121.35,54.11,120.55,51.91Z"/><path d="M100.45,69.51c-.8-1.2,2-2.4,3.5-1.5a1.19,1.19,0,0,1,.5,1.6A2.6,2.6,0,0,1,100.45,69.51Z"/><path d="M92.45,67.61c-.8-1.4,3.3-3.4,5.3-2.6,1.5.6,1.5.8-.2,2.1C95.25,68.71,93.35,68.91,92.45,67.61Z"/><path d="M87.55,66.61a1.67,1.67,0,0,0-2-.5,1.6,1.6,0,0,1-2-.5,1.78,1.78,0,0,0-2.1-.5,3.34,3.34,0,0,1-2.6-.2,16.83,16.83,0,0,0-4.7-1c-2-.2-4-.8-4.5-1.3a2.47,2.47,0,0,0-2.2-.5c-1.6.7-2.9-1.2-1.5-2.1a2.25,2.25,0,0,1,2.1.1,16.83,16.83,0,0,0,4.7,1c1.8.2,4,.8,4.6,1.4s1.6.7,1.9.4,1.4-.3,2.4.1a13.84,13.84,0,0,0,2.8,1,11.7,11.7,0,0,1,2,.5c.6.1,1.5.3,2,.4a1.48,1.48,0,0,1,1.3,1.1C90.25,67.31,88.25,67.81,87.55,66.61Z"/><path d="M77,49.61c-9.1-2.6-29.5-8.5-45.5-13.1s-29.6-8.7-30.2-9.3c-3.3-2.5.7-2.2,10.9.8,7.9,2.4,11.6,3.1,12.5,2.3,1.3-1.1,3.6-.2,2.8,1.1-.5.9,16.5,6.2,17.6,5.5.9-.5,0-3.4-.9-3.1-.4.1-.7-.2-.7-.8a.81.81,0,0,1,1-.8c.7.2.8-2.2.4-7.5-.7-8.7-.5-9.6,2-8.2,1.3.6,1.7,1.7,1.3,3.5-.2,1.4-.1,2.5.4,2.3a.67.67,0,0,1,.9.7c0,.6-.3.9-.7.7-1-.3-.9,6.7.1,9.1.4,1,1,1.8,1.4,1.8s.6.2.5.7a.88.88,0,0,1-1,.5c-.3-.1-.9.4-1.2,1.2-.4,1.1,1,1.9,5.2,3.1,3.1.8,6.5,1.8,7.5,2,1.1.4,1.7,0,1.7-1s-.3-1.5-.7-1.3-.8-.2-.8-.8a.67.67,0,0,1,.9-.7c1.5.5-.5-9.2-2.2-10.4-1.4-1-1.3-1.2.3-2.2s1.5-1.2-2-2.7a53.9,53.9,0,0,0-5.3-2.1c-3.5-.7-4.5-1.5-3.4-2.6.8-.8,1.8-.7,3.6.6,1.5.9,2.6,1.4,2.6,1.2,0-.7,13.2,4.4,14.8,5.6.6.6,1.2.8,1.2.4,0-.6,12,3.7,14.3,5.1a9.27,9.27,0,0,0,3.2,1c2.9.5,3.5,1.4,5.1,8.4.8,3.5,1.9,6.8,2.3,7.2.9.9-1.5,6.8-2.7,6.6C93.75,54.41,86.05,52.21,77,49.61Zm14.8-6.4c-.9-6.2-1.6-8-3.5-9.2-1.3-.9-2.3-1.3-2.3-1s-1.2,0-2.6-.5l-2.6-1,.7,6.7c1,9.8,1.1,10.1,6.3,11.6a35,35,0,0,0,5,1.2A63.85,63.85,0,0,0,91.75,43.21ZM79,46c0-.8-.3-1.4-.7-1.2a.72.72,0,0,1-.9-.8c-.1-.5.1-.9.5-.8,1.3.3-.2-8.2-1.6-9-1.1-.7-1.2-1.2-.2-2.3.6-.8,1-1.6.8-1.7a42.48,42.48,0,0,0-6.4-2.7,24.57,24.57,0,0,1-3.2-1.1c-1.3-.5-2.3-.5-2.3,0s.8,1.2,1.7,1.5c1.2.5,1.4.9.5,1.8-1.7,1.7-1.5,8.3.3,9.8,1.2,1,1.3,1.6.4,2.6-1.3,1.5-1.3,1.5,6.1,3.8,2.5.8,4.6,1.4,4.8,1.5S79,46.81,79,46Z"/><path d="M25.85,21.31c-.1-.2-.2-1.9-.4-3.8a24.86,24.86,0,0,0-.9-5.2c-1.1-2.6,2.5-4.1,5.2-2.2,1.2.8,2.2,1.2,2.2.9s.9-.1,2,.5,1.8,1.6,1.4,2.1-1.4.5-2.7-.3c-3-1.9-5-1.7-5.3.5-.1,1,.3,1.6,1,1.5a.88.88,0,0,1,1.2.7c0,.6-.6.9-1.3.7s-1,.5-.8,1.7,0,2.3-.6,2.6S26,21.51,25.85,21.31Z"/><path d="M21.35,9.11a9.4,9.4,0,0,0-2.6-1.5c-.5,0-.8-.3-.8-.6s.6-.6,1.3-.4c.1,0,1,.2,2.1.4,2.4.5,4.1,2.1,2.9,2.8C23.65,10.21,22.45,9.81,21.35,9.11Z"/></g></g></g></svg>