<svg xmlns="http://www.w3.org/2000/svg" viewBox="0 0 90.34 80.17"><title>sentinel2</title><g id="Capa_2" data-name="Capa 2"><g id="Capa_1-2" data-name="Capa 1"><g id="layer102"><path d="M33.11,77.2c-2.1-2.1-3.7-4.8-3.7-6,0-1.5-.4-2-1.5-1.5-2.3.8-5.8-2.6-4.4-4.3s.2-13.1-1.7-15.8c-1.2-1.8-1.4-1.6-2,2.3-.4,2.3-1.1,4.4-1.5,4.7-1.5.9-2-2.1-1.1-6.2l.9-3.9-7.4-5.3c-4.9-3.5-7.3-4.7-6.9-3.5.3,1,1,4.3,1.6,7.2.8,4.5,1.7,6,4.8,8.5,7.2,5.9,11.5,10.3,10.6,10.8-.7.4-13.4-8.9-16.8-12.3C3.51,51.5.21,35.5,0,33c-.1-.8.4-1.5.9-1.5A28.33,28.33,0,0,0,6,29.2c2.3-1.1,4.4-1.9,4.7-1.6s2.2-.6,4.2-2.1,4.2-2.5,4.8-2.5,4.4,2.1,8.6,4.6,7.2,4.2,6.8,3.8-.2-1.4.5-2.1a10.49,10.49,0,0,0,1.3-4.6c0-1.8.5-3.3,1-3.4s1,.1,1,.6a1.64,1.64,0,0,0,2.5,1.6c.8-.5.6-1.2-.5-2.5-1.6-1.8-1.4-2,4.4-4.9,3.3-1.7,6.3-2.7,6.6-2.1s-.4,1.4-1.5,2-1.9,1.4-1.9,1.8c.3,1.9-.2,2.3-1.5,1.3-1.1-1-1.7-.6-2.9,1.7-1.4,2.8-1.3,3.3,1.6,8.3,1.7,3,3.7,5.8,4.4,6.2a1.58,1.58,0,0,1,.7,1.9c-.4.6-.3.8.3.5,1.8-1.1,4.2,2.6,4.5,7.1.1.8,1.8,2.4,3.8,3.7l3.7,2.3-.9,7.4c-.7,6.2-1.3,7.7-3.6,9.6-1.5,1.3-4.1,3.7-5.9,5.3-3,2.8-5.7,4-9.3,4.1a5.65,5.65,0,0,0-3,1.3C37.31,81,36.61,80.8,33.11,77.2ZM53.31,69c4.1-3.9,4.9-5.2,5.5-9.5.6-4.9.6-4.9-1.1-2.7a13.08,13.08,0,0,1-5,3.7c-2.5,1.1-3.3,2-3.5,4.2,0,1.5-.1,3.5-.2,4.3-.1,1.8-3,2-3.2.3-.1-.7-.2-2.5-.3-4-.1-2.2-1.4-3.6-5.6-6.5-2.9-2-5.6-3.4-5.8-3.2s-.3,2.6-.1,5.2c.5,5,2.2,9.4,3.5,8.6.4-.2,1.5.6,2.3,1.8s1.6,1.9,1.6,1.5.8-.3,1.8.2C46,74.6,48.21,73.8,53.31,69Zm5.1-17.1c0-.3-1.7-1.3-3.8-2.1-3.7-1.4-3.9-1.4-5.8.7-2.4,2.9-2.6,3.8-1.4,7l1,2.6,5-3.8A35.4,35.4,0,0,0,58.41,51.9Zm-14.7,4c-.6-2.2-7.1-7.1-8.5-6.3-1.6,1-.7,2.3,3.5,5.3C43.71,58.5,44.41,58.6,43.71,55.9Zm.7-6.9a2.65,2.65,0,0,1,1.3-.1c1.3.2.7-1.1-1-2.4-1.4-1.1-2-1-3,.4a6.16,6.16,0,0,0-1.3,2.3C40.41,49.7,42.71,49.6,44.41,49Zm-15.9-2.6c2.4-1.2,2.8-1.8,1.9-2.9-1.4-1.7-.3-3.8,1.6-3.1.8.3,1.4.1,1.4-.4,0-1.3-2.7-1.3-3.5,0a1.1,1.1,0,0,1-1.6.4c-.6-.4-.6-1.1.2-2,1.3-1.6-.3-4.4-2.5-4.4a2.76,2.76,0,0,1-2.6-4c.7-1.3.3-2-1.7-2.9-2.2-1-3.1-.8-6.9,1.4a47.16,47.16,0,0,1-5.1,2.7c-2.1.2-5.5,1.9-4.9,2.5A26.15,26.15,0,0,0,8.11,36c2.7,1.6,3,1.6,6.6-.7l3.9-2.4,4,2.6c4.4,2.9,4.1,4.3-1.3,6.5l-3,1.3,3.3,2.3C25.61,48.4,24.91,48.3,28.51,46.4Zm-7.7-6.6c2.6-1.1,2.6-1.1.5-2.6-1.7-1.2-2.5-1.2-5.1-.1-2.8,1.2-2.9,1.3-1.2,2.6C17.21,41.3,17.61,41.3,20.81,39.8Zm18.9-.3c1.8-1.3,1.7-1.4-1.1-2.9-3.6-1.8-4.3-1.3-2.8,1.9C37.11,41.4,37.31,41.4,39.71,39.5Z"/><path d="M13.31,51.4a4.29,4.29,0,0,1,0-1.6c0-.5-.3-.7-.8-.5s-.9-.2-1-.8a.85.85,0,0,1,.8-1,2.13,2.13,0,0,0,1.5-.7c.3-.5.3-.6-.1-.3-1,.7-3.4-1.6-2.7-2.7s5.4,3,5.4,4.8C16.41,50,13.51,52.6,13.31,51.4Z"/><path d="M70,34.1c-.4-.5.7-1.9,2.3-3s3.2-1.7,3.5-1.2-.7,1.9-2.3,3S70.31,34.6,70,34.1Z"/><path d="M87.21,22.4c-.4-.3-.3-1.7.2-3,.6-1.5.6-2.3-.1-2.1-1.4.3-8.2-12-7-12.7.5-.3,2.5,2.2,4.5,5.6s4.2,7.1,4.9,8c.9,1.4.9,2.1-.4,3.3C88.51,22.4,87.51,22.8,87.21,22.4Z"/><path d="M53.91,13c-.3-.5,4.7-3.6,11.3-6.9,9-4.5,12.2-5.7,13.5-4.9,2,1.1,1.3,3-.7,2.2-.8-.3-6.4,2-12.4,5S54.21,13.5,53.91,13Z"/></g><g id="layer103"><path d="M41.21,76.1c-2.5-3.6-7.1-6.5-10.2-6.6-2.4-.1-3.1-.6-3.2-2-.1-3.2.7-3.7,2.7-1.9a8.72,8.72,0,0,0,3.3,2c2.1.3,10.6,6.7,10.6,8C44.41,77.9,42.61,78.1,41.21,76.1Z"/><path d="M45.81,75.7c-.8-2.2.1-8.2,1.2-7.9.9.2,1,.6,1.3,3.7,0,.8.5,1.4,1,1.3,1.9-.6,1.5,1.5-.6,2.9S46.41,77.1,45.81,75.7Z"/><path d="M21,65c-3-2.7-3.5-3.8-3.8-8.3-.2-3.2-.8-5.2-1.5-5.3s-1.7-.2-2.3-.3c-1.4-.2-3.2-4.1-2.6-5.7.8-2.1,4.6.1,4.6,2.6s.8,2.5,3.2.3c1.7-1.5,2-1.5,4.2.6,1.3,1.2,3,1.9,3.8,1.6a1.76,1.76,0,0,1,2.3,2.5c-.5.8-1.1.7-2.1-.1-1.3-1.1-1.4-.3-.8,6.3C26.81,68.2,25.91,69.3,21,65Z"/><path d="M52.91,58.1c-.6-1.1,2.9-3.3,3.9-2.4.7.7-1.2,3.3-2.5,3.3A2.24,2.24,0,0,1,52.91,58.1Z"/><path d="M46,54.2a2.63,2.63,0,0,0-1.4-.7c-1.6,0-8.2-4.7-7.7-5.5a1.1,1.1,0,0,0-.5-1.5,1.28,1.28,0,0,1-.4-1.7c.4-.6-.1-.8-1.4-.4-2.6.9-3.9-1-1.5-2.1,3-1.4,5.8-.9,5.5.9a2,2,0,0,0,1.3,2.1,1.71,1.71,0,0,1,.9,2.1,1.78,1.78,0,0,0,.5,2.1c.7.4,1.1-.3,1.1-1.8s-.6-2.7-1.3-3a2.49,2.49,0,0,1-1.2-2.6c.2-2.8,1.3-3.7,2.1-1.7.3.9,1,1.6,1.4,1.6,1.3,0,.3-3.6-2.2-8.1l-2.2-4-1.7,2.2c-.9,1.2-2.1,1.9-2.8,1.5-1.2-.8-1.5.6-.4,1.8a3.55,3.55,0,0,1-1.2,5.8c-3.7,1.7-5.6-.4-3-3.2,1-1.1,1.5-2.3,1.2-2.6-.9-.9,1.2-4.6,2.2-4,1.2.8,4.2-2.9,3.9-4.5-.2-.8.3-1.3,1.1-1.1,1.2.3,1.2,0,.2-1.2a3.57,3.57,0,0,1-.8-3c.3-.7,9.6-5.9,20.6-11.5L78.31,0,81,4.7c1.5,2.7,4,7,5.7,9.8,2.1,3.5,2.7,5.3,2,6.4-1.5,2.3-37.4,27.1-38.4,26.5-.5-.3-.9-1.6-.9-3S49,42,48.51,42c-1.6,0-2.1,3.1-.7,5.1C49.81,50,48.11,56.4,46,54.2Z"/><path d="M58.51,51.1c-1.4-1.1-1.9-2.1-1.3-2.5s2,.2,3.3,1.2C63.41,52.2,61.61,53.4,58.51,51.1Z"/><path d="M13.71,40.6,11,38.2l3.4-2.1c4.4-2.6,4.8-2.6,8.5.3l2.9,2.4-3.4,2.1C18,43.6,17.11,43.5,13.71,40.6Z"/><path d="M8.91,30.1c-.7-1.2,3.5-4.2,4.7-3.5s.2,2.1-2.2,3.4C10.31,30.6,9.31,30.6,8.91,30.1Z"/></g></g></g></svg>