<?xml version="1.0" encoding="utf-8"?>
<!-- Generator: Adobe Illustrator 23.0.4, SVG Export Plug-In . SVG Version: 6.00 Build 0)  -->
<svg version="1.1" id="Capa_1" xmlns="http://www.w3.org/2000/svg" xmlns:xlink="http://www.w3.org/1999/xlink" x="0px" y="0px"
	 viewBox="0 0 2917 928.7" style="enable-background:new 0 0 2917 928.7;" xml:space="preserve">
<style type="text/css">
	.st0{fill:#FC637A;}
</style>
<title>logo_color_1</title>
<g>
	<g id="Capa_1-2">
		<g id="g5863">
			<path id="path3347" class="st0" d="M457.4,737c5.6,4.5,11.3,8.9,17.1,13.2l-8.2-31.1 M466.2,718.7l-140-507.5
				c-95.6,207.3-2.7,433.7,148.2,539.4"/>
			<path id="rect4157" class="st0" d="M189.2,422.8l60.9-16.8c0.7-0.2,1.5,0.2,1.7,1l59.5,215.6c0.2,0.7-0.2,1.5-1,1.7l-60.9,16.8
				c-0.7,0.2-1.5-0.2-1.7-1l-59.5-215.6C188.1,423.7,188.5,423,189.2,422.8z"/>
		</g>
		<polygon class="st0" points="530.5,448.5 404.6,392.6 449.4,559.8 		"/>
		<path class="st0" d="M802.5,489.8c0,50,33.5,77.8,73.4,77.8c37.3,0,58.2-23.4,65.2-46.8l84.8,25.9
			c-13.9,55-65.8,109.5-149.9,109.5c-93.6,0-168.9-69-168.9-166.4c0-98.1,73.4-167,165.7-167c86.7,0,137.3,53.1,151.2,109.4
			l-86,25.9c-7-24-25.9-46.8-63.3-46.8C834.8,411.4,802.5,439.2,802.5,489.8z"/>
		<path class="st0" d="M1392.7,489.2c0,97.4-72.7,167-167,167c-93.6,0-167-69.6-167-167s73.4-166.4,167-166.4
			C1319.9,322.8,1392.7,391.7,1392.7,489.2z M1296.5,489.2c0-53.1-34.2-77.8-70.8-77.8c-36,0-70.8,24.7-70.8,77.8
			c0,52.5,34.8,78.4,70.8,78.4C1262.4,567.6,1296.5,542.3,1296.5,489.2z"/>
		<path class="st0" d="M1765.9,489.2c0,97.4-72.7,167-167,167c-93.6,0-167-69.6-167-167s73.4-166.4,167-166.4
			C1693.1,322.8,1765.9,391.7,1765.9,489.2z M1669.7,489.2c0-53.1-34.2-77.8-70.8-77.8c-36.1,0-70.8,24.7-70.8,77.8
			c0,52.5,34.8,78.4,70.8,78.4C1635.6,567.6,1669.7,542.3,1669.7,489.2z"/>
		<path class="st0" d="M1827.9,766.8V332.3h93v32.3c13.3-20.2,47.4-39.8,92.3-39.8c91.1,0,146.1,69.6,146.1,163.8
			c0,96.1-62,165.1-149.9,165.1c-40.5,0-70.8-13.9-85.4-31.6v144.9H1827.9z M1993.6,411.4c-37.3,0-70.8,25.3-70.8,77.8
			c0,51.9,33.5,78.4,70.8,78.4c37.9,0,71.5-25.9,71.5-78.4S2031.5,411.4,1993.6,411.4L1993.6,411.4z"/>
		<path class="st0" d="M2507.2,556.2c-15.2,54.4-65.1,99.9-144.9,99.9c-86.7,0-163.8-62-163.8-167.6c0-101.2,75.3-165.7,156.9-165.7
			c97.4,0,157.5,60.1,157.5,161.3c0,13.3-1.3,27.8-1.9,29.7h-218.9c1.9,35.4,34.1,60.7,71.5,60.7c34.8,0,54.4-16.5,63.2-41.1
			L2507.2,556.2z M2419.9,451.8c-1.3-24-17.7-53.1-63.2-53.1c-40.5,0-60.7,29.7-62.6,53.1H2419.9z"/>
		<path class="st0" d="M2774.8,427.2c-10-2.2-20.2-3.3-30.4-3.2c-38.6,0-73.4,22.8-73.4,85.4v137.2h-96.1V332.3h93v42.4
			c16.4-35.4,56.3-45.5,81.6-45.5c9.5,0,19,1.3,25.3,3.2L2774.8,427.2z"/>
	</g>
</g>
</svg>
