<svg xmlns="http://www.w3.org/2000/svg" viewBox="0 0 3694.95 1265.85"><defs><style>.cls-1{fill:#028090;}.cls-2,.cls-3{fill:none;stroke:#028090;stroke-linecap:round;stroke-width:92px;}.cls-2{stroke-linejoin:round;}.cls-4{fill:#00a896;}</style></defs><title>logo_4_1</title><g id="Capa_2" data-name="Capa 2"><g id="Capa_1-2" data-name="Capa 1"><path class="cls-1" d="M2111.86,1265.85V539.33h155.45v53.94c22.21-33.84,79.32-66.63,154.4-66.63C2574,526.64,2666,643,2666,800.54c0,160.75-103.64,276-250.63,276-67.68,0-118.45-23.27-142.77-52.88v242.17Zm277.07-594.33c-62.4,0-118.44,42.31-118.44,130.08,0,86.72,56,131.13,118.44,131.13,63.45,0,119.5-43.36,119.5-131.13S2452.38,671.52,2388.93,671.52Z"/><path class="cls-1" d="M3247.63,913.7c-25.38,90.94-108.92,167.09-242.17,167.09-144.88,0-273.9-103.64-273.9-280.25,0-169.2,125.84-277.07,262.27-277.07,162.85,0,263.32,100.47,263.32,269.67,0,22.21-2.12,46.53-3.17,49.7H2888.07c3.17,59.22,57.11,101.53,119.5,101.53,58.17,0,90.95-27.5,105.76-68.74ZM3101.69,739.21c-2.11-40.19-29.61-88.84-105.75-88.84-67.68,0-101.52,49.71-104.7,88.84Z"/><path class="cls-1" d="M3695,698c-18-4.23-34.9-5.29-50.76-5.29-64.51,0-122.67,38.08-122.67,142.77v229.48H3360.77V539.33h155.46v70.86c27.5-59.22,94.12-76.14,136.42-76.14,15.86,0,31.73,2.11,42.3,5.28Z"/><g id="g5863"><path id="path3347" class="cls-2" d="M457.61,1082.5q12.11,16.61,25.06,32.84l.33-61.5m0-.73L475.69,46c-279.18,335.72-219.78,800.06,6.76,1070"/><rect id="rect4157" class="cls-3" x="47.55" y="367.95" width="126.18" height="433.23" rx="2.69" transform="translate(-4.23 0.82) rotate(-0.42)"/><path id="path4200" class="cls-3" d="M763.37,575.38l-283.32,3.37"/><path id="path4207" class="cls-3" d="M763,575.37,478.73,396.16m284.55,179.2L691.7,547.83"/><path id="path4209" class="cls-3" d="M763.34,575.4,481.48,776.26"/></g><path class="cls-1" d="M1772.27,521.74c103.76,192.39,33.44,432.44-157.72,538.44a282.44,282.44,0,1,0,157.72-538.44Z"/><path class="cls-1" d="M1772.27,521.74c-141.33-24.2-278.38,61.36-318.68,199a282.4,282.4,0,0,0,161,339.47C1805.71,954.18,1876,714.13,1772.27,521.74Z"/><path class="cls-4" d="M1765,589.41c-14.22,18.88-30.16,14.5-38.06,31.92-9.76,21.54,1.24,57.5,28.84,73,19.49,10.92,40.43,4.89,64-2a397.65,397.65,0,0,0-41.54-159.21A80.25,80.25,0,0,1,1765,589.41Z"/><path class="cls-4" d="M1776.13,522.39a74.56,74.56,0,0,1,2,10.77,397.66,397.66,0,0,1,41.55,159.21l1.33-.4c32.83-9.62,36.76-29.43,68.38-37.39a118.93,118.93,0,0,1,43.53-1.6,90.54,90.54,0,0,1,45.77,23.7c-2-4-3.92-8.09-6.11-12.08A281.86,281.86,0,0,0,1776.13,522.39Z"/><path class="cls-4" d="M1772.29,907.37c27.16,9.47,48.9,38.66,45.94,63.7-2.38,20.41-19.42,23.17-20.16,44.34a51.34,51.34,0,0,0,23.37,42.73,43.42,43.42,0,0,0,8.38,4.18A285.79,285.79,0,0,0,1860.3,1048a282.39,282.39,0,0,0,147-247.12c-21.23-1.9-53-2.38-77.26,9.15a119.7,119.7,0,0,0-59,54.49c-15.12,32.25-5.77,61.11-19.36,66.1-9.59,3.58-22.32-8.12-31.12-16.29-20.08-18.6-24.37-36.27-31.43-49a397.73,397.73,0,0,1-20,41.06C1770.45,906.76,1771.59,907.13,1772.29,907.37Z"/><path class="cls-4" d="M1774.56,850.62c-15.53-7.49-33.2-.83-52.08,6.28-39.55,15-45.35,38.68-68.37,37.39a46.29,46.29,0,0,1-40.47-33.39c-4.54-25.38,30.79-35.26,53.55-84.8,7.4-15.92,24.87-54,10-83.19-14.52-28.59-46.35-21.62-71.58-49.68-10.9-12.07-22.18-47.37-23.43-86.78a282.44,282.44,0,0,0-139.68,256.49l0,.07a286.92,286.92,0,0,0,50.62,91.56c24,31.59,45.94,60.26,85.6,75.32,17.42,6.68,44.12,16.73,70,6.14,28.64-11.78,54.84-48.53,59-54.48a60.07,60.07,0,0,1,21-22.57,55.56,55.56,0,0,1,40.34-2.6,397.73,397.73,0,0,0,20-41.06A32.32,32.32,0,0,0,1774.56,850.62Z"/><path class="cls-1" d="M1376.86,732.25C1242.09,904.34,994,936,820.31,803.25a282.44,282.44,0,1,0,556.55-71Z"/><path class="cls-1" d="M1376.86,732.25C1342.47,593,1209.2,501.71,1067,519.85a282.42,282.42,0,0,0-246.65,283.4C994,936,1242.09,904.34,1376.86,732.25Z"/><path class="cls-4" d="M1023.48,886.63c2.2,28.68-15.85,60.28-40,67.6-19.65,6-29-8.52-48.7-.73A51.38,51.38,0,0,0,905,992a43.65,43.65,0,0,0-.47,9.35,287.17,287.17,0,0,0,25.33,22.2,282.4,282.4,0,0,0,285.29,35.75c-6.76-20.22-19.05-49.56-39.31-67.13a119.62,119.62,0,0,0-73.56-32.28c-35.6-.94-58.31,19.17-68.33,8.71-7.12-7.35-1.49-23.69,2.48-35,9-25.85,23.47-36.85,32.32-48.41a399.19,399.19,0,0,1-45.62-1.88C1023.31,884.7,1023.43,885.89,1023.48,886.63Z"/><path class="cls-4" d="M1076.4,866c.65-17.23-12.53-30.76-26.6-45.21-29.55-30.26-53.6-26.08-61.63-47.69a46.25,46.25,0,0,1,14.39-50.44c21.44-14.33,44.64,14.09,99.15,15.12,17.55.41,59.44,1.17,80.25-24.12,20.38-24.75,1.25-51.13,16.87-85.48,6.7-14.82,34.52-39.29,70.14-56.21a282.41,282.41,0,0,0-291-25.33l-.06.07a287,287,0,0,0-63.63,83C895,664.43,877.5,696,879.57,738.33c.86,18.65,2.33,47.14,22.39,66.59,22.26,21.53,66.42,30.83,73.55,32.28a60.14,60.14,0,0,1,29.08,10.18,55.56,55.56,0,0,1,18.53,35.92,399.19,399.19,0,0,0,45.62,1.88A32.4,32.4,0,0,0,1076.4,866Z"/></g></g></svg>