<?xml version="1.0" encoding="utf-8"?>
<!-- Generator: Adobe Illustrator 23.0.4, SVG Export Plug-In . SVG Version: 6.00 Build 0)  -->
<svg version="1.1" id="Capa_1" xmlns="http://www.w3.org/2000/svg" xmlns:xlink="http://www.w3.org/1999/xlink" x="0px" y="0px"
	 viewBox="0 0 464 464" style="enable-background:new 0 0 464 464;" xml:space="preserve">
<style type="text/css">
	.st0{fill:#BDBDBD;}
	.st1{fill:#E5E5E5;}
	.st2{fill:#989898;}
</style>
<path class="st0" d="M296,227.6c0.8-17.2-5.7-34-17.9-46.1c-12.2-12.2-28.9-18.7-46.1-17.9c-40,0-64,8-64,64
	c1.2-17.2,14.8-30.8,32-32c17.2,1.2,30.8,14.8,32,32c0.5,8.6-2.7,17.1-8.8,23.2s-14.5,9.3-23.2,8.8h96V227.6z"/>
<path class="st1" d="M359.9,163.6v96H200c39.8,0,72-32.2,72-72s-32.2-72-72-72c-39.7,0.1-71.9,32.3-72,72c0,0-64-96,32-136
	C276.1,3.2,359.9,75.6,359.9,163.6z"/>
<path class="st0" d="M281.9,91.8l-3.8,15.5c-50.9-12.7-87.1-9.4-107.7,10c-2.7,2.5-5.1,5.4-7.2,8.5c-11.8,6.9-21.3,17.1-27.4,29.4
	c1.8-18.7,10.2-36.2,23.5-49.4C184.1,82.4,225.3,77.7,281.9,91.8z"/>
<path class="st0" d="M291.5,114.2l8.9-13.3l24,16l-8.9,13.3L291.5,114.2z"/>
<path class="st2" d="M399.9,163.6c-40,0-64,8-64,64c1.2-17.2,14.8-30.8,32-32c17.2,1.2,30.8,14.8,32,32c0.5,8.6-2.7,17.1-8.8,23.2
	c-6.1,6.1-14.5,9.3-23.2,8.8H0v168h463.9v-200c0.8-17.2-5.7-34-17.9-46.1C433.9,169.3,417.1,162.8,399.9,163.6z"/>
<path class="st0" d="M463.9,291.6c-29,0-27,40-56,40s-27-40-56-40s-35,40-64,40s-27-40-56-40s-27,40-56,40s-27-40-56-40
	s-35,40-64,40s-27-40-56-40v136h463.9V291.6z"/>
<g>
	<path class="st1" d="M463.9,355.5c-29,0-27,40-56,40s-27-40-56-40s-35,40-64,40s-27-40-56-40s-27,40-56,40s-27-40-56-40
		s-35,40-64,40s-27-40-56-40v72h463.9V355.5z"/>
	<path class="st1" d="M423.9,67.6c0,8.8-7.2,16-16,16c-8.8,0-16-7.2-16-16s7.2-16,16-16C416.8,51.6,423.9,58.8,423.9,67.6z"/>
	<path class="st1" d="M80,211.6c0,8.8-7.2,16-16,16s-16-7.2-16-16s7.2-16,16-16S80,202.7,80,211.6z"/>
</g>
</svg>
