<?xml version="1.0" encoding="utf-8"?>
<!-- Generator: Adobe Illustrator 23.0.4, SVG Export Plug-In . SVG Version: 6.00 Build 0)  -->
<svg version="1.1" id="Capa_1" xmlns="http://www.w3.org/2000/svg" xmlns:xlink="http://www.w3.org/1999/xlink" x="0px" y="0px"
	 viewBox="0 0 512 512" style="enable-background:new 0 0 512 512;" xml:space="preserve">
<style type="text/css">
	.st0{fill:#BDC3C7;}
	.st1{fill:#95A5A5;}
	.st2{fill:#ECF0F1;}
	.st3{fill:#7F8C8D;}
	.st4{fill:#547580;}
	.st5{fill:#3F5C6C;}
	.st6{fill:#D1D4D1;}
	.st7{fill:#FFFFFF;}
	.st8{fill:#FFDA29;}
</style>
<g>
	<path id="Shape" class="st0" d="M456.2,436.8c-2.6-19.9-15.9-36.9-34.6-44.3c0.7,0,0.4,5,0.4-45.5c0-22.9-18.6-41.5-41.5-41.5
		c12-35.5,8.3-74.4-10.3-106.9s-50.2-55.5-86.9-63.1c-2.3-13.2-13.8-22.9-27.2-22.9s-24.9,9.7-27.2,22.9
		c-36.6,7.6-68.3,30.6-86.9,63.1s-22.4,71.4-10.4,106.8c-22.9,0-41.5,18.6-41.5,41.5c0,49.2,0,45.5,0.4,45.5
		c-18.7,7.4-32,24.3-34.6,44.3c-0.4,4.7-0.4,0.6-0.4,76.2h401.1C456.6,437.6,456.6,441.3,456.2,436.8L456.2,436.8z"/>
	<path class="st1" d="M117.7,392.4v-45.5c0-22.9,15.5-41.5,34.6-41.5h207.5c19.1,0,34.6,18.6,34.6,41.5v45.5H117.7z"/>
	<path class="st2" d="M133.7,388.3v124.5H69.3c0-74.2,0-71.3,0.4-76.1c2.3-26.8,24.3-47.6,51.1-48.4H133.7z"/>
	<path class="st2" d="M442.7,443.7v69.2h-64.4V388.3h12.9C420.7,389.4,443.7,414.2,442.7,443.7z"/>
	<g>
		<path class="st1" d="M90,429.8c0,3.8-3.1,6.9-6.9,6.9c-27.7,0-25.9,0-27.2,0c0.6-4.7,1.8-9.4,3.6-13.8h23.7
			C86.9,422.9,90,426,90,429.8z"/>
		<path class="st1" d="M124.6,436.8h-13.8c-3.8,0-6.9-3.1-6.9-6.9s3.1-6.9,6.9-6.9h13.8c3.8,0,6.9,3.1,6.9,6.9
			S128.4,436.8,124.6,436.8z"/>
		<path class="st1" d="M124.6,464.4h-13.8c-3.8,0-6.9-3.1-6.9-6.9s3.1-6.9,6.9-6.9h13.8c3.8,0,6.9,3.1,6.9,6.9
			S128.4,464.4,124.6,464.4z"/>
		<path class="st1" d="M90,457.5c0,3.8-3.1,6.9-6.9,6.9H55.4v-13.8h27.7C86.9,450.6,90,453.7,90,457.5z"/>
		<path class="st1" d="M90,485.2c0,3.8-3.1,6.9-6.9,6.9H55.4v-13.8h27.7C86.9,478.3,90,481.3,90,485.2z"/>
		<path class="st1" d="M124.6,492.1h-13.8c-3.8,0-6.9-3.1-6.9-6.9s3.1-6.9,6.9-6.9h13.8c3.8,0,6.9,3.1,6.9,6.9
			S128.4,492.1,124.6,492.1z"/>
		<path class="st1" d="M456.2,436.8c-1.3,0-1.3,0-27.2,0c-3.8,0-6.9-3.1-6.9-6.9s3.1-6.9,6.9-6.9h23.7
			C454.3,427.4,455.5,432,456.2,436.8z"/>
		<path class="st1" d="M401.2,436.8h-13.8c-3.8,0-6.9-3.1-6.9-6.9s3.1-6.9,6.9-6.9h13.8c3.8,0,6.9,3.1,6.9,6.9
			S405.1,436.8,401.2,436.8z"/>
		<path class="st1" d="M401.2,464.4h-13.8c-3.8,0-6.9-3.1-6.9-6.9s3.1-6.9,6.9-6.9h13.8c3.8,0,6.9,3.1,6.9,6.9
			S405.1,464.4,401.2,464.4z"/>
		<path class="st1" d="M456.6,450.6v13.8h-27.7c-3.8,0-6.9-3.1-6.9-6.9s3.1-6.9,6.9-6.9H456.6z"/>
		<path class="st1" d="M456.6,478.3v13.8h-27.7c-3.8,0-6.9-3.1-6.9-6.9s3.1-6.9,6.9-6.9H456.6z"/>
		<path class="st1" d="M401.2,492.1h-13.8c-3.8,0-6.9-3.1-6.9-6.9s3.1-6.9,6.9-6.9h13.8c3.8,0,6.9,3.1,6.9,6.9
			S405.1,492.1,401.2,492.1z"/>
	</g>
	<path class="st3" d="M283.7,142.5v-3.2c0-15.3-12.4-27.7-27.7-27.7s-27.7,12.4-27.7,27.7v3.2H283.7z"/>
	<path class="st4" d="M336.5,169c-56.9,16.2-162.5,57-195.2,143.3c-22.3-53.1-5.3-114.5,41.1-148.6S292.5,131.8,336.5,169z"/>
	<path class="st5" d="M334.2,360.7H177.8c-15.9-12.9-28.4-29.6-36.4-48.4C174,225.8,279.7,185,336.6,168.8
		c28.3,24,44.5,59.4,44,96.5S363.1,337.4,334.2,360.7L334.2,360.7z"/>
	<path class="st6" d="M334.2,367.6c-2.9,0-5.6-1.8-6.5-4.6c-1-2.8-0.1-5.9,2.2-7.7c42.5-34.4,55.6-93.5,31.8-142.7
		c-23.8-49.2-78.4-75.4-131.7-63.4c-96.8,21.9-123.3,145.2-47.8,206c3,2.4,3.4,6.8,1,9.8s-6.8,3.4-9.8,1
		c-84.2-68.1-54.8-206,53.4-230.3c59.6-13.5,120.7,15.8,147.3,70.8S386,327.6,338.5,366C337.3,367.1,335.8,367.6,334.2,367.6
		L334.2,367.6z"/>
	<path class="st0" d="M145.3,360.7h221.3c11.5,0,20.7,9.3,20.7,20.7v131.4H124.6V381.4C124.6,370,133.9,360.7,145.3,360.7z"/>
	<path class="st2" d="M159.2,360.7h193.7c11.5,0,20.7,9.3,20.7,20.7v131.4H138.4V381.4C138.4,370,147.7,360.7,159.2,360.7z"/>
	<path class="st7" d="M173,402.2h83c7.6,0,13.8,6.2,13.8,13.8v96.8H159.2V416C159.2,408.4,165.4,402.2,173,402.2z"/>
	<path class="st3" d="M235.3,450.6h-41.5c-3.8,0-6.9-3.1-6.9-6.9s3.1-6.9,6.9-6.9h41.5c3.8,0,6.9,3.1,6.9,6.9
		S239.1,450.6,235.3,450.6z"/>
	<path class="st3" d="M235.3,485.2h-41.5c-3.8,0-6.9-3.1-6.9-6.9s3.1-6.9,6.9-6.9h41.5c3.8,0,6.9,3.1,6.9,6.9
		S239.1,485.2,235.3,485.2z"/>
	<circle id="Oval" class="st8" cx="325.2" cy="450.6" r="20.7"/>
	<path class="st7" d="M173,222.3c-2.8,0-5.4-1.7-6.4-4.3c-1.1-2.6-0.5-5.6,1.5-7.6l20.7-20.7c1.8-1.8,4.3-2.4,6.7-1.8
		s4.3,2.5,4.9,4.9s0,5-1.8,6.7l-20.7,20.7C176.6,221.6,174.8,222.4,173,222.3L173,222.3z"/>
	<path class="st7" d="M166.1,277.7c-2.8,0-5.4-1.7-6.4-4.3c-1.1-2.6-0.5-5.6,1.5-7.6l83-83c2.7-2.7,7.1-2.7,9.8,0s2.7,7.1,0,9.8
		l-83,83C169.7,277,167.9,277.7,166.1,277.7L166.1,277.7z"/>
</g>
</svg>
