<?xml version="1.0" encoding="utf-8"?>
<!-- Generator: Adobe Illustrator 23.0.4, SVG Export Plug-In . SVG Version: 6.00 Build 0)  -->
<svg version="1.1" id="Capa_1" xmlns="http://www.w3.org/2000/svg" xmlns:xlink="http://www.w3.org/1999/xlink" x="0px" y="0px"
	 viewBox="0 0 512 512" style="enable-background:new 0 0 512 512;" xml:space="preserve">
<style type="text/css">
	.st0{fill:#333333;}
	.st1{fill:#FF6F61;}
	.st2{fill:none;stroke:#333333;stroke-width:6;stroke-miterlimit:10;}
</style>
<g>
	<g id="XMLID_1_">
		<g>
			<path class="st0" d="M121.8,111.3c5.2,0.7,8.9,5.4,8.3,10.6c-0.7,5.2-5.4,8.9-10.6,8.2c-5.2-0.6-8.9-5.4-8.2-10.6
				C111.9,114.4,116.6,110.7,121.8,111.3z"/>
			<path class="st0" d="M400.8,181.4c0,21.7-13.1,40.3-31.8,48.3c-6.4,2.8-13.4,4.3-20.8,4.3c-29.1,0-52.6-23.6-52.6-52.6
				c0-8,1.8-15.5,5-22.3c8.4-17.9,26.6-30.3,47.7-30.3C377.3,128.8,400.8,152.4,400.8,181.4z"/>
			<path class="st1" d="M130.9,310.1c-3.2-11.1-5-22.9-5-35.1c0-69.4,56.3-125.7,125.7-125.7c17.3,0,33.8,3.5,48.8,9.8
				c-3.2,6.8-5,14.3-5,22.3c0,29.1,23.6,52.6,52.6,52.6c7.4,0,14.4-1.5,20.8-4.3c5.4,14,8.4,29.3,8.4,45.2
				c0,69.4-56.3,125.7-125.7,125.7C194.5,400.7,146.1,362.5,130.9,310.1z M269.3,226.8c0-2.4-2-4.4-4.4-4.4s-4.4,2-4.4,4.4
				s2,4.4,4.4,4.4C267.3,231.1,269.3,229.2,269.3,226.8z"/>
			<path d="M264.9,222.4c2.4,0,4.4,2,4.4,4.4s-2,4.4-4.4,4.4s-4.4-2-4.4-4.4S262.5,222.4,264.9,222.4z"/>
		</g>
		<g>
			<path class="st2" d="M300.5,159.1c-15-6.3-31.5-9.8-48.8-9.8C182.3,149.3,126,205.6,126,275c0,12.2,1.7,24,5,35.1
				c15.2,52.4,63.5,90.6,120.8,90.6c69.4,0,125.7-56.3,125.7-125.7c0-15.9-3-31.2-8.4-45.2"/>
			<path class="st2" d="M369,229.8c18.7-8.1,31.8-26.7,31.8-48.3c0-29.1-23.6-52.6-52.6-52.6c-21.1,0-39.3,12.4-47.7,30.3"/>
			<path class="st2" d="M300.5,159.1c-3.2,6.8-5,14.3-5,22.3c0,29.1,23.6,52.6,52.6,52.6c7.4,0,14.4-1.5,20.8-4.3"/>
			<line class="st2" x1="164" y1="187.3" x2="234.2" y2="187.3"/>
			<line class="st2" x1="137.7" y1="226.8" x2="251.7" y2="226.8"/>
			<line class="st2" x1="128.9" y1="266.2" x2="164" y2="266.2"/>
			<polyline class="st2" points="128.9,310.1 130.9,310.1 242.9,310.1 			"/>
			<line class="st2" x1="181.6" y1="266.2" x2="330.7" y2="266.2"/>
			<line class="st2" x1="199.1" y1="354" x2="348.2" y2="354"/>
			<path class="st2" d="M119.5,130.2c-5.2-0.6-8.9-5.4-8.2-10.6c0.7-5.2,5.4-8.9,10.6-8.2c5.2,0.7,8.9,5.4,8.3,10.6
				C129.4,127.2,124.7,130.9,119.5,130.2z"/>
			<polyline class="st2" points="170.2,131.4 166.1,135.5 164,137.6 161.9,139.6 157.8,143.8 			"/>
			<polyline class="st2" points="170.2,143.8 166.1,139.6 164,137.6 161.9,135.5 157.8,131.4 			"/>
			<path class="st2" d="M161.9,135.5c1.1-1.1,3-1.1,4.1,0s1.1,3,0,4.1s-3,1.1-4.1,0C160.8,138.5,160.8,136.7,161.9,135.5z"/>
		</g>
	</g>
</g>
</svg>
