<?xml version="1.0" encoding="utf-8"?>
<!-- Generator: Adobe Illustrator 23.0.4, SVG Export Plug-In . SVG Version: 6.00 Build 0)  -->
<svg version="1.1" id="Capa_1" xmlns="http://www.w3.org/2000/svg" xmlns:xlink="http://www.w3.org/1999/xlink" x="0px" y="0px"
	 viewBox="0 0 512 512" style="enable-background:new 0 0 512 512;" xml:space="preserve">
<style type="text/css">
	.st0{fill:#FFDA29;}
	.st1{fill:#447E88;}
	.st2{fill:#ECF0F1;}
	.st3{fill:#BDC3C7;}
	.st4{fill:none;stroke:#000000;stroke-width:6;stroke-miterlimit:10;}
</style>
<g>
	<g>
		<g id="XMLID_1_">
			<g>
				
					<rect x="209" y="279.4" transform="matrix(0.699 -0.7152 0.7152 0.699 -147.3381 245.7358)" class="st0" width="18.5" height="37.1"/>
				<circle class="st1" cx="385.2" cy="129.6" r="25.5"/>
				<path class="st0" d="M312,201.6c6.5,6.2,6.7,16.5,0.5,22.9c-6.2,6.5-16.5,6.7-22.9,0.5c-6.5-6.2-6.7-16.5-0.5-22.9
					C295.2,195.7,305.5,195.4,312,201.6z"/>
				<polygon class="st2" points="382.7,329.1 330.9,382.1 330.9,382.1 304.4,356.2 304.4,356.2 356.2,303.2 				"/>
				<polygon class="st2" points="183.9,134.9 210.4,160.8 158.6,213.8 158.6,213.9 132.1,188 132.1,187.9 				"/>
				<polygon class="st3" points="409.1,354.9 357.3,407.9 330.9,382.1 330.9,382.1 382.7,329.1 				"/>
				<polygon class="st3" points="287.6,320.2 319.8,287.2 329.5,277.2 356.2,303.2 304.4,356.2 304.4,356.2 277.8,330.2 				"/>
				<polygon class="st3" points="183.9,134.9 132.1,187.9 132.1,188 105.6,162.1 157.4,109.1 				"/>
				<polygon class="st3" points="227.1,196.7 194.9,229.7 185.1,239.7 158.6,213.9 158.6,213.8 210.4,160.8 236.9,186.7 				"/>
				<polygon class="st2" points="233.8,228.2 261.2,200.1 314.9,252.6 287.1,281.1 280.7,287.7 252.9,316.1 199.2,263.6 
					226.5,235.6 				"/>
			</g>
			<g>
				<polygon class="st4" points="280.7,287.7 252.9,316.1 199.2,263.6 226.5,235.6 233.8,228.2 261.2,200.1 314.9,252.6 
					287.1,281.1 				"/>
				
					<rect x="209" y="279.4" transform="matrix(0.6988 -0.7153 0.7153 0.6988 -147.3481 245.8063)" class="st4" width="18.5" height="37.1"/>
				<line class="st4" x1="166" y1="285.8" x2="232.3" y2="350.5"/>
				<path class="st4" d="M312,201.6c6.5,6.2,6.7,16.5,0.5,22.9c-6.2,6.5-16.5,6.7-22.9,0.5c-6.5-6.2-6.7-16.5-0.5-22.9
					C295.2,195.7,305.5,195.4,312,201.6z"/>
				<polygon class="st4" points="319.8,287.2 329.5,277.2 356.2,303.2 382.7,329.1 409.1,354.9 357.3,407.9 330.9,382.1 
					304.4,356.2 277.8,330.2 287.6,320.2 				"/>
				<polyline class="st4" points="330.9,382.1 382.7,329.1 382.7,329 				"/>
				<polyline class="st4" points="304.4,356.2 356.2,303.2 356.2,303.2 				"/>
				<polyline class="st4" points="320,287.2 319.8,287.2 287.1,281.1 				"/>
				<polyline class="st4" points="287.6,320.4 287.6,320.2 280.7,287.7 				"/>
				<polygon class="st4" points="227.1,196.7 236.9,186.7 210.4,160.8 183.9,134.9 157.4,109.1 105.6,162.1 132.1,188 158.6,213.9 
					185.1,239.7 194.9,229.7 				"/>
				<polyline class="st4" points="132.1,187.9 183.9,134.9 183.9,134.9 				"/>
				<polyline class="st4" points="158.6,213.8 210.4,160.8 210.4,160.8 				"/>
				<polyline class="st4" points="227.1,196.5 227.1,196.7 233.8,228.2 234,229.2 				"/>
				<polyline class="st4" points="194.7,229.7 194.9,229.7 226.5,235.6 227.6,235.8 				"/>
				<path class="st4" d="M197.4,359.7c-8.9-3.3-17.2-8.4-24.4-15.5c-6.9-6.8-12.1-14.6-15.6-23"/>
				<path class="st4" d="M202,394.7c-17.8-6.5-34.5-16.9-48.9-30.9c-13.9-13.5-24.3-29.2-31.3-46.1"/>
				<circle class="st4" cx="385.2" cy="129.6" r="25.5"/>
				<polyline class="st4" points="341.2,156.6 341.2,162.8 341.2,165.9 341.2,168.9 341.2,175.1 				"/>
				<polyline class="st4" points="350.5,165.9 344.3,165.9 341.2,165.9 338.1,165.9 331.9,165.9 				"/>
				<path class="st4" d="M338.1,165.9c0-1.7,1.4-3.1,3.1-3.1c1.7,0,3.1,1.4,3.1,3.1c0,1.7-1.4,3.1-3.1,3.1
					C339.5,168.9,338.1,167.6,338.1,165.9z"/>
			</g>
		</g>
	</g>
</g>
</svg>
