<?xml version="1.0" encoding="utf-8"?>
<!-- Generator: Adobe Illustrator 23.0.4, SVG Export Plug-In . SVG Version: 6.00 Build 0)  -->
<svg version="1.1" id="Capa_1" xmlns="http://www.w3.org/2000/svg" xmlns:xlink="http://www.w3.org/1999/xlink" x="0px" y="0px"
	 viewBox="0 0 512 512" style="enable-background:new 0 0 512 512;" xml:space="preserve">
<style type="text/css">
	.st0{fill:#FFDA29;stroke:#008C61;stroke-miterlimit:10;}
	.st1{fill:none;stroke:#008C61;stroke-width:6;stroke-miterlimit:10;}
</style>
<g>
	<g id="XMLID_1_">
		<g>
			<circle class="st0" cx="395.1" cy="227.3" r="14.9"/>
			<circle class="st0" cx="253.5" cy="227.3" r="14.9"/>
			<circle class="st0" cx="116.9" cy="227.3" r="14.9"/>
		</g>
		<g>
			<polyline class="st1" points="116.1,515.4 116.1,494.3 116.1,453.8 116.1,413.3 116.1,372.9 116.1,332.4 116.1,291.9 
				116.1,242.2 			"/>
			<circle class="st1" cx="116.9" cy="227.3" r="14.9"/>
			<polyline class="st1" points="116.2,495.1 116.9,494.8 151.3,474.9 			"/>
			<polyline class="st1" points="117.6,495.1 116.9,494.8 116.1,494.3 82.5,474.9 			"/>
			<polyline class="st1" points="116.2,454.7 116.9,454.3 151.3,434.4 			"/>
			<polyline class="st1" points="117.6,454.7 116.9,454.3 116.1,453.8 82.5,434.4 			"/>
			<polyline class="st1" points="116.2,414.2 116.9,413.8 151.3,394 			"/>
			<polyline class="st1" points="117.6,414.2 116.9,413.8 116.1,413.3 82.5,394 			"/>
			<polyline class="st1" points="116.2,373.7 116.9,373.4 151.3,353.5 			"/>
			<polyline class="st1" points="117.6,373.7 116.9,373.4 116.1,372.9 82.5,353.5 			"/>
			<polyline class="st1" points="116.2,333.3 116.9,332.9 151.3,313 			"/>
			<polyline class="st1" points="117.6,333.3 116.9,332.9 116.1,332.4 82.5,313 			"/>
			<polyline class="st1" points="116.2,292.8 116.9,292.4 151.3,272.6 			"/>
			<polyline class="st1" points="117.6,292.8 116.9,292.4 116.1,291.9 82.5,272.6 			"/>
			<polyline class="st1" points="252.6,515.4 252.6,494.3 252.6,453.8 252.6,413.3 252.6,372.9 252.6,332.4 252.6,291.9 
				252.6,242.2 			"/>
			<circle class="st1" cx="253.5" cy="227.3" r="14.9"/>
			<polyline class="st1" points="252.8,495.1 253.5,494.8 287.9,474.9 			"/>
			<polyline class="st1" points="254.1,495.1 253.5,494.8 252.6,494.3 219.1,474.9 			"/>
			<polyline class="st1" points="252.8,454.7 253.5,454.3 287.9,434.4 			"/>
			<polyline class="st1" points="254.1,454.7 253.5,454.3 252.6,453.8 219.1,434.4 			"/>
			<polyline class="st1" points="252.8,414.2 253.5,413.8 287.9,394 			"/>
			<polyline class="st1" points="254.1,414.2 253.5,413.8 252.6,413.3 219.1,394 			"/>
			<polyline class="st1" points="252.8,373.7 253.5,373.4 287.9,353.5 			"/>
			<polyline class="st1" points="254.1,373.7 253.5,373.4 252.6,372.9 219.1,353.5 			"/>
			<polyline class="st1" points="252.8,333.3 253.5,332.9 287.9,313 			"/>
			<polyline class="st1" points="254.1,333.3 253.5,332.9 252.6,332.4 219.1,313 			"/>
			<polyline class="st1" points="252.8,292.8 253.5,292.4 287.9,272.6 			"/>
			<polyline class="st1" points="254.1,292.8 253.5,292.4 252.6,291.9 219.1,272.6 			"/>
			<polyline class="st1" points="394.3,515.4 394.3,494.3 394.3,453.8 394.3,413.3 394.3,372.9 394.3,332.4 394.3,291.9 
				394.3,242.2 			"/>
			<circle class="st1" cx="395.1" cy="227.3" r="14.9"/>
			<polyline class="st1" points="394.4,495.1 395.1,494.8 429.5,474.9 			"/>
			<polyline class="st1" points="395.8,495.1 395.1,494.8 394.3,494.3 360.7,474.9 			"/>
			<polyline class="st1" points="394.4,454.7 395.1,454.3 429.5,434.4 			"/>
			<polyline class="st1" points="395.8,454.7 395.1,454.3 394.3,453.8 360.7,434.4 			"/>
			<polyline class="st1" points="394.4,414.2 395.1,413.8 429.5,394 			"/>
			<polyline class="st1" points="395.8,414.2 395.1,413.8 394.3,413.3 360.7,394 			"/>
			<polyline class="st1" points="394.4,373.7 395.1,373.4 429.5,353.5 			"/>
			<polyline class="st1" points="395.8,373.7 395.1,373.4 394.3,372.9 360.7,353.5 			"/>
			<polyline class="st1" points="394.4,333.3 395.1,332.9 429.5,313 			"/>
			<polyline class="st1" points="395.8,333.3 395.1,332.9 394.3,332.4 360.7,313 			"/>
			<polyline class="st1" points="394.4,292.8 395.1,292.4 429.5,272.6 			"/>
			<polyline class="st1" points="395.8,292.8 395.1,292.4 394.3,291.9 360.7,272.6 			"/>
		</g>
	</g>
</g>
</svg>
