<?xml version="1.0" encoding="utf-8"?>
<!-- Generator: Adobe Illustrator 23.0.4, SVG Export Plug-In . SVG Version: 6.00 Build 0)  -->
<svg version="1.1" id="Capa_1" xmlns="http://www.w3.org/2000/svg" xmlns:xlink="http://www.w3.org/1999/xlink" x="0px" y="0px"
	 viewBox="0 0 512 512" style="enable-background:new 0 0 512 512;" xml:space="preserve">
<style type="text/css">
	.st0{fill:#FF6F61;}
	.st1{fill:#CE5D57;}
	.st2{fill:none;stroke:#000000;stroke-width:6;stroke-miterlimit:10;}
</style>
<g>
	<g id="XMLID_1_">
		<g>
			<path d="M381,171.3c2.3,0,4.2,1.9,4.2,4.2c0,2.3-1.9,4.2-4.2,4.2s-4.2-1.9-4.2-4.2C376.9,173.1,378.7,171.3,381,171.3z"/>
			<circle cx="343.5" cy="288" r="4.2"/>
			<path class="st0" d="M240.2,272.8c0,0,5.6,66.2-15.2,84.4c-0.9,0.8-1.9,1.6-2.8,2.3c0.8-12.4-7.7-23.8-20.3-26.1
				c-13.6-2.6-26.7,6.3-29.2,19.9c-0.8,4.2-0.5,8.3,0.7,12l-0.2,0.5c-7-2.8-13.4-7.3-18.7-13.4c-18.2-20.8-16-52.4,4.8-70.6
				C179.9,263.7,240.2,272.8,240.2,272.8z M198.2,306.9c2.5-7.7-1.7-15.9-9.4-18.4c-7.7-2.5-15.9,1.7-18.4,9.4
				c-2.5,7.7,1.7,15.9,9.4,18.4C187.6,318.8,195.8,314.6,198.2,306.9z"/>
			<path class="st1" d="M201.8,333.4c12.5,2.4,21.1,13.7,20.3,26.1c-14.4,10.9-33.2,12.8-49.1,6.3l0.2-0.5c-1.2-3.8-1.5-7.9-0.7-12
				C175.2,339.7,188.2,330.8,201.8,333.4z"/>
			<path class="st1" d="M188.9,288.6c7.7,2.5,11.9,10.7,9.4,18.4c-2.5,7.7-10.7,11.9-18.4,9.4c-7.7-2.5-11.9-10.7-9.4-18.4
				C173,290.3,181.2,286.1,188.9,288.6z"/>
			<path d="M147.6,247.7c2.3,0,4.2,1.9,4.2,4.2s-1.9,4.2-4.2,4.2s-4.2-1.9-4.2-4.2S145.3,247.7,147.6,247.7z"/>
		</g>
		<g>
			<path class="st2" d="M173.1,365.8c-7-2.8-13.4-7.3-18.7-13.4c-18.2-20.8-16-52.4,4.8-70.6c20.8-18.2,81.1-9.1,81.1-9.1
				s5.6,66.2-15.2,84.4c-0.9,0.8-1.9,1.6-2.8,2.3C207.7,370.4,188.9,372.3,173.1,365.8z"/>
			<path class="st2" d="M188.9,288.6c-7.7-2.5-15.9,1.7-18.4,9.4c-2.5,7.7,1.7,15.9,9.4,18.4c7.7,2.5,15.9-1.7,18.4-9.4
				C200.7,299.3,196.5,291,188.9,288.6z"/>
			<path class="st2" d="M173.2,365.3c-1.2-3.8-1.5-7.9-0.7-12c2.6-13.6,15.7-22.5,29.2-19.9c12.5,2.4,21.1,13.7,20.3,26.1
				c0,0.2,0,0.4,0,0.5"/>
			<path class="st2" d="M248.1,374.5c-30.9,30.9-81.1,30.9-112,0c-30.9-30.9-30.9-81,0-112"/>
			<line class="st2" x1="158.9" y1="241.5" x2="313" y2="114.3"/>
			<line class="st2" x1="242" y1="211.4" x2="354.6" y2="118.5"/>
			<line class="st2" x1="208.1" y1="239.4" x2="228" y2="223.1"/>
			<line class="st2" x1="240.8" y1="251.2" x2="290.3" y2="210.4"/>
			<line class="st2" x1="260.1" y1="274.6" x2="368.1" y2="185.4"/>
			<line class="st2" x1="342.2" y1="248.5" x2="399.1" y2="201.8"/>
			<line class="st2" x1="271.5" y1="306.8" x2="325.8" y2="262"/>
			<line class="st2" x1="257.4" y1="365" x2="330.3" y2="299.1"/>
			<line class="st2" x1="355.4" y1="276.9" x2="375.2" y2="260.6"/>
		</g>
	</g>
</g>
</svg>
