<?xml version="1.0" encoding="utf-8"?>
<!-- Generator: Adobe Illustrator 23.0.4, SVG Export Plug-In . SVG Version: 6.00 Build 0)  -->
<svg version="1.1" id="Capa_1" xmlns="http://www.w3.org/2000/svg" xmlns:xlink="http://www.w3.org/1999/xlink" x="0px" y="0px"
	 viewBox="0 0 512 512" style="enable-background:new 0 0 512 512;" xml:space="preserve">
<style type="text/css">
	.st0{fill:#447E88;}
	.st1{fill:#FF6F61;}
	.st2{fill:#333333;}
	.st3{fill:none;stroke:#333333;stroke-width:6;stroke-miterlimit:10;}
</style>
<g>
	<g id="XMLID_1_">
		<g>
			<path class="st0" d="M361.8,150.8c5.6,0.7,9.6,5.8,8.9,11.4c-0.7,5.6-5.8,9.6-11.4,8.9c-5.6-0.7-9.6-5.8-8.9-11.4
				C351,154.1,356.2,150.1,361.8,150.8z"/>
			<circle class="st0" cx="114.6" cy="397.4" r="18.9"/>
			<circle class="st1" cx="397.4" cy="114.6" r="18.9"/>
			<path class="st1" d="M152.8,340.9c5.6,0.7,9.6,5.8,8.9,11.4c-0.7,5.6-5.8,9.6-11.4,8.9c-5.6-0.7-9.6-5.8-8.9-11.4
				C142.1,344.2,147.2,340.2,152.8,340.9z"/>
			<path class="st2" d="M284.3,256c0,15.6-12.7,28.3-28.3,28.3c-1.5,0-2.9-0.1-4.3-0.3c-13.4-2.1-23.2-13.8-24-28
				c0-15.6,12.7-28.3,28.3-28.3c1.5,0,2.9,0.1,4.3,0.3C273.7,230.1,283.5,241.9,284.3,256z"/>
			<circle class="st2" cx="307.9" cy="166.4" r="4.7"/>
			<circle class="st2" cx="204.1" cy="345.6" r="4.7"/>
		</g>
		<g>
			<path class="st3" d="M251.7,284c-13.4-2.1-23.2-13.8-24-28c-0.7-11.7,8.4-29.9,28.3-37.7c51.4-20.2,150.8,9.4,150.8,9.4"/>
			<path class="st3" d="M260.3,228.1c13.4,2.1,23.1,13.8,24,27.9c0.7,11.7-8.4,29.9-28.3,37.7c-51.4,20.2-150.8-9.4-150.8-9.4"/>
			<path class="st3" d="M284.3,256c0,15.6-12.7,28.3-28.3,28.3c-1.5,0-2.9-0.1-4.3-0.3c-13.6-2.1-24-13.8-24-28
				c0-15.6,12.7-28.3,28.3-28.3c1.5,0,2.9,0.1,4.3,0.3C273.9,230.1,284.3,241.8,284.3,256z"/>
			<path class="st3" d="M152.3,256c0-57.3,46.4-103.7,103.7-103.7c13.3,0,26,2.5,37.7,7.1"/>
			<path class="st3" d="M359.7,256c0,57.3-46.4,103.7-103.7,103.7c-13.3,0-26-2.5-37.7-7.1"/>
			<path class="st3" d="M192.7,274.9c-1.8-6-2.7-12.3-2.7-18.9c0-36.4,29.5-66,66-66"/>
			<path class="st3" d="M319.3,237.1c1.8,6,2.7,12.3,2.7,18.9c0,36.5-29.5,66-66,66"/>
			<circle class="st3" cx="397.4" cy="114.6" r="18.9"/>
			<path class="st3" d="M359.2,171.1c-5.6-0.7-9.6-5.8-8.9-11.4c0.7-5.6,5.8-9.6,11.4-8.9c5.6,0.7,9.6,5.8,8.9,11.4
				C369.9,167.8,364.8,171.8,359.2,171.1z"/>
			<circle class="st3" cx="114.6" cy="397.4" r="18.9"/>
			<path class="st3" d="M152.8,340.9c5.6,0.7,9.6,5.8,8.9,11.4c-0.7,5.6-5.8,9.6-11.4,8.9c-5.6-0.7-9.6-5.8-8.9-11.4
				C142.1,344.2,147.2,340.2,152.8,340.9z"/>
		</g>
	</g>
</g>
</svg>
