<?xml version="1.0" encoding="utf-8"?>
<!-- Generator: Adobe Illustrator 23.0.4, SVG Export Plug-In . SVG Version: 6.00 Build 0)  -->
<svg version="1.1" id="Capa_1" xmlns="http://www.w3.org/2000/svg" xmlns:xlink="http://www.w3.org/1999/xlink" x="0px" y="0px"
	 viewBox="0 0 512 512" style="enable-background:new 0 0 512 512;" xml:space="preserve">
<style type="text/css">
	.st0{fill:none;stroke:#000000;stroke-width:6;stroke-miterlimit:10;}
</style>
<g>
	<polygon class="st0" points="254.5,203.5 292.6,251.2 254.5,298.9 216.3,251.2 	"/>
	<polygon class="st0" points="178.2,108.2 197.2,132 178.2,155.9 159.1,132 	"/>
	<polygon class="st0" points="406.3,187.3 416.6,200.2 406.3,213.1 395.9,200.2 	"/>
	<g>
		<line class="st0" x1="328" y1="196.8" x2="314.5" y2="210.3"/>
		<line class="st0" x1="328" y1="210.3" x2="314.5" y2="196.8"/>
		<circle class="st0" cx="321.2" cy="203.5" r="3.2"/>
	</g>
	<g>
		<line class="st0" x1="283.1" y1="136.8" x2="283.1" y2="155.9"/>
		<line class="st0" x1="292.6" y1="146.3" x2="273.5" y2="146.3"/>
		<circle class="st0" cx="283.1" cy="146.3" r="3.2"/>
	</g>
	<g>
		<line class="st0" x1="378.4" y1="117.7" x2="378.4" y2="136.8"/>
		<line class="st0" x1="388" y1="127.2" x2="368.9" y2="127.2"/>
		<circle class="st0" cx="378.4" cy="127.2" r="3.2"/>
	</g>
	<g>
		<line class="st0" x1="345.1" y1="313.2" x2="345.1" y2="294.1"/>
		<line class="st0" x1="335.5" y1="303.7" x2="354.6" y2="303.7"/>
		<circle class="st0" cx="345.5" cy="303.3" r="3.2"/>
	</g>
	<g>
		<line class="st0" x1="419.7" y1="323.6" x2="406.2" y2="310.1"/>
		<line class="st0" x1="406.2" y1="323.6" x2="419.7" y2="310.1"/>
		<circle class="st0" cx="412.9" cy="316.8" r="3.2"/>
	</g>
	<g>
		<line class="st0" x1="365.7" y1="417.2" x2="352.2" y2="403.7"/>
		<line class="st0" x1="352.2" y1="417.2" x2="365.7" y2="403.7"/>
		<circle class="st0" cx="359" cy="410.5" r="3.2"/>
	</g>
	<g>
		<line class="st0" x1="137.2" y1="196.8" x2="123.7" y2="210.3"/>
		<line class="st0" x1="137.2" y1="210.3" x2="123.7" y2="196.8"/>
		<circle class="st0" cx="130.5" cy="203.5" r="3.2"/>
	</g>
	<g>
		<line class="st0" x1="210.3" y1="347.8" x2="196.8" y2="361.3"/>
		<line class="st0" x1="210.3" y1="361.3" x2="196.8" y2="347.8"/>
		<circle class="st0" cx="203.6" cy="354.6" r="3.2"/>
	</g>
	<g>
		<line class="st0" x1="130.5" y1="403.8" x2="130.5" y2="422.9"/>
		<line class="st0" x1="140" y1="413.4" x2="120.9" y2="413.4"/>
		<circle class="st0" cx="130.5" cy="413.4" r="3.2"/>
	</g>
	<g>
		<line class="st0" x1="101.9" y1="89.1" x2="101.9" y2="108.2"/>
		<line class="st0" x1="111.4" y1="98.6" x2="92.3" y2="98.6"/>
		<circle class="st0" cx="101.9" cy="98.6" r="3.2"/>
	</g>
	<circle cx="182.9" cy="275.1" r="4.8"/>
	<circle cx="259.2" cy="112.9" r="4.8"/>
	<circle cx="97.1" cy="332.3" r="4.8"/>
	<circle cx="154.3" cy="370.4" r="4.8"/>
	<circle cx="326" cy="332.3" r="4.8"/>
</g>
</svg>
