<?xml version="1.0" encoding="utf-8"?>
<!-- Generator: Adobe Illustrator 23.0.4, SVG Export Plug-In . SVG Version: 6.00 Build 0)  -->
<svg version="1.1" id="Capa_1" xmlns="http://www.w3.org/2000/svg" xmlns:xlink="http://www.w3.org/1999/xlink" x="0px" y="0px"
	 viewBox="0 0 512 512" style="enable-background:new 0 0 512 512;" xml:space="preserve">
<style type="text/css">
	.st0{fill:none;stroke:#333333;stroke-width:6;stroke-miterlimit:10;}
</style>
<g>
	<g>
		<g>
			<polyline class="st0" points="263.3,249.2 256.2,313.2 169.1,345.3 101.1,293.5 246.1,238 			"/>
			<polyline class="st0" points="272.9,215.1 297.2,165.3 355.7,147.2 392.6,169.4 			"/>
		</g>
		<circle class="st0" cx="263" cy="231.4" r="17.6"/>
		<circle class="st0" cx="408.2" cy="178.3" r="17.6"/>
	</g>
	<g>
		<line class="st0" x1="170.5" y1="415.4" x2="156.2" y2="401.2"/>
		<line class="st0" x1="170.5" y1="401.2" x2="156.2" y2="415.4"/>
		<circle class="st0" cx="163.4" cy="408.3" r="3.4"/>
	</g>
	<g>
		<line class="st0" x1="197.3" y1="200.6" x2="183.1" y2="186.4"/>
		<line class="st0" x1="197.3" y1="186.4" x2="183.1" y2="200.6"/>
		<circle class="st0" cx="190.2" cy="193.5" r="3.4"/>
	</g>
	<g>
		<line class="st0" x1="353.4" y1="306.4" x2="339.2" y2="292.1"/>
		<line class="st0" x1="353.4" y1="292.1" x2="339.2" y2="306.4"/>
		<circle class="st0" cx="346.3" cy="299.2" r="3.4"/>
	</g>
	<circle cx="119.7" cy="376.8" r="5"/>
	<circle class="st0" cx="97.1" cy="179.6" r="10.9"/>
	<g>
		<line class="st0" x1="186.9" y1="89.8" x2="186.9" y2="110"/>
		<line class="st0" x1="196.9" y1="99.9" x2="176.8" y2="99.9"/>
		<circle class="st0" cx="186.9" cy="99.9" r="3.4"/>
	</g>
	<circle class="st0" cx="390.8" cy="394.5" r="27.7"/>
	<circle cx="388.3" cy="108.3" r="5"/>
</g>
</svg>
