<?xml version="1.0" encoding="utf-8"?>
<!-- Generator: Adobe Illustrator 23.0.4, SVG Export Plug-In . SVG Version: 6.00 Build 0)  -->
<svg version="1.1" id="Capa_1" xmlns="http://www.w3.org/2000/svg" xmlns:xlink="http://www.w3.org/1999/xlink" x="0px" y="0px"
	 viewBox="0 0 512 512" style="enable-background:new 0 0 512 512;" xml:space="preserve">
<style type="text/css">
	.st0{fill:#FFDA29;}
	.st1{fill:#3F5C6C;}
	.st2{fill:#FF6F61;}
	.st3{fill:#ECF0F1;}
	.st4{fill:none;stroke:#000000;stroke-width:6;stroke-miterlimit:10;}
</style>
<g>
	<g id="XMLID_1_">
		<g>
			<polygon class="st0" points="136.7,169.8 153,190.1 136.7,210.4 120.5,190.1 			"/>
			<path class="st1" d="M263.1,266.5v2.1H217v-2.1c0-12.7,10.3-23.1,23.1-23.1C252.8,243.4,263.1,253.8,263.1,266.5z"/>
			<rect x="326" y="243.4" class="st2" width="58.7" height="25.1"/>
			<path class="st2" d="M304.3,322.4c1.4,2.2,1.7,4.8,1.2,7.1c-0.6,2.2-1.9,4.1-3.9,5.4c-4.2,2.7-9.8,1.5-12.5-2.8
				c-2.7-4.2-1.5-9.8,2.8-12.5C296,316.9,301.6,318.2,304.3,322.4z"/>
			<path class="st2" d="M351.9,348.5c-1.3-2.3-1.5-4.9-0.8-7.2c0.6-2,1.9-3.7,3.8-4.9c4.2-2.7,9.8-1.5,12.5,2.8
				c2.7,4.2,1.5,9.9-2.8,12.6c-4.2,2.7-9.8,1.5-12.5-2.8C352,348.8,351.9,348.7,351.9,348.5z"/>
			<path class="st1" d="M365.8,369.2c15,0,27.2,12.2,27.2,27.2c0,15-12.2,27.2-27.2,27.2c-15,0-27.2-12.2-27.2-27.2
				C338.5,381.4,350.7,369.2,365.8,369.2z M372.2,402.9c3.5-3.5,3.5-9.3,0-12.9c-3.5-3.5-9.3-3.5-12.9,0c-3.5,3.6-3.5,9.3,0,12.9
				C362.9,406.4,368.7,406.4,372.2,402.9z"/>
			<path class="st1" d="M297.3,369.2c15,0,27.2,12.2,27.2,27.2c0,15-12.2,27.2-27.2,27.2c-15.1,0-27.2-12.2-27.2-27.2
				C270.1,381.4,282.3,369.2,297.3,369.2z M303.1,402.9c3.5-3.5,3.5-9.3,0-12.9c-3.5-3.5-9.3-3.5-12.9,0c-3.5,3.6-3.5,9.3,0,12.9
				C293.8,406.4,299.5,406.4,303.1,402.9z"/>
			<path class="st1" d="M228.9,369.2c15,0,27.2,12.2,27.2,27.2c0,15-12.2,27.2-27.2,27.2c-15.1,0-27.2-12.2-27.2-27.2
				C201.6,381.4,213.8,369.2,228.9,369.2z M235.3,402.9c3.6-3.5,3.6-9.3,0-12.9c-3.6-3.5-9.3-3.5-12.8,0c-3.5,3.6-3.5,9.3,0,12.9
				C226,406.4,231.7,406.4,235.3,402.9z"/>
			<path class="st2" d="M214.5,320.3c-2.2-4.1-0.8-9.3,3.2-11.8c4.2-2.7,9.8-1.5,12.5,2.8c2.7,4.2,1.5,9.8-2.8,12.6
				c-4.2,2.7-9.8,1.5-12.5-2.8C214.8,320.8,214.7,320.6,214.5,320.3z"/>
			<path class="st2" d="M135,328c-3.6,2.9-8.8,2.6-12.1-0.7c-3.5-3.6-3.5-9.3,0-12.8c3.6-3.6,9.3-3.6,12.8,0c3.6,3.5,3.6,9.3,0,12.8
				C135.5,327.6,135.2,327.8,135,328z"/>
			<path class="st3" d="M239.7,218.3h-25.6V168h50.3v50.3H239.7z M243.5,193.1c0-2.3-1.9-4.2-4.2-4.2c-2.3,0-4.2,1.9-4.2,4.2
				c0,2.3,1.9,4.2,4.2,4.2C241.6,197.3,243.5,195.4,243.5,193.1z"/>
			<circle class="st3" cx="365.8" cy="396.4" r="9.1"/>
			<path class="st3" d="M235.3,390c3.6,3.6,3.6,9.3,0,12.9c-3.6,3.5-9.3,3.5-12.8,0c-3.5-3.5-3.5-9.3,0-12.9
				C226,386.5,231.7,386.5,235.3,390z"/>
			<circle class="st3" cx="296.6" cy="396.4" r="9.1"/>
			<path class="st3" d="M214.5,320.3c0.1,0.2,0.2,0.5,0.4,0.7c2.7,4.2,8.3,5.5,12.5,2.8c4.2-2.7,5.5-8.3,2.8-12.6
				c-2.7-4.2-8.3-5.5-12.5-2.8C213.7,311,212.4,316.2,214.5,320.3z M200.2,332v-63.4H217h46.1H326h58.7h12.6v100.6h-31.4h-67.3
				l53.4-20.7c0.1,0.1,0.1,0.3,0.2,0.4c2.7,4.2,8.3,5.5,12.5,2.8c4.2-2.7,5.5-8.3,2.8-12.6c-2.7-4.2-8.3-5.5-12.5-2.8
				c-1.9,1.2-3.1,2.9-3.8,4.9l-1.1-0.6l-3.3-0.8l-40.1-10l-1.2-0.4c0.6-2.3,0.2-4.9-1.2-7.1c-2.7-4.2-8.3-5.5-12.6-2.8
				c-4.2,2.7-5.5,8.3-2.8,12.5l-1.4,0.8l-56.2,36.2h-2.5h-28.7V332z"/>
			<circle cx="239.3" cy="193.1" r="4.2"/>
		</g>
		<g>
			<polyline class="st4" points="384.6,268.6 397.2,268.6 397.2,369.2 365.8,369.2 298.5,369.2 297.3,369.2 231.4,369.2 
				228.9,369.2 200.2,369.2 200.2,332 200.2,268.6 217,268.6 263.1,268.6 326,268.6 			"/>
			<path class="st4" d="M217,266.5c0-12.7,10.3-23.1,23.1-23.1c12.7,0,23,10.3,23,23.1"/>
			<polyline class="st4" points="239.7,215.9 239.7,218.3 239.7,241.6 			"/>
			<polygon class="st4" points="264.5,218.3 239.7,218.3 214.2,218.3 214.2,168 264.5,168 			"/>
			<rect x="326" y="243.4" class="st4" width="58.7" height="25.1"/>
			<path class="st4" d="M256.1,396.4c0,15-12.2,27.2-27.2,27.2c-15.1,0-27.2-12.2-27.2-27.2c0-15,12.2-27.2,27.2-27.2
				C243.9,369.2,256.1,381.4,256.1,396.4z"/>
			<path class="st4" d="M393,396.4c0,15-12.2,27.2-27.2,27.2c-15,0-27.2-12.2-27.2-27.2c0-15,12.2-27.2,27.2-27.2
				C380.8,369.2,393,381.4,393,396.4z"/>
			<path class="st4" d="M324.6,396.4c0,15-12.2,27.2-27.2,27.2c-15.1,0-27.2-12.2-27.2-27.2c0-15,12.2-27.2,27.2-27.2
				C312.4,369.2,324.6,381.4,324.6,396.4z"/>
			<line class="st4" x1="287.6" y1="333" x2="231.4" y2="369.2"/>
			<polyline class="st4" points="350,340.7 346.7,339.9 306.6,329.8 			"/>
			<polyline class="st4" points="298.5,369.2 351.9,348.5 355.1,347.3 			"/>
			<path class="st4" d="M351.1,341.3c0.6-2,1.9-3.7,3.8-4.9c4.2-2.7,9.8-1.5,12.5,2.8c2.7,4.2,1.5,9.9-2.8,12.6
				c-4.2,2.7-9.8,1.5-12.5-2.8c-0.1-0.1-0.2-0.3-0.2-0.4C350.6,346.3,350.4,343.6,351.1,341.3z"/>
			<path class="st4" d="M289,332.2c-2.7-4.2-1.5-9.8,2.8-12.5c4.2-2.7,9.9-1.5,12.6,2.8c1.4,2.2,1.7,4.8,1.2,7.1
				c-0.6,2.2-1.9,4.1-3.9,5.4C297.3,337.6,291.7,336.4,289,332.2z"/>
			<path class="st4" d="M230.2,311.2c2.7,4.2,1.5,9.8-2.8,12.6c-4.2,2.7-9.8,1.5-12.5-2.8c-0.2-0.2-0.3-0.5-0.4-0.7
				c-2.2-4.1-0.8-9.3,3.2-11.8C221.9,305.8,227.5,307,230.2,311.2z"/>
			<path class="st4" d="M235.3,390c3.6,3.6,3.6,9.3,0,12.9c-3.6,3.5-9.3,3.5-12.8,0c-3.5-3.5-3.5-9.3,0-12.9
				C226,386.5,231.7,386.5,235.3,390z"/>
			<path class="st4" d="M135.7,314.5c3.6,3.5,3.6,9.3,0,12.8c-0.2,0.2-0.5,0.5-0.8,0.7c-3.6,2.9-8.8,2.6-12.1-0.7
				c-3.5-3.6-3.5-9.3,0-12.8C126.4,311,132.2,311,135.7,314.5z"/>
			<circle class="st4" cx="296.6" cy="396.4" r="9.1"/>
			<circle class="st4" cx="365.8" cy="396.4" r="9.1"/>
			<polyline class="st4" points="214.7,320.2 214.5,320.3 200.2,332 163.1,362.3 135,328 134.5,327.5 			"/>
			<polygon class="st4" points="136.7,169.8 153,190.1 136.7,210.4 120.5,190.1 			"/>
		</g>
	</g>
</g>
</svg>
