<?xml version="1.0" encoding="utf-8"?>
<!-- Generator: Adobe Illustrator 23.0.4, SVG Export Plug-In . SVG Version: 6.00 Build 0)  -->
<svg version="1.1" id="Capa_1" xmlns="http://www.w3.org/2000/svg" xmlns:xlink="http://www.w3.org/1999/xlink" x="0px" y="0px"
	 viewBox="0 0 512 512" style="enable-background:new 0 0 512 512;" xml:space="preserve">
<style type="text/css">
	.st0{fill:none;stroke:#333333;stroke-width:5;stroke-linecap:round;}
	.st1{opacity:0.38;fill:none;stroke:#333333;stroke-width:6;stroke-linecap:round;enable-background:new    ;}
</style>
<g>
	<path id="path4211" class="st0" d="M649.9,253.2h27.5 M769.3,253.2h35.5 M262.3,253.2H730"/>
	<path id="path4231" class="st0" d="M250.4,245.1l11,7.8 M230.8,231.3l16.1,11.4"/>
	<path id="path4235" class="st0" d="M216.9,221.5l2.7,1.9"/>
	<path id="path4237" class="st0" d="M213,218.7l2.7,1.9"/>
	<path id="path4239" class="st0" d="M209.1,216l2.7,1.9"/>
	<path id="path4241" class="st0" d="M193.8,205.3l2.7,1.9"/>
	<path id="path4243" class="st0" d="M172.1,189.9l2.7,1.9"/>
	<path id="path4245" class="st0" d="M168.2,187.2l2.7,1.9"/>
	<path id="path4247" class="st0" d="M163.2,183.7l2.7,1.9"/>
	<path id="path4249" class="st0" d="M159.3,180.9l2.7,1.9"/>
	<path id="path4251" class="st0" d="M153.5,176.8l2.7,1.9"/>
	<path id="path4253" class="st0" d="M145.7,171.3l2.7,1.9"/>
	<path id="path4255" class="st0" d="M189.3,202.1l2.7,1.9"/>
	<path id="path4257" class="st0" d="M185.5,199.4l2.7,1.9"/>
	<path id="path4259" class="st0" d="M220.5,226.1l1-1.4l1-1.4"/>
	<path id="path4263" class="st0" d="M222.2,227.3l1-1.4l1-1.4"/>
	<path id="path4265" class="st0" d="M223.9,228.5l1-1.4l1-1.4"/>
	<path id="path4267" class="st0" d="M225.6,229.7l1-1.4l1-1.4"/>
	<path id="path4269" class="st0" d="M206.3,216.1l1-1.4l1-1.4"/>
	<path id="path4271" class="st0" d="M204.5,214.8l1-1.4l1-1.4"/>
	<path id="path4273" class="st0" d="M202.7,213.6l1-1.4l1-1.4"/>
	<path id="path4275" class="st0" d="M201,212.4l1-1.4l1-1.4"/>
	<path id="path4277" class="st0" d="M199.3,211.2l1-1.4l1-1.4"/>
	<path id="path4279" class="st0" d="M197.5,209.9l1-1.4l1-1.4"/>
	<path id="path4281" class="st0" d="M182.8,199.5l1-1.4l1-1.4"/>
	<path id="path4283" class="st0" d="M181.1,198.3l1-1.4l1-1.4"/>
	<path id="path4285" class="st0" d="M179.3,197.1l1-1.4l1-1.4"/>
	<path id="path4287" class="st0" d="M177.6,195.8l1-1.4l1-1.4"/>
	<path id="path4289" class="st0" d="M175.8,194.6l1-1.4l1-1.4"/>
	<path id="path4291" class="st0" d="M157,181.3l1-1.4l1-1.4"/>
	<path id="path4293" class="st0" d="M151.2,177.3l1-1.4l1-1.4"/>
	<path id="path4295" class="st0" d="M149.2,175.9l1-1.4l1-1.4"/>
	<path id="path4297" class="st0" d="M231.1,233.6l1-1.4l1-1.4"/>
	<path id="path4317" class="st0" d="M394.6,76.8L261.6,253.3"/>
	<path id="path4321" class="st0" d="M388.7,82l1.3,1l1.3,1"/>
	<path id="path4335" class="st0" d="M395.7,72.6l1.3,1l1.3,1"/>
	<path id="path4337" class="st0" d="M397.3,70.5l1.3,1l1.3,1"/>
	<path id="path4339" class="st0" d="M398.8,68.6l1.3,1l1.3,1"/>
	<path id="path4341" class="st0" d="M400.2,66.7l1.3,1l1.3,1"/>
	<path id="path4343" class="st0" d="M407.2,57.5l1.3,1l1.3,1"/>
	<path id="path4345" class="st0" d="M412.2,50.8l1.3,1l1.3,1"/>
	<path id="path4347" class="st0" d="M413.6,48.9l1.3,1l1.3,1"/>
	<path id="path4349" class="st0" d="M415,47l1.3,1l1.3,1"/>
	<path id="path4351" class="st0" d="M416.5,45.1l1.3,1l1.3,1"/>
	<path id="path4353" class="st0" d="M418.1,43l1.3,1l1.3,1"/>
	<path id="path4355" class="st0" d="M429.4,27.9l1.3,1l1.3,1"/>
	<path id="path4357" class="st0" d="M430.9,26l1.3,1l1.3,1"/>
	<path id="path4359" class="st0" d="M432.4,24l1.3,1l1.3,1"/>
	<path id="path4361" class="st0" d="M437.3,17.6l1.3,1l1.3,1"/>
	<path id="path4363" class="st0" d="M448.6,2.5l1.3,1l1.3,1"/>
	<path id="path4365" class="st0" d="M450.1,0.6l1.3,1l1.3,1"/>
	<path id="path4367" class="st0" d="M451.6-1.5l1.3,1l1.3,1"/>
	<path id="path4373" class="st0" d="M446.7,7.9l1-1.3l1-1.3"/>
	<path id="path4375" class="st0" d="M443.4,12.2l1-1.3l1-1.3"/>
	<path id="path4377" class="st0" d="M440,16.7l1-1.3l1-1.3"/>
	<path id="path4379" class="st0" d="M435,23.4l1-1.3l1-1.3"/>
	<path id="path4381" class="st0" d="M427.5,33.3l1-1.3l1-1.3"/>
	<path id="path4383" class="st0" d="M424,37.9l1-1.3l1-1.3"/>
	<path id="path4385" class="st0" d="M420.8,42.2l1-1.3l1-1.3"/>
	<path id="path4387" class="st0" d="M410,56.4l1-1.3l1-1.3"/>
	<path id="path4389" class="st0" d="M405.6,62.3l1-1.3l1-1.3"/>
	<path id="path4391" class="st0" d="M402.7,66.2l1-1.3l1-1.3"/>
	<path id="path4750" class="st0" d="M421.7,513.5L261.6,253.3"/>
	<path id="path4754" class="st0" d="M420.5,508.4l-1.4,0.9l-1.4,0.9"/>
	<path id="path4756" class="st0" d="M351.5,403.9l-1.4,0.9l-1.4,0.9"/>
	<path id="path4758" class="st0" d="M365.2,426.3l-1.4,0.9l-1.4,0.9"/>
	<path id="path4760" class="st0" d="M366.3,428l-1.4,0.9l-1.4,0.9"/>
	<path id="path4762" class="st0" d="M370.6,435l-1.4,0.9l-1.4,0.9"/>
	<path id="path4764" class="st0" d="M372.4,437.9l-1.4,0.9l-1.4,0.9"/>
	<path id="path4766" class="st0" d="M380.1,450.3l-1.4,0.9l-1.4,0.9"/>
	<path id="path4768" class="st0" d="M384.3,457.2l-1.4,0.9l-1.4,0.9"/>
	<path id="path4770" class="st0" d="M385.5,459.3l-1.4,0.9l-1.4,0.9"/>
	<path id="path4772" class="st0" d="M394.6,474l-1.4,0.9l-1.4,0.9"/>
	<path id="path4774" class="st0" d="M400.7,483.8l-1.4,0.9l-1.4,0.9"/>
	<path id="path4776" class="st0" d="M402,486l-1.4,0.9l-1.4,0.9"/>
	<path id="path4778" class="st0" d="M403.3,488l-1.4,0.9l-1.4,0.9"/>
	<path id="path4780" class="st0" d="M404.5,490.1l-1.4,0.9l-1.4,0.9"/>
	<path id="path4782" class="st0" d="M409,500.6l0.9,1.4l0.9,1.4"/>
	<path id="path4784" class="st0" d="M406.6,496.6l0.9,1.4l0.9,1.4"/>
	<path id="path4786" class="st0" d="M404.1,492.5l0.9,1.4l0.9,1.4"/>
	<path id="path4788" class="st0" d="M396.7,480.5l0.9,1.4l0.9,1.4"/>
	<path id="path4790" class="st0" d="M394.1,476.4l0.9,1.4l0.9,1.4"/>
	<path id="path4792" class="st0" d="M387.8,466.2l0.9,1.4l0.9,1.4"/>
	<path id="path4794" class="st0" d="M384.9,461.4l0.9,1.4l0.9,1.4"/>
	<path id="path4796" class="st0" d="M391.2,471.7l0.9,1.4"/>
	<path id="path4798" class="st0" d="M379.8,453.1l0.9,1.4l0.9,1.4"/>
	<path id="path4800" class="st0" d="M375.7,446.5l0.9,1.4l0.9,1.4"/>
	<path id="path4802" class="st0" d="M372.2,440.8l0.9,1.4l0.9,1.4"/>
	<path id="path4804" class="st0" d="M365.6,430.1l0.9,1.4l0.9,1.4"/>
	<path id="path4806" class="st0" d="M361,422.6l0.9,1.4l0.9,1.4"/>
	<path id="path4808" class="st0" d="M358.5,418.4l0.9,1.4l0.9,1.4"/>
	<path id="path4810" class="st0" d="M355.9,414.3l0.9,1.4l0.9,1.4"/>
	<path id="path4812" class="st0" d="M353.3,410.1l0.9,1.4l0.9,1.4"/>
	<path id="path4814" class="st0" d="M350.8,406l0.9,1.4l0.9,1.4"/>
	<path id="path4816" class="st0" d="M253,193.1l8.6,60.2"/>
	<path id="path4820" class="st0" d="M251.4,181.6l0.2,1.7l0.2,1.7"/>
	<path id="path4822" class="st0" d="M249.9,171.3l0.2,1.7l0.2,1.7"/>
	<path id="path4824" class="st0" d="M248.5,161.3l0.2,1.7l0.2,1.7"/>
	<path id="path4826" class="st0" d="M247.7,155.8l0.2,1.7l0.2,1.7"/>
	<path id="path4828" class="st0" d="M246.6,148.1l0.2,1.7l0.2,1.7"/>
	<path id="path4830" class="st0" d="M245.1,138l0.2,1.7l0.2,1.7"/>
	<path id="path4832" class="st0" d="M244.1,130.5l0.2,1.7l0.2,1.7"/>
	<path id="path4834" class="st0" d="M243.3,124.9l0.2,1.7l0.2,1.7"/>
	<path id="path4836" class="st0" d="M242.3,117.8l0.2,1.7l0.2,1.7"/>
	<path id="path4838" class="st0" d="M241.6,112.8l0.2,1.7l0.2,1.7"/>
	<path id="path4840" class="st0" d="M240.8,107.8l0.2,1.7l0.2,1.7"/>
	<path id="path4842" class="st0" d="M240.1,102.5l0.2,1.7l0.2,1.7"/>
	<path id="path4844" class="st0" d="M239,95.1l0.2,1.7l0.2,1.7"/>
	<path id="path4846" class="st0" d="M237.6,85.3l0.2,1.7l0.2,1.7"/>
	<path id="path4848" class="st0" d="M236.7,79.1l0.2,1.7l0.2,1.7"/>
	<path id="path4850" class="st0" d="M236,73.5l0.2,1.7l0.2,1.7"/>
	<path id="path4852" class="st0" d="M234,71.7l1.7-0.2l1.7-0.2"/>
	<path id="path4854" class="st0" d="M236.8,91.3l1.7-0.2l1.7-0.2"/>
	<path id="path4856" class="st0" d="M237.1,93.7l1.7-0.2l1.7-0.2"/>
	<path id="path4858" class="st0" d="M238.1,100.8l1.7-0.2l1.7-0.2"/>
	<path id="path4860" class="st0" d="M241.3,123l1.7-0.2l1.7-0.2"/>
	<path id="path4862" class="st0" d="M243.2,136.2l1.7-0.2l1.7-0.2"/>
	<path id="path4864" class="st0" d="M244.3,143.8l1.7-0.2l1.7-0.2"/>
	<path id="path4866" class="st0" d="M244.6,146.3l1.7-0.2l1.7-0.2"/>
	<path id="path4868" class="st0" d="M245.7,153.9l1.7-0.2l1.7-0.2"/>
	<path id="path4870" class="st0" d="M247.6,167.1l1.7-0.2l1.7-0.2"/>
	<path id="path4872" class="st0" d="M247.9,169.5l1.7-0.2l1.7-0.2"/>
	<path id="path4874" class="st0" d="M249,177.1l1.7-0.2l1.7-0.2"/>
	<path id="path4876" class="st0" d="M249.4,179.5l1.7-0.2l1.7-0.2"/>
	<path id="path4878" class="st0" d="M250.5,187.7l1.7-0.2l1.7-0.2"/>
	<path id="path4880" class="st0" d="M252.3,200.4l1.7-0.2l1.7-0.2"/>
	<path id="path2591" class="st0" d="M273.3,256.9l-11.7-3.6"/>
	<path id="path3365" class="st0" d="M277.8,258.3l139.8,42.8"/>
	<path id="path3367" class="st0" d="M426.2,303.7l1.6,0.5l1.6,0.5"/>
	<path id="path3369" class="st0" d="M430.8,305.1l1.6,0.5l1.6,0.5"/>
	<path id="path3371" class="st0" d="M435.6,306.6l1.6,0.5l1.6,0.5"/>
	<path id="path3373" class="st0" d="M444.5,309.4l1.6,0.5l1.6,0.5"/>
	<path id="path3375" class="st0" d="M449.1,310.8l1.6,0.5l1.6,0.5"/>
	<path id="path3377" class="st0" d="M453.6,312.2l1.6,0.5l1.6,0.5"/>
	<path id="path3379" class="st0" d="M469.2,316.9l1.6,0.5l1.6,0.5"/>
	<path id="path3381" class="st0" d="M473.7,318.3l1.6,0.5l1.6,0.5"/>
	<path id="path3397" class="st0" d="M424.3,304.9l0.5-1.6l0.5-1.6"/>
	<path id="path3399" class="st0" d="M440.5,309.9l0.5-1.6l0.5-1.6"/>
	<path id="path3401" class="st0" d="M442.7,310.6l0.5-1.6l0.5-1.6"/>
	<path id="path3403" class="st0" d="M458.8,315.5l0.5-1.6l0.5-1.6"/>
	<path id="path3405" class="st0" d="M460.8,316.1l0.5-1.6l0.5-1.6"/>
	<path id="path3407" class="st0" d="M462.8,316.7l0.5-1.6l0.5-1.6"/>
	<path id="path3409" class="st0" d="M464.8,317.3l0.5-1.6l0.5-1.6"/>
	<path id="path3411" class="st0" d="M466.8,317.9l0.5-1.6l0.5-1.6"/>
	<path id="path3429" class="st0" d="M155.9,263.3l105.6-10.1"/>
	<path id="path3433" class="st0" d="M147,264.2l1.7-0.2l1.7-0.2"/>
	<path id="path3435" class="st0" d="M138,265.1l1.7-0.2l1.7-0.2"/>
	<path id="path3437" class="st0" d="M133,265.5l1.7-0.2l1.7-0.2"/>
	<path id="path3439" class="st0" d="M121.4,266.6l1.7-0.2l1.7-0.2"/>
	<path id="path3441" class="st0" d="M116.3,267.1l1.7-0.2l1.7-0.2"/>
	<path id="path3443" class="st0" d="M111,267.6l1.7-0.2l1.7-0.2"/>
	<path id="path3445" class="st0" d="M106.4,268.1l1.7-0.2l1.7-0.2"/>
	<path id="path3447" class="st0" d="M101.1,268.6l1.7-0.2l1.7-0.2"/>
	<path id="path3449" class="st0" d="M94.2,269.2l1.7-0.2l1.7-0.2"/>
	<path id="path3451" class="st0" d="M87.2,269.9l1.7-0.2l1.7-0.2"/>
	<path id="path3453" class="st0" d="M79.2,270.7l1.7-0.2l1.7-0.2"/>
	<path id="path3455" class="st0" d="M74.4,271.1l1.7-0.2l1.7-0.2"/>
	<path id="path3457" class="st0" d="M69.7,271.5l1.7-0.2l1.7-0.2"/>
	<path id="path3459" class="st0" d="M65,272l1.7-0.2l1.7-0.2"/>
	<path id="path3461" class="st0" d="M59.2,272.6l1.7-0.2l1.7-0.2"/>
	<path id="path3463" class="st0" d="M53.1,273.1l1.7-0.2l1.7-0.2"/>
	<path id="path3465" class="st0" d="M58,274.3l-0.2-1.7l-0.2-1.7"/>
	<path id="path3467" class="st0" d="M85.1,271.8l-0.2-1.7l-0.2-1.7"/>
	<path id="path3469" class="st0" d="M92.7,271l-0.2-1.7l-0.2-1.7"/>
	<path id="path3471" class="st0" d="M100.1,270.3l-0.2-1.7l-0.2-1.7"/>
	<path id="path3473" class="st0" d="M127.1,267.8l-0.2-1.7l-0.2-1.7"/>
	<path id="path3475" class="st0" d="M129.1,267.6l-0.2-1.7l-0.2-1.7"/>
	<path id="path3477" class="st0" d="M131.3,267.4l-0.2-1.7l-0.2-1.7"/>
	<path id="path3479" class="st0" d="M143.9,266.2l-0.2-1.7l-0.2-1.7"/>
	<path id="path3481" class="st0" d="M146,266l-0.2-1.7l-0.2-1.7"/>
	<path id="path3483" class="st0" d="M152.8,265.3l-0.2-1.7l-0.2-1.7"/>
	<path id="path3485" class="st0" d="M166.5,264l-0.2-1.7l-0.2-1.7"/>
	<path id="path3487" class="st0" d="M253.4,340.8l8.2-87.6"/>
	<path id="path3491" class="st0" d="M252.1,355.5l-0.2,1.7l-0.2,1.7"/>
	<path id="path3493" class="st0" d="M251.5,361.1l-0.2,1.7l-0.2,1.7"/>
	<path id="path3495" class="st0" d="M251,366.5l-0.2,1.7l-0.2,1.7"/>
	<path id="path3497" class="st0" d="M250.2,375.9l-0.2,1.7l-0.2,1.7"/>
	<path id="path3499" class="st0" d="M249.2,386.1l-0.2,1.7l-0.2,1.7"/>
	<path id="path3501" class="st0" d="M248.3,396.2l-0.2,1.7l-0.2,1.7"/>
	<path id="path3503" class="st0" d="M247.7,401.8l-0.2,1.7l-0.2,1.7"/>
	<path id="path3505" class="st0" d="M247.1,409.2l-0.2,1.7l-0.2,1.7"/>
	<path id="path3507" class="st0" d="M246.3,416.9l-0.2,1.7l-0.2,1.7"/>
	<path id="path3509" class="st0" d="M245.6,424.8l-0.2,1.7l-0.2,1.7"/>
	<path id="path3511" class="st0" d="M245.1,430.1l-0.2,1.7l-0.2,1.7"/>
	<path id="path3513" class="st0" d="M242.9,435.3l1.7,0.2l1.7,0.2"/>
	<path id="path3515" class="st0" d="M242.7,437.7l1.7,0.2l1.7,0.2"/>
	<path id="path3517" class="st0" d="M242.5,440.2l1.7,0.2l1.7,0.2"/>
	<path id="path3519" class="st0" d="M244.1,422.4l1.7,0.2l1.7,0.2"/>
	<path id="path3521" class="st0" d="M244.9,414.5l1.7,0.2l1.7,0.2"/>
	<path id="path3523" class="st0" d="M245.6,406.5l1.7,0.2l1.7,0.2"/>
	<path id="path3525" class="st0" d="M246.8,393.9l1.7,0.2l1.7,0.2"/>
	<path id="path3527" class="st0" d="M247,391.5l1.7,0.2l1.7,0.2"/>
	<path id="path3529" class="st0" d="M247.7,383.7l1.7,0.2l1.7,0.2"/>
	<path id="path3531" class="st0" d="M248,381.3l1.7,0.2l1.7,0.2"/>
	<path id="path3533" class="st0" d="M248.6,374.3l1.7,0.2l1.7,0.2"/>
	<path id="path3535" class="st0" d="M248.8,371.9l1.7,0.2l1.7,0.2"/>
	<path id="path3537" class="st0" d="M250.6,353l1.7,0.2l1.7,0.2"/>
	<path id="path3539" class="st0" d="M250.8,350.6l1.7,0.2l1.7,0.2"/>
	<path id="path3541" class="st0" d="M251,348.2l1.7,0.2l1.7,0.2"/>
	<path id="path3543" class="st0" d="M251.3,345.8l1.7,0.2l1.7,0.2"/>
	<path id="path3545" class="st0" d="M252.2,335.4l1.7,0.2l1.7,0.2"/>
	<path id="path2681" class="st0" d="M302.6,242.7l-41,10.5"/>
	<path id="path3456" class="st0" d="M312.6,240.2l-1.6,0.4l-1.6,0.4"/>
	<path id="path3458" class="st0" d="M317.6,238.9l-1.6,0.4l-1.6,0.4"/>
	<path id="path3460" class="st0" d="M322.6,237.6L321,238l-1.6,0.4"/>
	<path id="path3462" class="st0" d="M327.5,236.3l-1.6,0.4l-1.6,0.4"/>
	<path id="path3464" class="st0" d="M332.5,235.1l-1.6,0.4l-1.6,0.4"/>
	<path id="path3466" class="st0" d="M342,232.6l-1.6,0.4l-1.6,0.4"/>
	<path id="path3468" class="st0" d="M349.1,230.8l-1.6,0.4l-1.6,0.4"/>
	<path id="path3470" class="st0" d="M354,229.5l-1.6,0.4l-1.6,0.4"/>
	<path id="path3472" class="st0" d="M361.4,227.6l-1.6,0.4l-1.6,0.4"/>
	<path id="path3474" class="st0" d="M368.8,225.7l-1.6,0.4l-1.6,0.4"/>
	<path id="path3476" class="st0" d="M375.9,223.9l-1.6,0.4l-1.6,0.4"/>
	<path id="path3478" class="st0" d="M381.1,222.6l-1.6,0.4l-1.6,0.4"/>
	<path id="path3480" class="st0" d="M386.9,221.1l-1.6,0.4l-1.6,0.4"/>
	<path id="path3482" class="st0" d="M398.8,218l-1.6,0.4l-1.6,0.4"/>
	<path id="path3484" class="st0" d="M406.6,216l-1.6,0.4l-1.6,0.4"/>
	<path id="path3486" class="st0" d="M416,213.6l-1.6,0.4l-1.6,0.4"/>
	<path id="path3490" class="st0" d="M410.5,213.3l0.4,1.6l0.4,1.6"/>
	<path id="path3492" class="st0" d="M408.2,213.9l0.4,1.6l0.4,1.6"/>
	<path id="path3494" class="st0" d="M400.5,215.9l0.4,1.6l0.4,1.6"/>
	<path id="path3496" class="st0" d="M393.2,217.7l0.4,1.6l0.4,1.6"/>
	<path id="path3498" class="st0" d="M390.9,218.3l0.4,1.6l0.4,1.6"/>
	<path id="path3500" class="st0" d="M388.5,218.9l0.4,1.6l0.4,1.6"/>
	<path id="path3502" class="st0" d="M370.5,223.6l0.4,1.6l0.4,1.6"/>
	<path id="path3504" class="st0" d="M363.2,225.4l0.4,1.6l0.4,1.6"/>
	<path id="path3506" class="st0" d="M355.9,227.3l0.4,1.6l0.4,1.6"/>
	<path id="path3508" class="st0" d="M343.4,230.5l0.4,1.6l0.4,1.6"/>
	<path id="path3510" class="st0" d="M336.7,232.2l0.4,1.6l0.4,1.6"/>
	<path id="path3512" class="st0" d="M334.4,232.8l0.4,1.6l0.4,1.6"/>
	<path id="path3514" class="st0" d="M307.4,239.8l0.4,1.6l0.4,1.6"/>
	<path id="path3516" class="st0" d="M282.8,246.1l0.4,1.6l0.4,1.6"/>
	<path id="path3518" class="st0" d="M266.4,240.7l-4.8,12.6"/>
	<path id="path3522" class="st0" d="M308.3,131.6l-0.6,1.6l-0.6,1.6"/>
	<path id="path3524" class="st0" d="M304.6,141.1l-0.6,1.6l-0.6,1.6"/>
	<path id="path3526" class="st0" d="M302.8,145.8l-0.6,1.6l-0.6,1.6"/>
	<path id="path3528" class="st0" d="M300.6,151.5l-0.6,1.6l-0.6,1.6"/>
	<path id="path3530" class="st0" d="M298.8,156.2l-0.6,1.6l-0.6,1.6"/>
	<path id="path3532" class="st0" d="M297,160.9l-0.6,1.6l-0.6,1.6"/>
	<path id="path3534" class="st0" d="M293.3,170.6l-0.6,1.6l-0.6,1.6"/>
	<path id="path3536" class="st0" d="M291.4,175.5l-0.6,1.6l-0.6,1.6"/>
	<path id="path3538" class="st0" d="M287.1,186.9l-0.6,1.6l-0.6,1.6"/>
	<path id="path3540" class="st0" d="M284.8,192.7l-0.6,1.6l-0.6,1.6"/>
	<path id="path3542" class="st0" d="M279.5,206.7l-0.6,1.6l-0.6,1.6"/>
	<path id="path3544" class="st0" d="M277.7,211.3l-0.6,1.6l-0.6,1.6"/>
	<path id="path3546" class="st0" d="M272.3,225.3l-0.6,1.6l-0.6,1.6"/>
	<path id="path3548" class="st0" d="M268.9,234.1l-0.6,1.6l-0.6,1.6"/>
	<path id="path3550" class="st0" d="M266.4,236l1.6,0.6l1.6,0.6"/>
	<path id="path3552" class="st0" d="M268.7,230.1l1.6,0.6l1.6,0.6"/>
	<path id="path3554" class="st0" d="M271.5,222.8l1.6,0.6l1.6,0.6"/>
	<path id="path3556" class="st0" d="M272.3,220.5l1.6,0.6l1.6,0.6"/>
	<path id="path3558" class="st0" d="M273.2,218.3l1.6,0.6l1.6,0.6"/>
	<path id="path3560" class="st0" d="M274.1,216l1.6,0.6l1.6,0.6"/>
	<path id="path3562" class="st0" d="M278.7,204l1.6,0.6l1.6,0.6"/>
	<path id="path3564" class="st0" d="M279.5,201.8l1.6,0.6l1.6,0.6"/>
	<path id="path3566" class="st0" d="M280.4,199.5l1.6,0.6l1.6,0.6"/>
	<path id="path3568" class="st0" d="M281.3,197.3l1.6,0.6l1.6,0.6"/>
	<path id="path3570" class="st0" d="M286.2,184.5l1.6,0.6l1.6,0.6"/>
	<path id="path3572" class="st0" d="M287.1,182.2l1.6,0.6l1.6,0.6"/>
	<path id="path3574" class="st0" d="M287.9,179.9l1.6,0.6l1.6,0.6"/>
	<path id="path3576" class="st0" d="M292.6,167.8l1.6,0.6l1.6,0.6"/>
	<path id="path3578" class="st0" d="M293.4,165.6l1.6,0.6l1.6,0.6"/>
	<path id="path3580" class="st0" d="M303.7,138.8l1.6,0.6l1.6,0.6"/>
	<path id="path3582" class="st0" d="M304.5,136.8l1.6,0.6l1.6,0.6"/>
	<path id="path3584" class="st0" d="M307.3,129.6l1.6,0.6l1.6,0.6"/>
	<path id="path3586" class="st0" d="M265.4,249l-3.8,4.3"/>
	<path id="path3590" class="st0" d="M278.3,234.4l-1.1,1.3l-1.1,1.3"/>
	<path id="path3592" class="st0" d="M281.7,230.6l-1.1,1.3l-1.1,1.3"/>
	<path id="path3594" class="st0" d="M288.2,223.3l-1.1,1.3l-1.1,1.3"/>
	<path id="path3596" class="st0" d="M291.6,219.4l-1.1,1.3l-1.1,1.3"/>
	<path id="path3598" class="st0" d="M296.8,213.5l-1.1,1.3l-1.1,1.3"/>
	<path id="path3600" class="st0" d="M303.6,205.8l-1.1,1.3l-1.1,1.3"/>
	<path id="path3602" class="st0" d="M308.7,200.1l-1.1,1.3l-1.1,1.3"/>
	<path id="path3604" class="st0" d="M317.4,190.3l-1.1,1.3l-1.1,1.3"/>
	<path id="path3606" class="st0" d="M322.3,184.7l-1.1,1.3l-1.1,1.3"/>
	<path id="path3608" class="st0" d="M326,180.6l-1.1,1.3l-1.1,1.3"/>
	<path id="path3610" class="st0" d="M331,175l-1.1,1.3l-1.1,1.3"/>
	<path id="path3612" class="st0" d="M339.7,165.1l-1.1,1.3l-1.1,1.3"/>
	<path id="path3614" class="st0" d="M343.2,161.1l-1.1,1.3l-1.1,1.3"/>
	<path id="path3616" class="st0" d="M346.9,157l-1.1,1.3l-1.1,1.3"/>
	<path id="path3618" class="st0" d="M334.5,168.4l1.3,1.1l1.3,1.1"/>
	<path id="path3620" class="st0" d="M332.9,170.3l1.3,1.1l1.3,1.1"/>
	<path id="path3622" class="st0" d="M331.3,172.1l1.3,1.1l1.3,1.1"/>
	<path id="path3624" class="st0" d="M326.1,178l1.3,1.1l1.3,1.1"/>
	<path id="path3626" class="st0" d="M317.4,187.7l1.3,1.1l1.3,1.1"/>
	<path id="path3628" class="st0" d="M312.2,193.7l1.3,1.1l1.3,1.1"/>
	<path id="path3630" class="st0" d="M310.5,195.5l1.3,1.1l1.3,1.1"/>
	<path id="path3632" class="st0" d="M309,197.3l1.3,1.1l1.3,1.1"/>
	<path id="path3634" class="st0" d="M303.8,203.1l1.3,1.1l1.3,1.1"/>
	<path id="path3636" class="st0" d="M298.7,208.8l1.3,1.1l1.3,1.1"/>
	<path id="path3638" class="st0" d="M297.1,210.6l1.3,1.1l1.3,1.1"/>
	<path id="path3640" class="st0" d="M291.9,216.5l1.3,1.1l1.3,1.1"/>
	<path id="path3642" class="st0" d="M283.3,226.2l1.3,1.1l1.3,1.1"/>
	<path id="path3644" class="st0" d="M273.6,237.2l1.3,1.1l1.3,1.1"/>
	<path id="path3646" class="st0" d="M281.7,228l1.3,1.1l1.3,1.1"/>
	<path id="path3648" class="st0" d="M265.2,257.4l-3.6-4.1"/>
	<path id="path3652" class="st0" d="M269,261.7l-1.1-1.3l-1.1-1.3"/>
	<path id="path3654" class="st0" d="M276.3,270l-1.1-1.3l-1.1-1.3"/>
	<path id="path3656" class="st0" d="M282.8,277.5l-1.1-1.3l-1.1-1.3"/>
	<path id="path3658" class="st0" d="M286.2,281.4l-1.1-1.3l-1.1-1.3"/>
	<path id="path3660" class="st0" d="M291,286.8l-1.1-1.3l-1.1-1.3"/>
	<path id="path3662" class="st0" d="M294.2,290.5l-1.1-1.3L292,288"/>
	<path id="path3664" class="st0" d="M300.8,298l-1.1-1.3l-1.1-1.3"/>
	<path id="path3666" class="st0" d="M304,301.6l-1.1-1.3l-1.1-1.3"/>
	<path id="path3668" class="st0" d="M307.2,305.2l-1.1-1.3l-1.1-1.3"/>
	<path id="path3670" class="st0" d="M312.1,310.9l-1.1-1.3l-1.1-1.3"/>
	<path id="path3672" class="st0" d="M317.2,316.7l-1.1-1.3l-1.1-1.3"/>
	<path id="path3674" class="st0" d="M324.9,325.5l-1.1-1.3l-1.1-1.3"/>
	<path id="path3676" class="st0" d="M331.1,332.6l-1.1-1.3l-1.1-1.3"/>
	<path id="path3678" class="st0" d="M338.4,338.3l-1.3,1.1l-1.3,1.1"/>
	<path id="path3680" class="st0" d="M336.8,336.5l-1.3,1.1l-1.3,1.1"/>
	<path id="path3682" class="st0" d="M335.2,334.7l-1.3,1.1l-1.3,1.1"/>
	<path id="path3684" class="st0" d="M333.6,332.9l-1.3,1.1l-1.3,1.1"/>
	<path id="path3686" class="st0" d="M329,327.6l-1.3,1.1l-1.3,1.1"/>
	<path id="path3688" class="st0" d="M327.4,325.8l-1.3,1.1l-1.3,1.1"/>
	<path id="path3690" class="st0" d="M322.8,320.5l-1.3,1.1l-1.3,1.1"/>
	<path id="path3692" class="st0" d="M321.1,318.7l-1.3,1.1l-1.3,1.1"/>
	<path id="path3694" class="st0" d="M319.6,316.9l-1.3,1.1l-1.3,1.1"/>
	<path id="path3696" class="st0" d="M314.9,311.6l-1.3,1.1l-1.3,1.1"/>
	<path id="path3698" class="st0" d="M309.6,305.5l-1.3,1.1l-1.3,1.1"/>
	<path id="path3700" class="st0" d="M298.4,292.8l-1.3,1.1l-1.3,1.1"/>
	<path id="path3702" class="st0" d="M296.9,291l-1.3,1.1l-1.3,1.1"/>
	<path id="path3704" class="st0" d="M288.6,281.5l-1.3,1.1l-1.3,1.1"/>
	<path id="path3706" class="st0" d="M280.6,272.4l-1.3,1.1l-1.3,1.1"/>
	<path id="path3708" class="st0" d="M279,270.6l-1.3,1.1l-1.3,1.1"/>
	<path id="path3710" class="st0" d="M273.9,264.8l-1.3,1.1l-1.3,1.1"/>
	<path id="path3712" class="st0" d="M269.1,259.3l-1.3,1.1l-1.3,1.1"/>
	<path id="path3716" class="st0" d="M259,256.3l2.5-3.1"/>
	<path id="path3720" class="st0" d="M253,263.7l1.1-1.3l1.1-1.3"/>
	<path id="path3722" class="st0" d="M248.1,269.6l1.1-1.3l1.1-1.3"/>
	<path id="path3724" class="st0" d="M243.1,275.7l1.1-1.3l1.1-1.3"/>
	<path id="path3726" class="st0" d="M236.8,283.4l1.1-1.3l1.1-1.3"/>
	<path id="path3728" class="st0" d="M230.4,291.1l1.1-1.3l1.1-1.3"/>
	<path id="path3730" class="st0" d="M226.9,295.4l1.1-1.3l1.1-1.3"/>
	<path id="path3732" class="st0" d="M220.6,303l1.1-1.3l1.1-1.3"/>
	<path id="path3734" class="st0" d="M214,311l1.1-1.3l1.1-1.3"/>
	<path id="path3736" class="st0" d="M210.6,315.1l1.1-1.3l1.1-1.3"/>
	<path id="path3738" class="st0" d="M205.7,321.1l1.1-1.3l1.1-1.3"/>
	<path id="path3740" class="st0" d="M200.7,327.2l1.1-1.3l1.1-1.3"/>
	<path id="path3742" class="st0" d="M197.3,331.3l1.1-1.3l1.1-1.3"/>
	<path id="path3744" class="st0" d="M194.3,334.9l1.1-1.3l1.1-1.3"/>
	<path id="path3746" class="st0" d="M191.3,338.6l1.1-1.3l1.1-1.3"/>
	<path id="path3748" class="st0" d="M191.4,341.1l-1.3-1.1l-1.3-1.1"/>
	<path id="path3750" class="st0" d="M189.7,343.1l-1.3-1.1l-1.3-1.1"/>
	<path id="path3752" class="st0" d="M205.6,323.9l-1.3-1.1l-1.3-1.1"/>
	<path id="path3754" class="st0" d="M210.6,317.8l-1.3-1.1l-1.3-1.1"/>
	<path id="path3756" class="st0" d="M219,307.5l-1.3-1.1l-1.3-1.1"/>
	<path id="path3758" class="st0" d="M220.5,305.8l-1.3-1.1l-1.3-1.1"/>
	<path id="path3760" class="st0" d="M225.3,299.9l-1.3-1.1l-1.3-1.1"/>
	<path id="path3762" class="st0" d="M226.9,298l-1.3-1.1l-1.3-1.1"/>
	<path id="path3764" class="st0" d="M235.3,287.8l-1.3-1.1l-1.3-1.1"/>
	<path id="path3766" class="st0" d="M236.8,286l-1.3-1.1l-1.3-1.1"/>
	<path id="path3768" class="st0" d="M241.5,280.3l-1.3-1.1l-1.3-1.1"/>
	<path id="path3770" class="st0" d="M243,278.4l-1.3-1.1l-1.3-1.1"/>
	<path id="path3772" class="st0" d="M247.8,272.6l-1.3-1.1l-1.3-1.1"/>
	<path id="path3774" class="st0" d="M252.9,266.4l-1.3-1.1l-1.3-1.1"/>
	<path id="path3776" class="st0" d="M257.7,260.6l-1.3-1.1l-1.3-1.1"/>
	<path id="path3778" class="st0" d="M249.6,257.2l11.9-3.9"/>
	<path id="path3782" class="st0" d="M240.9,260.1l1.6-0.5l1.6-0.5"/>
	<path id="path3784" class="st0" d="M231.2,263.2l1.6-0.5l1.6-0.5"/>
	<path id="path3786" class="st0" d="M221.8,266.3l1.6-0.5l1.6-0.5"/>
	<path id="path3788" class="st0" d="M217.1,267.8l1.6-0.5l1.6-0.5"/>
	<path id="path3790" class="st0" d="M205.4,271.7l1.6-0.5l1.6-0.5"/>
	<path id="path3792" class="st0" d="M196.6,274.5l1.6-0.5l1.6-0.5"/>
	<path id="path3794" class="st0" d="M189.4,276.9l1.6-0.5l1.6-0.5"/>
	<path id="path3796" class="st0" d="M182.4,279.2l1.6-0.5l1.6-0.5"/>
	<path id="path3798" class="st0" d="M175.3,281.5l1.6-0.5l1.6-0.5"/>
	<path id="path3800" class="st0" d="M161.8,285.9l1.6-0.5l1.6-0.5"/>
	<path id="path3802" class="st0" d="M157.4,287.4l1.6-0.5l1.6-0.5"/>
	<path id="path3804" class="st0" d="M153,288.8l1.6-0.5l1.6-0.5"/>
	<path id="path3806" class="st0" d="M145.5,291.3l1.6-0.5l1.6-0.5"/>
	<path id="path3808" class="st0" d="M141.8,294.2l-0.5-1.6l-0.5-1.6"/>
	<path id="path3810" class="st0" d="M144.1,293.5l-0.5-1.6l-0.5-1.6"/>
	<path id="path3812" class="st0" d="M151.2,291.2l-0.5-1.6l-0.5-1.6"/>
	<path id="path3814" class="st0" d="M167.3,285.9l-0.5-1.6l-0.5-1.6"/>
	<path id="path3816" class="st0" d="M169.4,285.2l-0.5-1.6l-0.5-1.6"/>
	<path id="path3818" class="st0" d="M171.8,284.4l-0.5-1.6l-0.5-1.6"/>
	<path id="path3820" class="st0" d="M174,283.7l-0.5-1.6l-0.5-1.6"/>
	<path id="path3822" class="st0" d="M181.1,281.4l-0.5-1.6l-0.5-1.6"/>
	<path id="path3824" class="st0" d="M188.2,279.1l-0.5-1.6l-0.5-1.6"/>
	<path id="path3826" class="st0" d="M195.3,276.7l-0.5-1.6l-0.5-1.6"/>
	<path id="path3828" class="st0" d="M202.4,274.4l-0.5-1.6l-0.5-1.6"/>
	<path id="path3830" class="st0" d="M204.7,273.7l-0.5-1.6l-0.5-1.6"/>
	<path id="path3832" class="st0" d="M211.4,271.5l-0.5-1.6l-0.5-1.6"/>
	<path id="path3834" class="st0" d="M213.6,270.8l-0.5-1.6l-0.5-1.6"/>
	<path id="path3836" class="st0" d="M215.8,270l-0.5-1.6l-0.5-1.6"/>
	<path id="path3838" class="st0" d="M227.7,266.1l-0.5-1.6l-0.5-1.6"/>
	<path id="path3840" class="st0" d="M229.9,265.4l-0.5-1.6l-0.5-1.6"/>
	<path id="path3842" class="st0" d="M237.1,263.1l-0.5-1.6l-0.5-1.6"/>
	<path id="path3844" class="st0" d="M254.2,257.4l-0.5-1.6l-0.5-1.6"/>
	<path id="path3852" class="st0" d="M190.2,254.5l-1.7,0.1l-1.7,0.1"/>
	<path id="path3854" class="st0" d="M185.5,254.8l-1.7,0.1l-1.7,0.1"/>
	<path id="path3856" class="st0" d="M171.8,255.8l-1.7,0.1l-1.7,0.1"/>
	<path id="path3858" class="st0" d="M164.7,256.3l-1.7,0.1l-1.7,0.1"/>
	<path id="path3860" class="st0" d="M159.3,256.7l-1.7,0.1l-1.7,0.1"/>
	<path id="path3862" class="st0" d="M154.4,257l-1.7,0.1l-1.7,0.1"/>
	<path id="path3864" class="st0" d="M144.1,257.7l-1.7,0.1l-1.7,0.1"/>
	<path id="path3866" class="st0" d="M137.6,258.2l-1.7,0.1l-1.7,0.1"/>
	<path id="path3868" class="st0" d="M130.6,258.7l-1.7,0.1l-1.7,0.1"/>
	<path id="path3870" class="st0" d="M125.6,259l-1.7,0.1l-1.7,0.1"/>
	<path id="path3872" class="st0" d="M120.1,259.4l-1.7,0.1l-1.7,0.1"/>
	<path id="path3874" class="st0" d="M112.6,260l-1.7,0.1l-1.7,0.1"/>
	<path id="path3876" class="st0" d="M107.4,260.3l-1.7,0.1l-1.7,0.1"/>
	<path id="path3878" class="st0" d="M96.9,261l-1.7,0.1l-1.7,0.1"/>
	<path id="path3880" class="st0" d="M91.4,261.4l-1.7,0.1l-1.7,0.1"/>
	<path id="path3882" class="st0" d="M86.7,261.8l-1.7,0.1l-1.7,0.1"/>
	<path id="path3884" class="st0" d="M79.1,262.3l-1.7,0.1l-1.7,0.1"/>
	<path id="path3886" class="st0" d="M74.2,262.6l-1.7,0.1l-1.7,0.1"/>
	<path id="path3888" class="st0" d="M80.4,260.5l0.1,1.7l0.1,1.7"/>
	<path id="path3890" class="st0" d="M102.4,259l0.1,1.7l0.1,1.7"/>
	<path id="path3892" class="st0" d="M100.2,259.1l0.1,1.7l0.1,1.7"/>
	<path id="path3894" class="st0" d="M98,259.3l0.1,1.7l0.1,1.7"/>
	<path id="path3896" class="st0" d="M114.4,258.1l0.1,1.7l0.1,1.7"/>
	<path id="path3898" class="st0" d="M131.8,256.9l0.1,1.7l0.1,1.7"/>
	<path id="path3900" class="st0" d="M139.1,256.4l0.1,1.7l0.1,1.7"/>
	<path id="path3902" class="st0" d="M146.1,255.9l0.1,1.7l0.1,1.7"/>
	<path id="path3904" class="st0" d="M148.4,255.8l0.1,1.7l0.1,1.7"/>
	<path id="path3906" class="st0" d="M165.9,254.5l0.1,1.7l0.1,1.7"/>
	<path id="path3908" class="st0" d="M173.4,254l0.1,1.7l0.1,1.7"/>
	<path id="path3910" class="st0" d="M175.6,253.9l0.1,1.7l0.1,1.7"/>
	<path id="path3912" class="st0" d="M177.7,253.7l0.1,1.7l0.1,1.7"/>
	<path id="path3914" class="st0" d="M179.7,253.6l0.1,1.7l0.1,1.7"/>
	<path id="path3916" class="st0" d="M192.1,252.7l0.1,1.7l0.1,1.7"/>
	<path id="path3918" class="st0" d="M202.3,255.8l0.1,1.7l0.1,1.7"/>
	<path id="path3850" class="st0" d="M261.6,253.3l-13.2,0.9 M194.6,258l50.2-3.5"/>
	<path id="path4219" class="st1" d="M805.6,250.6v5.3"/>
	<path id="path3383" class="st0" d="M480.9,320.5l1.6,0.5l1.6,0.5"/>
	<path id="path3385" class="st0" d="M485.4,321.9l1.6,0.5l1.6,0.5"/>
	<path id="path3387" class="st0" d="M489.9,323.3l1.6,0.5l1.6,0.5"/>
	<path id="path3389" class="st0" d="M498.7,326l1.6,0.5l1.6,0.5"/>
	<path id="path3391" class="st0" d="M509.7,329.3l1.6,0.5l1.6,0.5"/>
	<path id="path3393" class="st0" d="M516.8,331.5l1.6,0.5l1.6,0.5"/>
	<path id="path3395" class="st0" d="M523.9,333.7l1.6,0.5l1.6,0.5"/>
	<path id="path3413" class="st0" d="M478.8,321.6l0.5-1.6l0.5-1.6"/>
	<path id="path3415" class="st0" d="M494.4,326.4l0.5-1.6l0.5-1.6"/>
	<path id="path3417" class="st0" d="M496.5,327l0.5-1.6l0.5-1.6"/>
	<path id="path3419" class="st0" d="M502.8,329l0.5-1.6l0.5-1.6"/>
	<path id="path3421" class="st0" d="M505.1,329.7l0.5-1.6l0.5-1.6"/>
	<path id="path3423" class="st0" d="M507.5,330.4l0.5-1.6l0.5-1.6"/>
	<path id="path3425" class="st0" d="M514.5,332.6l0.5-1.6l0.5-1.6"/>
	<path id="path3427" class="st0" d="M521.6,334.7l0.5-1.6l0.5-1.6"/>
</g>
</svg>
