<?xml version="1.0" encoding="utf-8"?>
<!-- Generator: Adobe Illustrator 23.0.4, SVG Export Plug-In . SVG Version: 6.00 Build 0)  -->
<svg version="1.1" id="Layer_1" xmlns="http://www.w3.org/2000/svg" xmlns:xlink="http://www.w3.org/1999/xlink" x="0px" y="0px"
	 viewBox="0 0 512 512" style="enable-background:new 0 0 512 512;" xml:space="preserve">
<style type="text/css">
	.st0{fill:#989898;}
</style>
<path class="st0" d="M286.4,221.8c0-0.1-0.1-0.2-0.1-0.3L172.2,1.5c-0.5-0.9-1.4-1.5-2.4-1.5s-2,0.6-2.4,1.5l-114.1,220
	c-0.1,0.1-0.1,0.2-0.1,0.3c-12,32.2-10.8,67.2,3.5,98.4c14.3,31.3,39.9,55.1,72.1,67.1c13.2,4.9,27,7.6,41.1,8.1c0,0,0.1,0,0.1,0
	s0.1,0,0.1,0c14.1-0.4,27.9-3.1,41.1-8.1c32.2-12,57.8-35.9,72.1-67.1C297.2,288.9,298.5,254,286.4,221.8z"/>
<g>
	<path class="st0" d="M463.1,280.8c0-0.1-0.1-0.2-0.1-0.3L406.7,172c-0.5-0.9-1.4-1.5-2.4-1.5s-2,0.6-2.4,1.5l-56.3,108.5
		c-0.1,0.1-0.1,0.2-0.1,0.3c-6.1,16.2-5.4,33.8,1.7,49.6c7.2,15.8,20.1,27.8,36.3,33.8c6.6,2.5,13.6,3.8,20.7,4.1c0,0,0.1,0,0.1,0
		s0.1,0,0.1,0c7.1-0.2,14.1-1.6,20.7-4.1C458.5,351.7,475.6,314.3,463.1,280.8z"/>
</g>
<path class="st0" d="M463.1,280.8c0-0.1-0.1-0.2-0.1-0.3L406.7,172c-0.5-0.9-1.4-1.5-2.4-1.5c0,0,0,0,0,0l-22.2,128.8
	c0,0.1,0,0.2,0,0.4c-0.9,19.1,5.6,37.4,18.4,51.5c5.5,6.1,11.9,11,18.8,14.8c1.9-0.5,3.8-1.1,5.7-1.8
	C458.5,351.7,475.6,314.3,463.1,280.8z"/>
<path class="st0" d="M350.9,452.1l-37.5-72.3c-0.5-0.9-1.4-1.5-2.4-1.5s-2,0.6-2.4,1.5L271,452.1c-0.1,0.1-0.1,0.2-0.1,0.3
	c-8.5,22.8,3.1,48.3,25.9,56.8c4.5,1.7,9.3,2.6,14.1,2.8c0,0,0.1,0,0.1,0s0.1,0,0.1,0c4.8-0.1,9.6-1.1,14.1-2.8
	c22.8-8.5,34.4-34,25.9-56.8C351,452.3,351,452.2,350.9,452.1z"/>
<path class="st0" d="M351,452.4c0-0.1-0.1-0.2-0.1-0.3l-37.5-72.3c-0.5-0.9-1.4-1.5-2.4-1.5c-0.3,0-0.6,0.1-0.8,0.1l-15.4,90.6
	c0,0.1,0,0.2,0,0.4c-0.8,17.1,7.2,32.7,20,42.3c3.6-0.4,7.1-1.2,10.5-2.5C347.9,500.7,359.6,475.2,351,452.4z"/>
</svg>
