<?xml version="1.0" encoding="utf-8"?>
<!-- Generator: Adobe Illustrator 23.0.4, SVG Export Plug-In . SVG Version: 6.00 Build 0)  -->
<svg version="1.1" id="Capa_1" xmlns="http://www.w3.org/2000/svg" xmlns:xlink="http://www.w3.org/1999/xlink" x="0px" y="0px"
	 viewBox="0 0 512 512" style="enable-background:new 0 0 512 512;" xml:space="preserve">
<style type="text/css">
	.st0{fill:#989898;}
	.st1{fill:#E9EAEF;}
</style>
<path class="st0" d="M326.2,36.1H53.1v-18C53.1,8.1,61.2,0,71.2,0h255.1c10,0,18.1,8.1,18.1,18.1l0,0
	C344.3,28,336.2,36.1,326.2,36.1z"/>
<path class="st0" d="M467.5,63.3H194.4V45.2c0-10,8.1-18.1,18.1-18.1h255.1c10,0,18.1,8.1,18.1,18.1l0,0
	C485.5,55.2,477.5,63.3,467.5,63.3z"/>
<polygon class="st0" points="130,397.6 30.9,397.6 31.4,350.5 35.1,59 125.7,59 "/>
<g>
	<polygon class="st1" points="129.1,332.4 31.7,332.4 32.4,274.7 32.4,273.7 32.6,261.6 128.3,261.6 	"/>
	<polygon class="st1" points="127.3,190.8 33.5,190.8 34.3,120 126.5,120 	"/>
</g>
<polygon class="st1" points="173.5,423.7 272.6,423.7 268.4,85.1 177.8,85.1 "/>
<polygon class="st0" points="176.1,216.9 270,216.9 269.1,146.1 177,146.1 "/>
<polygon class="st0" points="409.7,199.1 409.7,301.2 307.6,199.1 307.6,301.2 205.6,199.1 205.6,301.2 0.3,301.2 0.3,512 
	511.7,512 511.7,301.2 "/>
</svg>
