<?xml version="1.0" encoding="utf-8"?>
<!-- Generator: Adobe Illustrator 23.0.4, SVG Export Plug-In . SVG Version: 6.00 Build 0)  -->
<svg version="1.1" id="Capa_1" xmlns="http://www.w3.org/2000/svg" xmlns:xlink="http://www.w3.org/1999/xlink" x="0px" y="0px"
	 viewBox="0 0 512 512" style="enable-background:new 0 0 512 512;" xml:space="preserve">
<style type="text/css">
	.st0{fill:#989898;}
	.st1{fill:#D8D8D8;}
</style>
<g>
	<g>
		<path class="st0" d="M202.6,143.7c-17.1-10.2-17.1-35,0-45.2c2.9-1.7,1.4-6.2-1.9-5.9c-19.9,1.8-34.4-18.2-26.6-36.6
			c1.3-3.1-2.5-5.8-5-3.6c-15,13.1-38.6,5.5-43-14c-0.7-3.3-5.4-3.3-6.2,0c-4.4,19.4-28,27.1-43,14c-2.5-2.2-6.3,0.5-5,3.6
			c7.9,18.3-6.7,38.4-26.6,36.6c-3.4-0.3-4.8,4.1-1.9,5.9c17.1,10.2,17.1,35,0,45.2c-2.9,1.7-1.4,6.2,1.9,5.9
			c19.9-1.8,34.4,18.2,26.6,36.6c-1.3,3.1,2.5,5.8,5,3.6c15-13.1,38.6-5.5,43,14c0.7,3.3,5.4,3.3,6.2,0c4.4-19.4,28-27.1,43-14
			c2.5,2.2,6.3-0.5,5-3.6c-7.9-18.3,6.7-38.4,26.6-36.6C204,149.9,205.5,145.4,202.6,143.7z M123.1,156c-19.3,0-34.9-15.6-34.9-34.9
			s15.6-34.9,34.9-34.9s34.9,15.6,34.9,34.9C157.9,140.4,142.3,156,123.1,156z"/>
	</g>
</g>
<g>
	<g>
		<path class="st1" d="M376,315.4V62.2C376,27.8,348.2,0,313.9,0s-62.2,27.8-62.2,62.2v253.2c-27.8,19.6-46,51.9-46,88.5
			c0,59.7,48.4,108.1,108.1,108.1S422,463.6,422,403.9C422,367.3,403.8,334.9,376,315.4z M313.9,476.6c-41.2,0-74.7-33.5-74.7-74.7
			c0-31.3,19.4-59.1,48.6-70V62.2c0-14.4,11.7-26.1,26.1-26.1S340,47.8,340,62.2V332c29.2,10.9,48.6,38.7,48.6,70
			C388.5,443.1,355,476.6,313.9,476.6z"/>
	</g>
</g>
<path class="st0" d="M287.8,109.9v222c-29.2,10.9-48.6,38.7-48.6,70c0,41.2,33.5,74.7,74.7,74.7s74.7-33.5,74.7-74.7
	c0-31.3-19.4-59.1-48.6-70v-222L287.8,109.9L287.8,109.9z"/>
<g>
	<path class="st0" d="M462.1,180.2h-44.8c-4.3,0-7.7-3.5-7.7-7.7s3.5-7.7,7.7-7.7h44.8c4.3,0,7.7,3.5,7.7,7.7
		S466.4,180.2,462.1,180.2z"/>
	<path class="st0" d="M437.6,117.6h-20.4c-4.3,0-7.7-3.5-7.7-7.7s3.5-7.7,7.7-7.7h20.4c4.3,0,7.7,3.5,7.7,7.7
		S441.9,117.6,437.6,117.6z"/>
	<path class="st0" d="M444.8,55h-27.6c-4.3,0-7.7-3.5-7.7-7.7s3.5-7.7,7.7-7.7h27.6c4.3,0,7.7,3.5,7.7,7.7S449.1,55,444.8,55z"/>
	<path class="st0" d="M444.8,305.5h-27.6c-4.3,0-7.7-3.5-7.7-7.7c0-4.3,3.5-7.7,7.7-7.7h27.6c4.3,0,7.7,3.5,7.7,7.7
		C452.6,302,449.1,305.5,444.8,305.5z"/>
	<path class="st0" d="M437.6,242.8h-20.4c-4.3,0-7.7-3.5-7.7-7.7s3.5-7.7,7.7-7.7h20.4c4.3,0,7.7,3.5,7.7,7.7
		S441.9,242.8,437.6,242.8z"/>
</g>
</svg>
