<?xml version="1.0" encoding="utf-8"?>
<!-- Generator: Adobe Illustrator 23.0.4, SVG Export Plug-In . SVG Version: 6.00 Build 0)  -->
<svg version="1.1" id="Capa_1" xmlns="http://www.w3.org/2000/svg" xmlns:xlink="http://www.w3.org/1999/xlink" x="0px" y="0px"
	 viewBox="0 0 4787.3 1531.8" style="enable-background:new 0 0 4787.3 1531.8;" xml:space="preserve">
<style type="text/css">
	.st0{fill:#333333;}
	.st1{fill:none;stroke:#333333;stroke-width:82;stroke-linecap:round;stroke-linejoin:round;}
	.st2{fill:none;stroke:#333333;stroke-width:82;stroke-linecap:round;}
</style>
<title>logo_1</title>
<g>
	<g id="Capa_1-2">
		<path class="st0" d="M1074.5,734.9c0-229.3,174.3-384.9,379.7-384.9c221,0,318.5,142.1,342.4,248L1642,646.7
			c-11.4-50.9-58.1-137-187.7-137c-98.6,0-209.6,70.5-209.6,225.1c0,138,101.7,217.9,211.7,217.9c127.6,0,178.4-85.1,193-138
			l156.7,44.6c-23.9,101.7-121.5,257.3-349.7,257.3C1244.6,1116.7,1074.5,964.2,1074.5,734.9z"/>
		<path class="st0" d="M2421.1,842.8c0,159.8-119.3,273.9-273.9,273.9c-153.5,0-273.9-114.1-273.9-273.9s120.3-272.9,273.9-272.9
			C2301.8,569.9,2421.1,683,2421.1,842.8z M2263.4,842.8c0-87.2-56-127.6-116.2-127.6c-59.1,0-116.2,40.5-116.2,127.6
			c0,86.1,57.1,128.6,116.2,128.6C2207.4,971.4,2263.4,929.9,2263.4,842.8L2263.4,842.8z"/>
		<path class="st0" d="M3052.9,842.8c0,159.8-119.3,273.9-273.9,273.9c-153.6,0-273.9-114.1-273.9-273.9s120.3-272.9,273.9-272.9
			C2933.6,569.9,3052.9,683,3052.9,842.8z M2895.2,842.8c0-87.2-56-127.6-116.2-127.6c-59.1,0-116.2,40.5-116.2,127.6
			c0,86.1,57.1,128.6,116.2,128.6C2839.2,971.4,2895.2,929.9,2895.2,842.8z"/>
		<path class="st0" d="M3174.3,1298.2V585.5h152.5v52.9c21.8-33.2,77.8-65.4,151.5-65.4c149.4,0,239.7,114.1,239.7,268.7
			c0,157.7-101.7,270.8-245.9,270.8c-66.4,0-116.2-22.8-140.1-51.9v237.6L3174.3,1298.2z M3446.1,715.2
			c-61.2,0-116.2,41.5-116.2,127.6c0,85.1,55,128.6,116.2,128.6c62.2,0,117.2-42.5,117.2-128.6S3508.4,715.2,3446.1,715.2
			L3446.1,715.2z"/>
		<path class="st0" d="M4308.2,952.7c-24.9,89.2-106.9,163.9-237.6,163.9c-142.1,0-268.7-101.7-268.7-274.9
			c0-166,123.5-271.8,257.3-271.8c159.8,0,258.3,98.6,258.3,264.6c0,21.8-2.1,45.6-3.1,48.8h-359c3.1,58.1,56,99.6,117.2,99.6
			c57.1,0,89.2-27,103.8-67.4L4308.2,952.7z M4165.1,781.5c-2.1-39.4-29-87.1-103.8-87.1c-66.4,0-99.6,48.8-102.7,87.1H4165.1z"/>
		<path class="st0" d="M4766.8,741.1c-17.6-4.2-34.2-5.2-49.8-5.2c-63.3,0-120.3,37.3-120.3,140v225.2H4439V585.5h152.5V655
			c27-58.1,92.3-74.7,133.8-74.7c15.6,0,31.1,2.1,41.5,5.2V741.1z"/>
		<g id="g5863">
			<path id="path3347" class="st1" d="M674.7,1230.2c11,8.3,22.2,16.3,33.6,24.1l-17.6-58.9 M690.4,1194.6L389.4,233.5
				c-169,402.6,23.4,829.4,318.9,1021.4"/>
			<path id="rect4157" class="st2" d="M75.1,666.6l115.3-36.1c1.4-0.4,2.9,0.3,3.4,1.8l127.9,408.3c0.4,1.4-0.3,2.9-1.8,3.4
				L204.6,1080c-1.4,0.4-2.9-0.3-3.4-1.8L73.3,670C72.9,668.5,73.7,667,75.1,666.6z"/>
			<path id="path4200" class="st2" d="M819.1,655.9l-270,86"/>
			<path id="path4207" class="st2" d="M818.7,656l-324.2-88.4 M819,655.8l-76.5-5.4"/>
			<path id="path4209" class="st2" d="M819.1,655.9L608.2,930.3"/>
		</g>
	</g>
</g>
</svg>
