<svg xmlns="http://www.w3.org/2000/svg" viewBox="0 0 3761.95 1260.85"><defs><style>.cls-1{fill:#333;}.cls-2,.cls-3{fill:none;stroke:#333;stroke-linecap:round;stroke-width:82px;}.cls-2{stroke-linejoin:round;}</style></defs><title>logo_5_1</title><g id="Capa_2" data-name="Capa 2"><g id="Capa_1-2" data-name="Capa 1"><path class="cls-1" d="M2178.86,1260.85V534.33h155.45v53.94c22.21-33.84,79.32-66.63,154.4-66.63C2641,521.64,2733,638,2733,795.54c0,160.75-103.64,276-250.63,276-67.68,0-118.45-23.27-142.77-52.88v242.17Zm277.07-594.33c-62.4,0-118.44,42.31-118.44,130.08,0,86.72,56,131.13,118.44,131.13,63.45,0,119.5-43.36,119.5-131.13S2519.38,666.52,2455.93,666.52Z"/><path class="cls-1" d="M3314.63,908.7c-25.38,90.94-108.92,167.09-242.17,167.09-144.88,0-273.9-103.64-273.9-280.25,0-169.2,125.84-277.07,262.27-277.07,162.85,0,263.32,100.47,263.32,269.67,0,22.21-2.12,46.53-3.17,49.7H2955.07c3.17,59.22,57.11,101.53,119.5,101.53,58.17,0,90.95-27.5,105.76-68.74ZM3168.69,734.21c-2.11-40.19-29.61-88.84-105.75-88.84-67.68,0-101.52,49.71-104.7,88.84Z"/><path class="cls-1" d="M3762,693c-18-4.23-34.9-5.29-50.76-5.29-64.51,0-122.67,38.08-122.67,142.77v229.48H3427.77V534.33h155.46v70.86c27.5-59.22,94.12-76.14,136.42-76.14,15.86,0,31.73,2.11,42.3,5.28Z"/><g id="g5863"><path id="path3347" class="cls-2" d="M452.61,1077.5q12.11,16.61,25.06,32.84l.33-61.5m0-.73L470.69,41c-279.18,335.72-219.78,800.06,6.76,1070"/><rect id="rect4157" class="cls-3" x="42.55" y="362.95" width="126.18" height="433.23" rx="2.69" transform="translate(-4.2 0.78) rotate(-0.42)"/><path id="path4200" class="cls-3" d="M758.37,570.38l-283.32,3.37"/><path id="path4207" class="cls-3" d="M758,570.37,473.73,391.16m284.55,179.2L686.7,542.83"/><path id="path4209" class="cls-3" d="M758.34,570.4,476.48,771.26"/></g><path class="cls-1" d="M1832,584.41c-14.22,18.88-30.16,14.5-38.06,31.92-9.76,21.54,1.24,57.5,28.84,73,19.49,10.92,40.43,4.89,64-2a397.65,397.65,0,0,0-41.54-159.21A80.25,80.25,0,0,1,1832,584.41Z"/><path class="cls-1" d="M1843.13,517.39a74.56,74.56,0,0,1,2,10.77,397.66,397.66,0,0,1,41.55,159.21l1.33-.4c32.83-9.62,36.76-29.43,68.38-37.39a118.93,118.93,0,0,1,43.53-1.6,90.54,90.54,0,0,1,45.77,23.7c-2-4-3.92-8.09-6.11-12.08A281.86,281.86,0,0,0,1843.13,517.39Z"/><path class="cls-1" d="M1839.29,902.37c27.16,9.47,48.9,38.66,45.94,63.7-2.38,20.41-19.42,23.17-20.16,44.34a51.34,51.34,0,0,0,23.37,42.73,43.42,43.42,0,0,0,8.38,4.18A285.79,285.79,0,0,0,1927.3,1043a282.39,282.39,0,0,0,147-247.12c-21.23-1.9-53-2.38-77.26,9.15a119.7,119.7,0,0,0-59,54.49c-15.12,32.25-5.77,61.11-19.36,66.1-9.59,3.58-22.32-8.12-31.12-16.29-20.08-18.6-24.37-36.27-31.43-49a397.73,397.73,0,0,1-20,41.06C1837.45,901.76,1838.59,902.13,1839.29,902.37Z"/><path class="cls-1" d="M1841.56,845.62c-15.53-7.49-33.2-.83-52.08,6.28-39.55,15-45.35,38.68-68.37,37.39a46.29,46.29,0,0,1-40.47-33.39c-4.54-25.38,30.79-35.26,53.55-84.8,7.4-15.92,24.87-54,10-83.19-14.52-28.59-46.35-21.62-71.58-49.68-10.9-12.07-22.18-47.37-23.43-86.78a282.44,282.44,0,0,0-139.68,256.49l0,.07a286.92,286.92,0,0,0,50.62,91.56c24,31.59,45.94,60.26,85.6,75.32,17.42,6.68,44.12,16.73,70,6.14,28.64-11.78,54.84-48.53,59-54.48a60.07,60.07,0,0,1,21-22.57,55.56,55.56,0,0,1,40.34-2.6,397.73,397.73,0,0,0,20-41.06A32.32,32.32,0,0,0,1841.56,845.62Z"/><path class="cls-1" d="M1366.25,785c-20.72-11.36-18.67-27.76-37-33.09-22.72-6.56-56.72,9.49-68.15,39-8,20.85,1,40.7,11.19,63a397.68,397.68,0,0,0,151.6-64A80.29,80.29,0,0,1,1366.25,785Z"/><path class="cls-1" d="M1434.19,786.47a74.68,74.68,0,0,1-10.38,3.54,397.5,397.5,0,0,1-151.59,64l.58,1.27c14.23,31.1,34.4,32.15,46.82,62.29a118.91,118.91,0,0,1,7.83,42.86,90.62,90.62,0,0,1-16.88,48.7c3.71-2.53,7.44-5.05,11.08-7.78A281.91,281.91,0,0,0,1434.19,786.47Z"/><path class="cls-1" d="M1052.63,837.92c-5.46,28.24-31.24,53.94-56.44,54.61-20.54.57-25.71-15.89-46.78-13.59a51.36,51.36,0,0,0-38.93,29.26,42.88,42.88,0,0,0-2.93,8.89,281.86,281.86,0,0,0,284.21,138.08c-1.17-21.28-5.26-52.83-20.15-75.14a119.6,119.6,0,0,0-62.39-50.59c-34.09-10.33-61.31,3.06-68.2-9.68-4.92-9,4.83-23.25,11.66-33.13,15.52-22.55,32.39-29.32,44-38.13a398.45,398.45,0,0,1-43.5-13.88C1053,836,1052.78,837.2,1052.63,837.92Z"/><path class="cls-1" d="M1109.13,832c5.18-16.44-4-33-13.69-50.64-20.49-37-44.79-39.33-46.82-62.3a46.27,46.27,0,0,1,27.23-44.83c24.47-8.15,39.32,25.41,91.61,40.82,16.82,5,57,16.86,83.77-2,26.21-18.47,14.74-49,38.89-78,10.39-12.52,43.7-28.76,82.52-35.64A282.42,282.42,0,0,0,1098.77,498l-.08.06a286.85,286.85,0,0,0-83.34,63.24c-27.81,28.34-53,54.11-62.25,95.52-4.11,18.2-10.23,46.07,4,70.13,15.77,26.66,55.9,47.31,62.39,50.6a60,60,0,0,1,25.35,17.51,55.57,55.57,0,0,1,8.36,39.55,398.45,398.45,0,0,0,43.5,13.88A32.41,32.41,0,0,0,1109.13,832Z"/></g></g></svg>