<svg xmlns="http://www.w3.org/2000/svg" viewBox="0 0 2536.56 555.65"><defs><style>.cls-1{fill:#333;}</style></defs><title>logo</title><g id="Capa_2" data-name="Capa 2"><g id="Capa_1-2" data-name="Capa 1"><g id="g5863"><path id="path3347" class="cls-1" d="M269.15,525.83q8.36,6.75,17.1,13.19l-8.16-31.1m-.1-.37L138,0c-95.55,207.29-2.73,433.73,148.18,539.37"/><rect id="rect4157" class="cls-1" x="28.59" y="199.1" width="65.96" height="226.48" rx="1.4" transform="translate(-80.81 27.6) rotate(-15.42)"/></g><polygon class="cls-1" points="342.33 237.29 216.42 181.42 261.22 348.63 342.33 237.29"/><path class="cls-1" d="M564.3,278.6c0,50,33.53,77.8,73.38,77.8,37.32,0,58.19-23.41,65.15-46.81l84.76,25.93C773.67,390.55,721.81,445,637.68,445,544.06,445,468.79,376,468.79,278.6c0-98.05,73.38-167,165.73-167,86.65,0,137.26,53.13,151.17,109.42l-86,25.94c-7-24-25.94-46.81-63.26-46.81C596.56,200.16,564.3,228,564.3,278.6Z"/><path class="cls-1" d="M1154.46,278c0,97.41-72.74,167-167,167-93.61,0-167-69.58-167-167s73.38-166.35,167-166.35C1081.72,111.61,1154.46,180.55,1154.46,278Zm-96.14,0c0-53.13-34.16-77.8-70.85-77.8-36.05,0-70.84,24.67-70.84,77.8,0,52.5,34.79,78.44,70.84,78.44C1024.16,356.4,1058.32,331.1,1058.32,278Z"/><path class="cls-1" d="M1527.66,278c0,97.41-72.74,167-167,167-93.61,0-167-69.58-167-167s73.38-166.35,167-166.35C1454.92,111.61,1527.66,180.55,1527.66,278Zm-96.14,0c0-53.13-34.16-77.8-70.85-77.8-36.05,0-70.84,24.67-70.84,77.8,0,52.5,34.79,78.44,70.84,78.44C1397.36,356.4,1431.52,331.1,1431.52,278Z"/><path class="cls-1" d="M1589.65,555.65V121.09h93v32.26c13.28-20.24,47.44-39.85,92.35-39.85,91.08,0,146.11,69.58,146.11,163.83,0,96.15-62,165.09-149.91,165.09-40.48,0-70.84-13.91-85.39-31.62V555.65Zm165.73-355.49c-37.32,0-70.84,25.3-70.84,77.8,0,51.87,33.52,78.44,70.84,78.44,37.95,0,71.48-25.94,71.48-78.44S1793.33,200.16,1755.38,200.16Z"/><path class="cls-1" d="M2269,345c-15.18,54.4-65.15,99.94-144.85,99.94-86.66,0-163.83-62-163.83-167.62,0-101.21,75.27-165.72,156.87-165.72,97.41,0,157.5,60.09,157.5,161.29,0,13.29-1.26,27.83-1.89,29.73H2053.94c1.9,35.42,34.15,60.73,71.48,60.73,34.78,0,54.39-16.45,63.25-41.12Zm-87.29-104.37c-1.26-24-17.71-53.13-63.25-53.13-40.49,0-60.73,29.73-62.62,53.13Z"/><path class="cls-1" d="M2536.56,216a130.43,130.43,0,0,0-30.36-3.16c-38.58,0-73.37,22.77-73.37,85.39V435.46h-96.15V121.09h93v42.38c16.45-35.42,56.3-45.54,81.6-45.54,9.49,0,19,1.27,25.3,3.16Z"/></g></g></svg>