<?xml version="1.0" encoding="utf-8"?>
<!-- Generator: Adobe Illustrator 23.0.4, SVG Export Plug-In . SVG Version: 6.00 Build 0)  -->
<svg version="1.1" id="Capa_1" xmlns="http://www.w3.org/2000/svg" xmlns:xlink="http://www.w3.org/1999/xlink" x="0px" y="0px"
	 viewBox="0 0 129 129" style="enable-background:new 0 0 129 129;" xml:space="preserve">
<style type="text/css">
	.st0{fill:#FFFFFF;}
</style>
<g>
	<g>
		<path class="st0" d="M119.2,114.3H9.8c-2.3,0-4.1,1.9-4.1,4.1s1.9,4.1,4.1,4.1h109.5c2.3,0,4.1-1.9,4.1-4.1
			S121.5,114.3,119.2,114.3z"/>
		<path class="st0" d="M5.7,78L5.6,97.5c0,1.1,0.4,2.2,1.2,3s1.8,1.2,2.9,1.2l19.4-0.1c1.1,0,2.1-0.4,2.9-1.2l67-67
			c1.6-1.6,1.6-4.2,0-5.9L79.8,8.1c-1.6-1.6-4.2-1.6-5.9,0L60.5,21.6L6.9,75.1C6.2,75.9,5.7,76.9,5.7,78z M76.9,16.9l13.5,13.5
			L82.8,38L69.3,24.5C69.3,24.5,76.9,16.9,76.9,16.9z M14,79.8l49.4-49.4l13.5,13.5L27.5,93.2l-13.6,0.1C13.9,93.3,14,79.8,14,79.8z
			"/>
	</g>
</g>
</svg>
