<?xml version="1.0" encoding="iso-8859-1"?>
<!-- Generator: Adobe Illustrator 19.0.0, SVG Export Plug-In . SVG Version: 6.00 Build 0)  -->
<svg version="1.1" id="Layer_1" xmlns="http://www.w3.org/2000/svg" xmlns:xlink="http://www.w3.org/1999/xlink" x="0px" y="0px"
	 viewBox="0 0 512 512" style="enable-background:new 0 0 512 512;" xml:space="preserve">
<g>
	<path style="fill:#E0E0E0;" d="M256,102.4c-5.585,0-9.309-3.724-9.309-9.309V65.164c0-5.585,3.724-9.309,9.309-9.309
		c5.585,0,9.309,3.724,9.309,9.309v27.927C265.309,97.745,261.585,102.4,256,102.4"/>
	<path style="fill:#E0E0E0;" d="M349.091,512H162.909c-15.825,0-27.927-12.102-27.927-27.927V186.182h242.036v297.891
		C377.018,499.898,364.916,512,349.091,512"/>
</g>
<g>
	<path style="fill:#A3AAAF;" d="M377.018,186.182H134.982c0-51.2,41.891-93.091,93.091-93.091h55.855
		C335.127,93.091,377.018,134.982,377.018,186.182"/>
	<path style="fill:#A3AAAF;" d="M228.073,65.164h55.855V0h-55.855V65.164z"/>
	<path style="fill:#A3AAAF;" d="M228.073,390.982h148.945V242.036H228.073V390.982z"/>
	<path style="fill:#A3AAAF;" d="M172.218,446.836c5.585,0,9.309-3.724,9.309-9.309c0-5.585-3.724-9.309-9.309-9.309h-37.236v18.618
		H172.218z"/>
	<path style="fill:#A3AAAF;" d="M200.145,474.764c0-5.585-3.724-9.309-9.309-9.309h-55.855v18.618h55.855
		C196.422,484.073,200.145,480.349,200.145,474.764"/>
</g>
<g>
</g>
<g>
</g>
<g>
</g>
<g>
</g>
<g>
</g>
<g>
</g>
<g>
</g>
<g>
</g>
<g>
</g>
<g>
</g>
<g>
</g>
<g>
</g>
<g>
</g>
<g>
</g>
<g>
</g>
</svg>
